{"glyphs":{"0":{"ha":833,"x_min":92,"x_max":741,"o":"m 416 820 q 589 767 516 820 q 702 619 663 714 q 741 402 741 524 q 702 185 741 280 q 589 38 663 91 q 416 -15 516 -15 q 243 38 317 -15 q 131 185 170 91 q 92 402 92 280 q 131 619 92 524 q 243 767 170 714 q 416 820 317 820 m 416 659 q 308 594 346 659 q 270 402 270 530 q 308 210 270 275 q 416 146 346 146 q 525 210 487 146 q 563 402 563 275 q 525 594 563 530 q 416 659 487 659 z "},"1":{"ha":833,"x_min":126,"x_max":724,"o":"m 682 153 q 715 137 705 153 q 724 76 724 121 q 720 29 724 45 q 707 6 715 13 q 682 0 698 0 l 185 0 q 160 6 169 0 q 147 29 151 13 q 142 76 142 45 q 152 137 142 121 q 185 153 161 153 l 352 153 l 352 589 l 210 509 q 191 503 200 503 q 165 516 178 503 q 140 559 153 530 q 126 609 126 589 q 133 633 126 623 q 153 650 139 642 l 439 811 q 477 822 458 822 q 509 811 497 822 q 522 779 522 800 l 522 153 l 682 153 z "},"2":{"ha":833,"x_min":127,"x_max":715,"o":"m 672 159 q 697 153 688 159 q 710 129 706 146 q 715 79 715 111 q 710 30 715 47 q 697 6 706 13 q 672 0 688 0 l 170 0 q 145 6 154 0 q 132 26 136 12 q 127 70 127 41 q 131 111 127 97 q 144 133 134 124 l 410 397 q 472 463 452 439 q 505 510 493 487 q 517 559 517 534 q 489 633 517 606 q 408 659 460 659 q 217 608 320 659 q 197 603 206 603 q 144 661 164 603 q 136 703 136 685 q 144 733 136 721 q 168 754 152 745 q 414 820 286 820 q 564 789 503 820 q 657 700 626 758 q 689 566 689 643 q 654 436 689 497 q 552 309 620 374 l 399 159 l 672 159 z "},"3":{"ha":833,"x_min":118,"x_max":703,"o":"m 393 820 q 605 761 530 820 q 679 589 679 701 q 583 423 679 473 q 671 352 640 397 q 703 241 703 306 q 616 50 703 115 q 376 -15 530 -15 q 143 37 241 -15 q 118 81 118 50 q 129 132 118 100 q 180 192 151 192 q 194 189 186 192 q 284 157 237 168 q 376 146 332 146 q 484 171 448 146 q 521 244 521 196 q 492 314 521 291 q 406 338 463 338 l 315 338 q 282 354 292 338 q 273 414 273 370 q 282 474 273 458 q 315 490 292 490 l 387 490 q 477 512 448 490 q 507 578 507 533 q 476 642 507 621 q 389 663 446 663 q 298 651 345 663 q 208 619 252 640 q 195 616 201 616 q 143 674 166 616 q 132 724 132 703 q 157 768 132 755 q 393 820 255 820 z "},"4":{"ha":833,"x_min":81,"x_max":745,"o":"m 702 336 q 727 329 718 336 q 740 305 736 322 q 745 256 745 288 q 740 207 745 224 q 727 183 736 189 q 702 176 718 176 l 599 176 l 599 43 q 589 10 599 20 q 556 0 579 0 l 472 0 q 439 10 449 0 q 429 43 429 20 l 429 176 l 124 176 q 99 183 108 176 q 86 207 90 189 q 81 256 81 224 q 93 323 81 307 l 413 773 q 455 808 432 797 q 514 820 479 820 q 578 804 557 820 q 599 759 599 787 l 599 336 l 702 336 m 277 336 l 435 336 l 448 581 l 277 336 z "},"5":{"ha":833,"x_min":120,"x_max":709,"o":"m 446 526 q 589 493 530 526 q 679 399 648 459 q 709 258 709 338 q 625 54 709 123 q 389 -15 540 -15 q 261 1 325 -15 q 145 45 198 17 q 120 90 120 60 q 132 141 120 111 q 182 200 154 200 q 196 197 189 200 q 293 159 243 173 q 389 146 343 146 q 490 175 453 146 q 528 260 528 203 q 497 343 528 314 q 410 372 466 372 q 279 348 346 372 q 224 337 251 337 q 162 347 180 337 q 146 381 144 357 l 168 761 q 179 795 170 785 q 212 805 189 805 l 625 805 q 650 798 641 805 q 663 774 659 791 q 667 725 667 757 q 663 676 667 693 q 650 652 659 659 q 625 646 641 646 l 324 646 l 315 501 q 446 526 380 526 z "},"6":{"ha":833,"x_min":111,"x_max":729,"o":"m 663 820 q 695 792 685 821 q 705 717 705 764 q 677 656 705 658 q 470 624 552 650 q 343 549 389 598 q 285 423 298 500 q 367 483 321 464 q 471 503 412 503 q 605 470 547 503 q 696 380 664 438 q 729 248 729 323 q 691 112 729 172 q 584 19 652 52 q 428 -15 515 -15 q 277 20 342 -15 q 168 119 212 54 q 125 219 140 161 q 111 347 111 278 q 173 594 111 490 q 360 755 236 697 q 663 820 484 813 m 433 359 q 363 345 393 359 q 315 307 332 332 q 298 252 298 283 q 314 194 298 220 q 358 152 329 168 q 427 136 388 136 q 522 166 486 136 q 558 248 558 197 q 524 329 558 300 q 433 359 490 359 z "},"7":{"ha":833,"x_min":114,"x_max":719,"o":"m 676 805 q 701 799 692 805 q 714 779 710 793 q 719 735 719 764 q 713 686 719 702 l 430 16 q 376 -15 417 -15 q 332 -9 358 -15 q 278 13 296 0 q 261 44 261 25 q 266 66 261 54 l 512 646 l 157 646 q 132 652 140 646 q 118 676 123 659 q 114 725 114 693 q 118 774 114 757 q 132 798 123 791 q 157 805 140 805 l 676 805 z "},"8":{"ha":833,"x_min":118,"x_max":715,"o":"m 416 820 q 561 789 499 820 q 655 706 623 759 q 688 591 688 654 q 660 486 688 528 q 580 420 631 443 q 680 348 644 396 q 715 227 715 300 q 678 98 715 153 q 573 14 641 43 q 416 -15 506 -15 q 259 14 327 -15 q 155 98 192 43 q 118 227 118 153 q 153 348 118 300 q 253 420 189 396 q 173 485 201 443 q 144 591 144 528 q 177 706 144 654 q 272 789 210 759 q 416 820 334 820 m 416 672 q 339 646 368 672 q 310 577 310 620 q 338 509 310 534 q 416 483 367 483 q 494 509 466 483 q 523 577 523 534 q 494 646 523 620 q 416 672 465 672 m 416 351 q 326 321 358 351 q 294 241 294 292 q 326 162 294 192 q 416 133 358 133 q 507 162 475 133 q 538 241 538 192 q 507 321 538 292 q 416 351 475 351 z "},"9":{"ha":833,"x_min":104,"x_max":722,"o":"m 405 820 q 555 785 490 820 q 665 686 621 751 q 707 586 692 644 q 722 458 722 527 q 598 116 722 237 q 211 -15 475 -5 q 183 2 193 -16 q 170 58 174 20 q 169 88 169 69 q 197 149 169 147 q 393 181 320 155 q 502 254 466 206 q 548 382 538 302 q 466 322 511 341 q 361 302 420 302 q 228 335 286 302 q 136 425 169 367 q 104 557 104 482 q 142 693 104 633 q 249 786 180 753 q 405 820 318 820 m 406 669 q 311 638 347 669 q 275 557 275 608 q 309 476 275 505 q 400 446 342 446 q 470 460 439 446 q 517 498 500 473 q 534 553 534 522 q 519 611 534 585 q 474 653 504 637 q 406 669 445 669 z "}," ":{"ha":833,"x_min":0,"x_max":0,"o":""},"A":{"ha":833,"x_min":48,"x_max":781,"o":"m 777 66 q 781 48 781 58 q 764 19 781 31 q 711 -1 748 7 q 656 -9 677 -9 q 626 -3 637 -9 q 610 18 615 4 l 563 149 l 266 149 l 218 18 q 201 -3 212 4 q 172 -9 190 -9 q 117 -1 151 -9 q 64 19 80 7 q 48 47 48 31 q 52 66 48 56 l 323 776 q 354 810 332 800 q 420 820 376 820 q 485 810 464 820 q 515 776 507 800 l 777 66 m 319 309 l 512 309 l 418 587 l 416 587 l 319 309 z "},"Á":{"ha":833,"x_min":48,"x_max":781,"o":"m 359 880 q 343 876 351 876 q 297 910 319 876 q 282 953 282 934 q 296 982 282 972 l 532 1155 q 554 1162 543 1162 q 624 1112 585 1162 q 651 1048 651 1075 q 635 1019 651 1027 l 359 880 m 777 66 q 781 48 781 58 q 764 19 781 31 q 711 -1 748 7 q 656 -9 677 -9 q 626 -3 637 -9 q 610 18 615 4 l 563 149 l 266 149 l 218 18 q 201 -3 212 4 q 172 -9 190 -9 q 117 -1 151 -9 q 64 19 80 7 q 48 47 48 31 q 52 66 48 56 l 323 776 q 354 810 332 800 q 420 820 376 820 q 485 810 464 820 q 515 776 507 800 l 777 66 m 319 309 l 512 309 l 418 587 l 416 587 l 319 309 z "},"Ă":{"ha":833,"x_min":48,"x_max":781,"o":"m 416 889 q 255 939 316 889 q 178 1075 194 989 q 177 1084 177 1078 q 188 1108 177 1098 q 222 1124 199 1118 q 251 1128 238 1128 q 280 1110 273 1128 q 329 1047 296 1067 q 416 1027 361 1027 q 504 1047 471 1027 q 553 1110 537 1067 q 582 1128 560 1128 q 611 1124 595 1128 q 645 1108 634 1118 q 656 1084 656 1098 q 655 1075 656 1078 q 578 939 639 989 q 416 889 517 889 m 777 66 q 781 48 781 58 q 764 19 781 31 q 711 -1 748 7 q 656 -9 677 -9 q 626 -3 637 -9 q 610 18 615 4 l 563 149 l 266 149 l 218 18 q 201 -3 212 4 q 172 -9 190 -9 q 117 -1 151 -9 q 64 19 80 7 q 48 47 48 31 q 52 66 48 56 l 323 776 q 354 810 332 800 q 420 820 376 820 q 485 810 464 820 q 515 776 507 800 l 777 66 m 319 309 l 512 309 l 418 587 l 416 587 l 319 309 z "},"Â":{"ha":833,"x_min":48,"x_max":781,"o":"m 254 880 q 231 873 242 873 q 191 902 211 873 q 174 943 174 926 q 189 971 174 958 l 368 1124 q 388 1136 378 1132 q 416 1139 399 1139 q 445 1136 434 1139 q 465 1124 455 1132 l 644 971 q 659 943 659 958 q 642 902 659 926 q 602 873 622 873 q 579 880 591 873 l 416 974 l 254 880 m 777 66 q 781 48 781 58 q 764 19 781 31 q 711 -1 748 7 q 656 -9 677 -9 q 626 -3 637 -9 q 610 18 615 4 l 563 149 l 266 149 l 218 18 q 201 -3 212 4 q 172 -9 190 -9 q 117 -1 151 -9 q 64 19 80 7 q 48 47 48 31 q 52 66 48 56 l 323 776 q 354 810 332 800 q 420 820 376 820 q 485 810 464 820 q 515 776 507 800 l 777 66 m 319 309 l 512 309 l 418 587 l 416 587 l 319 309 z "},"Ä":{"ha":833,"x_min":48,"x_max":781,"o":"m 269 911 q 202 921 221 911 q 182 954 182 930 l 182 1065 q 200 1098 182 1088 q 265 1107 218 1107 q 333 1098 313 1107 q 352 1065 352 1088 l 352 954 q 334 921 352 930 q 269 911 316 911 m 567 911 q 500 921 519 911 q 481 954 481 930 l 481 1065 q 498 1098 481 1088 q 564 1107 516 1107 q 631 1098 612 1107 q 650 1065 650 1088 l 650 954 q 632 921 650 930 q 567 911 614 911 m 777 66 q 781 48 781 58 q 764 19 781 31 q 711 -1 748 7 q 656 -9 677 -9 q 626 -3 637 -9 q 610 18 615 4 l 563 149 l 266 149 l 218 18 q 201 -3 212 4 q 172 -9 190 -9 q 117 -1 151 -9 q 64 19 80 7 q 48 47 48 31 q 52 66 48 56 l 323 776 q 354 810 332 800 q 420 820 376 820 q 485 810 464 820 q 515 776 507 800 l 777 66 m 319 309 l 512 309 l 418 587 l 416 587 l 319 309 z "},"À":{"ha":833,"x_min":48,"x_max":781,"o":"m 198 1019 q 182 1048 182 1027 q 209 1112 182 1075 q 279 1162 248 1162 q 301 1155 290 1162 l 536 982 q 551 953 551 972 q 536 910 551 934 q 490 876 514 876 q 474 880 481 876 l 198 1019 m 777 66 q 781 48 781 58 q 764 19 781 31 q 711 -1 748 7 q 656 -9 677 -9 q 626 -3 637 -9 q 610 18 615 4 l 563 149 l 266 149 l 218 18 q 201 -3 212 4 q 172 -9 190 -9 q 117 -1 151 -9 q 64 19 80 7 q 48 47 48 31 q 52 66 48 56 l 323 776 q 354 810 332 800 q 420 820 376 820 q 485 810 464 820 q 515 776 507 800 l 777 66 m 319 309 l 512 309 l 418 587 l 416 587 l 319 309 z "},"Ā":{"ha":833,"x_min":48,"x_max":781,"o":"m 233 909 q 208 914 216 909 q 194 935 199 920 q 190 978 190 949 q 194 1021 190 1006 q 208 1042 199 1036 q 233 1048 216 1048 l 600 1048 q 625 1042 616 1048 q 638 1021 634 1036 q 643 978 643 1006 q 638 935 643 949 q 625 914 634 920 q 600 909 616 909 l 233 909 m 777 66 q 781 48 781 58 q 764 19 781 31 q 711 -1 748 7 q 656 -9 677 -9 q 626 -3 637 -9 q 610 18 615 4 l 563 149 l 266 149 l 218 18 q 201 -3 212 4 q 172 -9 190 -9 q 117 -1 151 -9 q 64 19 80 7 q 48 47 48 31 q 52 66 48 56 l 323 776 q 354 810 332 800 q 420 820 376 820 q 485 810 464 820 q 515 776 507 800 l 777 66 m 319 309 l 512 309 l 418 587 l 416 587 l 319 309 z "},"Ą":{"ha":833,"x_min":48,"x_max":809,"o":"m 420 820 q 485 810 464 820 q 515 776 507 800 l 777 66 q 781 47 781 54 q 764 19 781 31 q 633 -143 633 -78 q 693 -189 633 -189 q 774 -180 724 -189 q 809 -245 809 -174 q 802 -280 809 -268 q 782 -297 795 -292 q 635 -320 713 -320 q 512 -285 555 -320 q 469 -182 469 -250 q 506 -78 469 -124 q 612 12 544 -33 l 563 149 l 266 149 l 218 18 q 201 -3 212 4 q 172 -9 190 -9 q 117 -1 151 -9 q 64 19 80 7 q 48 47 48 31 q 52 66 48 56 l 323 776 q 354 810 332 800 q 420 820 376 820 m 416 587 l 319 309 l 512 309 l 418 587 l 416 587 z "},"Å":{"ha":833,"x_min":48,"x_max":781,"o":"m 416 863 q 326 886 366 863 q 262 950 285 909 q 239 1041 239 991 q 262 1132 239 1091 q 326 1196 285 1173 q 416 1219 366 1219 q 507 1196 467 1219 q 571 1132 548 1173 q 594 1041 594 1091 q 571 950 594 991 q 507 886 548 909 q 416 863 467 863 m 416 1103 q 371 1086 388 1103 q 354 1041 354 1069 q 371 996 354 1013 q 416 979 388 979 q 462 996 445 979 q 479 1041 479 1013 q 462 1086 479 1069 q 416 1103 445 1103 m 777 66 q 781 48 781 58 q 764 19 781 31 q 711 -1 748 7 q 656 -9 677 -9 q 626 -3 637 -9 q 610 18 615 4 l 563 149 l 266 149 l 218 18 q 201 -3 212 4 q 172 -9 190 -9 q 117 -1 151 -9 q 64 19 80 7 q 48 47 48 31 q 52 66 48 56 l 323 776 q 354 810 332 800 q 420 820 376 820 q 485 810 464 820 q 515 776 507 800 l 777 66 m 319 309 l 512 309 l 418 587 l 416 587 l 319 309 z "},"Ã":{"ha":833,"x_min":48,"x_max":781,"o":"m 243 911 q 223 902 234 902 q 178 929 203 902 q 154 981 154 956 q 161 1004 154 994 q 239 1084 195 1055 q 329 1113 282 1113 q 378 1105 356 1113 q 431 1082 401 1097 q 470 1064 455 1069 q 502 1058 486 1058 q 589 1107 543 1058 q 610 1116 599 1116 q 654 1089 629 1116 q 679 1038 679 1062 q 672 1015 679 1024 q 594 934 637 963 q 504 905 551 905 q 454 913 477 905 q 402 937 432 922 q 362 955 378 949 q 331 960 347 960 q 243 911 290 960 m 777 66 q 781 48 781 58 q 764 19 781 31 q 711 -1 748 7 q 656 -9 677 -9 q 626 -3 637 -9 q 610 18 615 4 l 563 149 l 266 149 l 218 18 q 201 -3 212 4 q 172 -9 190 -9 q 117 -1 151 -9 q 64 19 80 7 q 48 47 48 31 q 52 66 48 56 l 323 776 q 354 810 332 800 q 420 820 376 820 q 485 810 464 820 q 515 776 507 800 l 777 66 m 319 309 l 512 309 l 418 587 l 416 587 l 319 309 z "},"Æ":{"ha":833,"x_min":-8,"x_max":800,"o":"m 758 159 q 783 153 774 159 q 796 129 791 146 q 800 79 800 111 q 796 30 800 47 q 783 6 791 13 q 758 0 774 0 l 416 0 q 383 10 393 0 q 373 43 373 20 l 373 183 l 217 183 l 161 18 q 145 -3 156 4 q 117 -10 135 -10 q 61 -1 97 -10 q 8 21 24 9 q -8 48 -8 33 q -5 66 -8 56 l 240 766 q 258 796 247 787 q 290 805 269 805 l 744 805 q 769 798 760 805 q 782 774 778 791 q 787 725 787 757 q 782 676 787 693 q 769 652 778 659 q 744 646 760 646 l 543 646 l 543 494 l 701 494 q 726 488 718 494 q 740 464 735 481 q 744 414 744 446 q 740 365 744 382 q 726 341 735 348 q 701 335 718 335 l 543 335 l 543 159 l 758 159 m 373 342 l 373 646 l 361 646 l 265 342 l 373 342 z "},"B":{"ha":833,"x_min":122,"x_max":750,"o":"m 444 805 q 653 747 585 805 q 722 586 722 689 q 693 487 722 529 q 612 421 665 446 q 713 354 676 400 q 750 233 750 307 q 676 59 750 118 q 461 0 602 0 l 165 0 q 132 10 142 0 q 122 43 122 20 l 122 762 q 132 795 122 785 q 165 805 142 805 l 444 805 m 292 659 l 292 484 l 429 484 q 519 506 490 484 q 549 572 549 528 q 520 638 549 618 q 429 659 492 659 l 292 659 m 292 338 l 292 146 l 442 146 q 574 240 574 146 q 542 314 574 290 q 442 338 509 338 l 292 338 z "},"C":{"ha":833,"x_min":85,"x_max":751,"o":"m 457 820 q 720 761 597 820 q 751 711 751 746 q 741 664 751 692 q 718 621 732 635 q 688 607 704 607 q 668 612 677 607 q 567 648 616 636 q 464 659 518 659 q 315 593 368 659 q 263 403 263 528 q 316 212 263 278 q 464 146 368 146 q 567 157 518 146 q 668 193 616 169 q 688 198 677 198 q 718 184 704 198 q 741 141 732 170 q 751 94 751 113 q 720 44 751 59 q 457 -15 597 -15 q 262 36 346 -15 q 132 181 178 87 q 85 403 85 275 q 132 625 85 530 q 262 769 178 719 q 457 820 346 820 z "},"Ć":{"ha":833,"x_min":85,"x_max":751,"o":"m 567 1155 q 589 1162 578 1162 q 659 1112 621 1162 q 686 1048 686 1075 q 670 1019 686 1027 l 394 880 q 378 876 387 876 q 332 910 354 876 q 317 953 317 934 q 332 982 317 972 l 567 1155 m 457 820 q 720 761 597 820 q 751 711 751 746 q 741 664 751 692 q 718 621 732 635 q 688 607 704 607 q 668 612 677 607 q 567 648 616 636 q 464 659 518 659 q 315 593 368 659 q 263 403 263 528 q 316 212 263 278 q 464 146 368 146 q 567 157 518 146 q 668 193 616 169 q 688 198 677 198 q 718 184 704 198 q 741 141 732 170 q 751 94 751 113 q 720 44 751 59 q 457 -15 597 -15 q 262 36 346 -15 q 132 181 178 87 q 85 403 85 275 q 132 625 85 530 q 262 769 178 719 q 457 820 346 820 z "},"Č":{"ha":833,"x_min":85,"x_max":751,"o":"m 457 880 q 429 883 439 880 q 409 895 418 887 l 229 1048 q 214 1076 214 1061 q 231 1117 214 1093 q 272 1146 252 1146 q 294 1139 283 1146 l 457 1045 l 620 1139 q 642 1146 631 1146 q 683 1117 663 1146 q 700 1076 700 1093 q 685 1048 700 1061 l 505 895 q 485 883 496 887 q 457 880 475 880 m 457 820 q 720 761 597 820 q 751 711 751 746 q 741 664 751 692 q 718 621 732 635 q 688 607 704 607 q 668 612 677 607 q 567 648 616 636 q 464 659 518 659 q 315 593 368 659 q 263 403 263 528 q 316 212 263 278 q 464 146 368 146 q 567 157 518 146 q 668 193 616 169 q 688 198 677 198 q 718 184 704 198 q 741 141 732 170 q 751 94 751 113 q 720 44 751 59 q 457 -15 597 -15 q 262 36 346 -15 q 132 181 178 87 q 85 403 85 275 q 132 625 85 530 q 262 769 178 719 q 457 820 346 820 z "},"Ç":{"ha":833,"x_min":85,"x_max":751,"o":"m 668 193 q 688 198 677 198 q 718 184 704 198 q 741 141 732 170 q 751 94 751 113 q 720 44 751 59 q 507 -13 621 -4 l 507 -56 q 617 -92 580 -56 q 654 -185 654 -127 q 605 -285 654 -250 q 465 -320 557 -320 q 291 -292 365 -320 q 275 -265 275 -285 q 281 -235 275 -252 q 318 -191 298 -191 q 326 -193 321 -191 q 435 -212 382 -212 q 485 -204 469 -212 q 500 -178 500 -195 q 484 -153 500 -160 q 439 -146 468 -146 l 423 -146 q 407 -147 418 -147 q 382 -119 382 -147 l 382 -8 q 225 62 292 7 q 122 203 158 116 q 85 403 85 290 q 132 625 85 530 q 262 769 178 719 q 457 820 346 820 q 720 761 597 820 q 751 711 751 746 q 741 664 751 692 q 718 621 732 635 q 688 607 704 607 q 668 612 677 607 q 567 648 616 636 q 464 659 518 659 q 315 593 368 659 q 263 403 263 528 q 316 212 263 278 q 464 146 368 146 q 567 157 518 146 q 668 193 616 169 z "},"Ĉ":{"ha":833,"x_min":85,"x_max":751,"o":"m 457 1139 q 485 1136 475 1139 q 505 1124 496 1132 l 685 971 q 700 943 700 958 q 683 902 700 926 q 642 873 663 873 q 620 880 631 873 l 457 974 l 294 880 q 272 873 283 873 q 231 902 252 873 q 214 943 214 926 q 229 971 214 958 l 409 1124 q 429 1136 418 1132 q 457 1139 439 1139 m 457 820 q 720 761 597 820 q 751 711 751 746 q 741 664 751 692 q 718 621 732 635 q 688 607 704 607 q 668 612 677 607 q 567 648 616 636 q 464 659 518 659 q 315 593 368 659 q 263 403 263 528 q 316 212 263 278 q 464 146 368 146 q 567 157 518 146 q 668 193 616 169 q 688 198 677 198 q 718 184 704 198 q 741 141 732 170 q 751 94 751 113 q 720 44 751 59 q 457 -15 597 -15 q 262 36 346 -15 q 132 181 178 87 q 85 403 85 275 q 132 625 85 530 q 262 769 178 719 q 457 820 346 820 z "},"Ċ":{"ha":833,"x_min":85,"x_max":751,"o":"m 455 1107 q 523 1098 503 1107 q 542 1065 542 1088 l 542 954 q 524 921 542 930 q 458 911 506 911 q 392 921 411 911 q 372 954 372 930 l 372 1065 q 390 1098 372 1088 q 455 1107 408 1107 m 457 820 q 720 761 597 820 q 751 711 751 746 q 741 664 751 692 q 718 621 732 635 q 688 607 704 607 q 668 612 677 607 q 567 648 616 636 q 464 659 518 659 q 315 593 368 659 q 263 403 263 528 q 316 212 263 278 q 464 146 368 146 q 567 157 518 146 q 668 193 616 169 q 688 198 677 198 q 718 184 704 198 q 741 141 732 170 q 751 94 751 113 q 720 44 751 59 q 457 -15 597 -15 q 262 36 346 -15 q 132 181 178 87 q 85 403 85 275 q 132 625 85 530 q 262 769 178 719 q 457 820 346 820 z "},"D":{"ha":833,"x_min":109,"x_max":768,"o":"m 389 805 q 593 758 508 805 q 723 621 677 711 q 768 403 768 530 q 723 185 768 275 q 593 47 677 94 q 389 0 508 0 l 151 0 q 118 10 128 0 q 109 43 109 20 l 109 762 q 118 795 109 785 q 151 805 128 805 l 389 805 m 278 646 l 278 159 l 376 159 q 536 221 481 159 q 590 403 590 282 q 536 585 590 524 q 376 646 481 646 l 278 646 z "},"Ð":{"ha":833,"x_min":27,"x_max":768,"o":"m 389 805 q 593 758 508 805 q 723 621 677 711 q 768 403 768 530 q 723 185 768 275 q 593 47 677 94 q 389 0 508 0 l 172 0 q 139 10 149 0 q 129 43 129 20 l 129 335 l 70 335 q 45 341 54 335 q 32 363 36 347 q 27 411 27 379 q 32 459 27 443 q 45 481 36 475 q 70 488 54 488 l 129 488 l 129 762 q 139 795 129 785 q 172 805 149 805 l 389 805 m 376 159 q 536 221 481 159 q 590 403 590 282 q 536 585 590 524 q 376 646 481 646 l 298 646 l 298 488 l 417 488 q 442 481 433 488 q 455 459 451 475 q 460 411 460 443 q 455 363 460 379 q 442 341 451 347 q 417 335 433 335 l 298 335 l 298 159 l 376 159 z "},"Ď":{"ha":833,"x_min":109,"x_max":768,"o":"m 410 880 q 381 883 392 880 q 361 895 371 887 l 182 1048 q 167 1076 167 1061 q 184 1117 167 1093 q 224 1146 204 1146 q 247 1139 235 1146 l 410 1045 l 572 1139 q 595 1146 584 1146 q 635 1117 615 1146 q 652 1076 652 1093 q 637 1048 652 1061 l 458 895 q 438 883 448 887 q 410 880 427 880 m 389 805 q 593 758 508 805 q 723 621 677 711 q 768 403 768 530 q 723 185 768 275 q 593 47 677 94 q 389 0 508 0 l 151 0 q 118 10 128 0 q 109 43 109 20 l 109 762 q 118 795 109 785 q 151 805 128 805 l 389 805 m 278 646 l 278 159 l 376 159 q 536 221 481 159 q 590 403 590 282 q 536 585 590 524 q 376 646 481 646 l 278 646 z "},"Đ":{"ha":833,"x_min":109,"x_max":768,"o":"m 593 1048 q 618 1042 610 1048 q 632 1021 627 1036 q 636 978 636 1006 q 632 935 636 949 q 618 914 627 920 q 593 909 610 909 l 226 909 q 201 914 210 909 q 188 935 192 920 q 183 978 183 949 q 188 1021 183 1006 q 201 1042 192 1036 q 226 1048 210 1048 l 593 1048 m 389 805 q 593 758 508 805 q 723 621 677 711 q 768 403 768 530 q 723 185 768 275 q 593 47 677 94 q 389 0 508 0 l 151 0 q 118 10 128 0 q 109 43 109 20 l 109 762 q 118 795 109 785 q 151 805 128 805 l 389 805 m 278 646 l 278 159 l 376 159 q 536 221 481 159 q 590 403 590 282 q 536 585 590 524 q 376 646 481 646 l 278 646 z "},"E":{"ha":833,"x_min":136,"x_max":719,"o":"m 676 159 q 701 153 692 159 q 714 129 710 146 q 719 79 719 111 q 714 30 719 47 q 701 6 710 13 q 676 0 692 0 l 178 0 q 145 10 155 0 q 136 43 136 20 l 136 762 q 145 795 136 785 q 178 805 155 805 l 663 805 q 688 798 679 805 q 701 774 696 791 q 705 725 705 757 q 701 676 705 693 q 688 652 696 659 q 663 646 679 646 l 305 646 l 305 494 l 552 494 q 577 488 568 494 q 590 464 586 481 q 595 414 595 446 q 590 365 595 382 q 577 341 586 348 q 552 335 568 335 l 305 335 l 305 159 l 676 159 z "},"É":{"ha":833,"x_min":136,"x_max":719,"o":"m 325 880 q 309 876 318 876 q 263 910 285 876 q 248 953 248 934 q 262 982 248 972 l 498 1155 q 520 1162 509 1162 q 590 1112 551 1162 q 617 1048 617 1075 q 601 1019 617 1027 l 325 880 m 676 159 q 701 153 692 159 q 714 129 710 146 q 719 79 719 111 q 714 30 719 47 q 701 6 710 13 q 676 0 692 0 l 178 0 q 145 10 155 0 q 136 43 136 20 l 136 762 q 145 795 136 785 q 178 805 155 805 l 663 805 q 688 798 679 805 q 701 774 696 791 q 705 725 705 757 q 701 676 705 693 q 688 652 696 659 q 663 646 679 646 l 305 646 l 305 494 l 552 494 q 577 488 568 494 q 590 464 586 481 q 595 414 595 446 q 590 365 595 382 q 577 341 586 348 q 552 335 568 335 l 305 335 l 305 159 l 676 159 z "},"Ĕ":{"ha":833,"x_min":136,"x_max":719,"o":"m 423 889 q 262 939 323 889 q 184 1075 201 989 q 184 1084 184 1078 q 195 1108 184 1098 q 229 1124 205 1118 q 258 1128 245 1128 q 287 1110 280 1128 q 335 1047 302 1067 q 423 1027 368 1027 q 511 1047 478 1027 q 559 1110 544 1067 q 589 1128 567 1128 q 618 1124 602 1128 q 652 1108 641 1118 q 663 1084 663 1098 q 662 1075 663 1078 q 585 939 646 989 q 423 889 524 889 m 676 159 q 701 153 692 159 q 714 129 710 146 q 719 79 719 111 q 714 30 719 47 q 701 6 710 13 q 676 0 692 0 l 178 0 q 145 10 155 0 q 136 43 136 20 l 136 762 q 145 795 136 785 q 178 805 155 805 l 663 805 q 688 798 679 805 q 701 774 696 791 q 705 725 705 757 q 701 676 705 693 q 688 652 696 659 q 663 646 679 646 l 305 646 l 305 494 l 552 494 q 577 488 568 494 q 590 464 586 481 q 595 414 595 446 q 590 365 595 382 q 577 341 586 348 q 552 335 568 335 l 305 335 l 305 159 l 676 159 z "},"Ě":{"ha":833,"x_min":136,"x_max":719,"o":"m 202 1048 q 187 1076 187 1061 q 204 1117 187 1093 q 245 1146 224 1146 q 267 1139 256 1146 l 430 1045 l 593 1139 q 615 1146 604 1146 q 656 1117 635 1146 q 673 1076 673 1093 q 658 1048 673 1061 l 478 895 q 458 883 469 887 q 430 880 448 880 q 402 883 412 880 q 382 895 391 887 l 202 1048 m 676 159 q 701 153 692 159 q 714 129 710 146 q 719 79 719 111 q 714 30 719 47 q 701 6 710 13 q 676 0 692 0 l 178 0 q 145 10 155 0 q 136 43 136 20 l 136 762 q 145 795 136 785 q 178 805 155 805 l 663 805 q 688 798 679 805 q 701 774 696 791 q 705 725 705 757 q 701 676 705 693 q 688 652 696 659 q 663 646 679 646 l 305 646 l 305 494 l 552 494 q 577 488 568 494 q 590 464 586 481 q 595 414 595 446 q 590 365 595 382 q 577 341 586 348 q 552 335 568 335 l 305 335 l 305 159 l 676 159 z "},"Ê":{"ha":833,"x_min":136,"x_max":719,"o":"m 267 880 q 245 873 256 873 q 204 902 224 873 q 187 943 187 926 q 202 971 187 958 l 382 1124 q 402 1136 391 1132 q 430 1139 412 1139 q 458 1136 448 1139 q 478 1124 469 1132 l 658 971 q 673 943 673 958 q 656 902 673 926 q 615 873 635 873 q 593 880 604 873 l 430 974 l 267 880 m 676 159 q 701 153 692 159 q 714 129 710 146 q 719 79 719 111 q 714 30 719 47 q 701 6 710 13 q 676 0 692 0 l 178 0 q 145 10 155 0 q 136 43 136 20 l 136 762 q 145 795 136 785 q 178 805 155 805 l 663 805 q 688 798 679 805 q 701 774 696 791 q 705 725 705 757 q 701 676 705 693 q 688 652 696 659 q 663 646 679 646 l 305 646 l 305 494 l 552 494 q 577 488 568 494 q 590 464 586 481 q 595 414 595 446 q 590 365 595 382 q 577 341 586 348 q 552 335 568 335 l 305 335 l 305 159 l 676 159 z "},"Ë":{"ha":833,"x_min":136,"x_max":719,"o":"m 282 911 q 215 921 235 911 q 196 954 196 930 l 196 1065 q 214 1098 196 1088 q 279 1107 231 1107 q 346 1098 327 1107 q 366 1065 366 1088 l 366 954 q 348 921 366 930 q 282 911 330 911 m 581 911 q 514 921 533 911 q 494 954 494 930 l 494 1065 q 512 1098 494 1088 q 577 1107 530 1107 q 645 1098 625 1107 q 664 1065 664 1088 l 664 954 q 646 921 664 930 q 581 911 628 911 m 676 159 q 701 153 692 159 q 714 129 710 146 q 719 79 719 111 q 714 30 719 47 q 701 6 710 13 q 676 0 692 0 l 178 0 q 145 10 155 0 q 136 43 136 20 l 136 762 q 145 795 136 785 q 178 805 155 805 l 663 805 q 688 798 679 805 q 701 774 696 791 q 705 725 705 757 q 701 676 705 693 q 688 652 696 659 q 663 646 679 646 l 305 646 l 305 494 l 552 494 q 577 488 568 494 q 590 464 586 481 q 595 414 595 446 q 590 365 595 382 q 577 341 586 348 q 552 335 568 335 l 305 335 l 305 159 l 676 159 z "},"Ė":{"ha":833,"x_min":136,"x_max":719,"o":"m 431 911 q 365 921 384 911 q 345 954 345 930 l 345 1065 q 363 1098 345 1088 q 428 1107 380 1107 q 495 1098 476 1107 q 515 1065 515 1088 l 515 954 q 497 921 515 930 q 431 911 479 911 m 676 159 q 701 153 692 159 q 714 129 710 146 q 719 79 719 111 q 714 30 719 47 q 701 6 710 13 q 676 0 692 0 l 178 0 q 145 10 155 0 q 136 43 136 20 l 136 762 q 145 795 136 785 q 178 805 155 805 l 663 805 q 688 798 679 805 q 701 774 696 791 q 705 725 705 757 q 701 676 705 693 q 688 652 696 659 q 663 646 679 646 l 305 646 l 305 494 l 552 494 q 577 488 568 494 q 590 464 586 481 q 595 414 595 446 q 590 365 595 382 q 577 341 586 348 q 552 335 568 335 l 305 335 l 305 159 l 676 159 z "},"È":{"ha":833,"x_min":136,"x_max":719,"o":"m 218 1019 q 202 1048 202 1027 q 229 1112 202 1075 q 299 1162 268 1162 q 321 1155 311 1162 l 557 982 q 571 953 571 972 q 556 910 571 934 q 510 876 534 876 q 494 880 501 876 l 218 1019 m 676 159 q 701 153 692 159 q 714 129 710 146 q 719 79 719 111 q 714 30 719 47 q 701 6 710 13 q 676 0 692 0 l 178 0 q 145 10 155 0 q 136 43 136 20 l 136 762 q 145 795 136 785 q 178 805 155 805 l 663 805 q 688 798 679 805 q 701 774 696 791 q 705 725 705 757 q 701 676 705 693 q 688 652 696 659 q 663 646 679 646 l 305 646 l 305 494 l 552 494 q 577 488 568 494 q 590 464 586 481 q 595 414 595 446 q 590 365 595 382 q 577 341 586 348 q 552 335 568 335 l 305 335 l 305 159 l 676 159 z "},"Ē":{"ha":833,"x_min":136,"x_max":719,"o":"m 239 909 q 214 914 223 909 q 201 935 205 920 q 197 978 197 949 q 201 1021 197 1006 q 214 1042 205 1036 q 239 1048 223 1048 l 607 1048 q 632 1042 623 1048 q 645 1021 641 1036 q 650 978 650 1006 q 645 935 650 949 q 632 914 641 920 q 607 909 623 909 l 239 909 m 676 159 q 701 153 692 159 q 714 129 710 146 q 719 79 719 111 q 714 30 719 47 q 701 6 710 13 q 676 0 692 0 l 178 0 q 145 10 155 0 q 136 43 136 20 l 136 762 q 145 795 136 785 q 178 805 155 805 l 663 805 q 688 798 679 805 q 701 774 696 791 q 705 725 705 757 q 701 676 705 693 q 688 652 696 659 q 663 646 679 646 l 305 646 l 305 494 l 552 494 q 577 488 568 494 q 590 464 586 481 q 595 414 595 446 q 590 365 595 382 q 577 341 586 348 q 552 335 568 335 l 305 335 l 305 159 l 676 159 z "},"Ę":{"ha":833,"x_min":136,"x_max":741,"o":"m 741 -245 q 734 -280 741 -268 q 713 -297 727 -292 q 567 -320 644 -320 q 444 -285 487 -320 q 400 -182 400 -250 q 433 -84 400 -128 q 526 0 466 -41 l 178 0 q 145 10 155 0 q 136 43 136 20 l 136 762 q 145 795 136 785 q 178 805 155 805 l 663 805 q 688 798 679 805 q 701 774 696 791 q 705 725 705 757 q 701 676 705 693 q 688 652 696 659 q 663 646 679 646 l 305 646 l 305 494 l 552 494 q 577 488 568 494 q 590 464 586 481 q 595 414 595 446 q 590 365 595 382 q 577 341 586 348 q 552 335 568 335 l 305 335 l 305 159 l 676 159 q 701 153 692 159 q 714 129 710 146 q 719 79 719 111 q 714 30 719 47 q 701 6 710 13 q 676 0 692 0 l 671 0 q 565 -143 565 -84 q 625 -189 565 -189 q 706 -180 656 -189 q 741 -245 741 -174 z "},"F":{"ha":833,"x_min":149,"x_max":712,"o":"m 669 805 q 694 798 686 805 q 708 774 703 791 q 712 725 712 757 q 708 676 712 693 q 694 652 703 659 q 669 646 686 646 l 319 646 l 319 452 l 613 452 q 638 446 629 452 q 651 421 647 439 q 656 372 656 404 q 651 323 656 340 q 638 299 647 306 q 613 293 629 293 l 319 293 l 319 43 q 309 10 319 20 q 276 0 299 0 l 192 0 q 159 10 169 0 q 149 43 149 20 l 149 762 q 159 795 149 785 q 192 805 169 805 l 669 805 z "},"G":{"ha":833,"x_min":58,"x_max":745,"o":"m 702 452 q 735 443 725 452 q 745 410 745 433 l 745 97 q 738 68 745 81 q 720 50 732 56 q 587 2 662 18 q 430 -15 512 -15 q 235 36 319 -15 q 104 181 151 87 q 58 403 58 275 q 104 625 58 530 q 235 769 151 719 q 430 820 319 820 q 570 804 500 820 q 699 761 639 789 q 730 711 730 747 q 721 664 730 692 q 697 621 711 635 q 667 607 684 607 q 648 612 660 607 q 437 659 541 659 q 288 593 340 659 q 236 403 236 528 q 289 212 236 278 q 437 146 341 146 q 575 167 510 146 l 575 293 l 429 293 q 404 299 412 293 q 390 323 395 306 q 386 372 386 340 q 390 421 386 404 q 404 446 395 439 q 429 452 412 452 l 702 452 z "},"Ğ":{"ha":833,"x_min":58,"x_max":745,"o":"m 430 889 q 269 939 330 889 q 191 1075 208 989 q 191 1084 191 1078 q 201 1108 191 1098 q 235 1124 212 1118 q 264 1128 252 1128 q 294 1110 287 1128 q 342 1047 309 1067 q 430 1027 375 1027 q 518 1047 485 1027 q 566 1110 551 1067 q 595 1128 574 1128 q 625 1124 608 1128 q 659 1108 648 1118 q 669 1084 669 1098 q 669 1075 669 1078 q 591 939 652 989 q 430 889 530 889 m 702 452 q 735 443 725 452 q 745 410 745 433 l 745 97 q 738 68 745 81 q 720 50 732 56 q 587 2 662 18 q 430 -15 512 -15 q 235 36 319 -15 q 104 181 151 87 q 58 403 58 275 q 104 625 58 530 q 235 769 151 719 q 430 820 319 820 q 570 804 500 820 q 699 761 639 789 q 730 711 730 747 q 721 664 730 692 q 697 621 711 635 q 667 607 684 607 q 648 612 660 607 q 437 659 541 659 q 288 593 340 659 q 236 403 236 528 q 289 212 236 278 q 437 146 341 146 q 575 167 510 146 l 575 293 l 429 293 q 404 299 412 293 q 390 323 395 306 q 386 372 386 340 q 390 421 386 404 q 404 446 395 439 q 429 452 412 452 l 702 452 z "},"Ĝ":{"ha":833,"x_min":58,"x_max":745,"o":"m 274 880 q 252 873 262 873 q 211 902 231 873 q 194 943 194 926 q 209 971 194 958 l 389 1124 q 409 1136 398 1132 q 437 1139 419 1139 q 465 1136 454 1139 q 485 1124 475 1132 l 665 971 q 680 943 680 958 q 663 902 680 926 q 622 873 642 873 q 600 880 611 873 l 437 974 l 274 880 m 702 452 q 735 443 725 452 q 745 410 745 433 l 745 97 q 738 68 745 81 q 720 50 732 56 q 587 2 662 18 q 430 -15 512 -15 q 235 36 319 -15 q 104 181 151 87 q 58 403 58 275 q 104 625 58 530 q 235 769 151 719 q 430 820 319 820 q 570 804 500 820 q 699 761 639 789 q 730 711 730 747 q 721 664 730 692 q 697 621 711 635 q 667 607 684 607 q 648 612 660 607 q 437 659 541 659 q 288 593 340 659 q 236 403 236 528 q 289 212 236 278 q 437 146 341 146 q 575 167 510 146 l 575 293 l 429 293 q 404 299 412 293 q 390 323 395 306 q 386 372 386 340 q 390 421 386 404 q 404 446 395 439 q 429 452 412 452 l 702 452 z "},"Ģ":{"ha":833,"x_min":58,"x_max":745,"o":"m 702 452 q 735 443 725 452 q 745 410 745 433 l 745 97 q 738 68 745 81 q 720 50 732 56 q 587 2 662 18 q 430 -15 512 -15 q 235 36 319 -15 q 104 181 151 87 q 58 403 58 275 q 104 625 58 530 q 235 769 151 719 q 430 820 319 820 q 570 804 500 820 q 699 761 639 789 q 730 711 730 747 q 721 664 730 692 q 697 621 711 635 q 667 607 684 607 q 648 612 660 607 q 437 659 541 659 q 288 593 340 659 q 236 403 236 528 q 289 212 236 278 q 437 146 341 146 q 575 167 510 146 l 575 293 l 429 293 q 404 299 412 293 q 390 323 395 306 q 386 372 386 340 q 390 421 386 404 q 404 446 395 439 q 429 452 412 452 l 702 452 m 500 -99 q 516 -115 516 -99 q 513 -128 516 -122 l 429 -336 q 407 -361 422 -353 q 361 -369 391 -369 q 311 -360 327 -369 q 295 -334 295 -352 q 296 -325 295 -328 l 336 -117 q 344 -104 337 -109 q 360 -99 351 -99 l 500 -99 z "},"Ġ":{"ha":833,"x_min":58,"x_max":745,"o":"m 431 911 q 365 921 384 911 q 345 954 345 930 l 345 1065 q 363 1098 345 1088 q 428 1107 380 1107 q 495 1098 476 1107 q 515 1065 515 1088 l 515 954 q 497 921 515 930 q 431 911 479 911 m 702 452 q 735 443 725 452 q 745 410 745 433 l 745 97 q 738 68 745 81 q 720 50 732 56 q 587 2 662 18 q 430 -15 512 -15 q 235 36 319 -15 q 104 181 151 87 q 58 403 58 275 q 104 625 58 530 q 235 769 151 719 q 430 820 319 820 q 570 804 500 820 q 699 761 639 789 q 730 711 730 747 q 721 664 730 692 q 697 621 711 635 q 667 607 684 607 q 648 612 660 607 q 437 659 541 659 q 288 593 340 659 q 236 403 236 528 q 289 212 236 278 q 437 146 341 146 q 575 167 510 146 l 575 293 l 429 293 q 404 299 412 293 q 390 323 395 306 q 386 372 386 340 q 390 421 386 404 q 404 446 395 439 q 429 452 412 452 l 702 452 z "},"H":{"ha":833,"x_min":95,"x_max":738,"o":"m 695 805 q 728 795 718 805 q 738 762 738 785 l 738 43 q 728 10 738 20 q 695 0 718 0 l 611 0 q 578 10 588 0 q 568 43 568 20 l 568 335 l 264 335 l 264 43 q 255 10 264 20 q 222 0 245 0 l 138 0 q 105 10 115 0 q 95 43 95 20 l 95 762 q 105 795 95 785 q 138 805 115 805 l 222 805 q 255 795 245 805 q 264 762 264 785 l 264 494 l 568 494 l 568 762 q 578 795 568 785 q 611 805 588 805 l 695 805 z "},"Ħ":{"ha":833,"x_min":14,"x_max":819,"o":"m 777 684 q 802 679 793 684 q 815 661 810 674 q 819 621 819 647 q 815 581 819 594 q 802 563 810 568 q 777 558 793 558 l 738 558 l 738 43 q 728 10 738 20 q 695 0 718 0 l 611 0 q 578 10 588 0 q 568 43 568 20 l 568 335 l 264 335 l 264 43 q 255 10 264 20 q 222 0 245 0 l 138 0 q 105 10 115 0 q 95 43 95 20 l 95 558 l 56 558 q 31 563 40 558 q 18 581 22 568 q 14 621 14 594 q 18 661 14 647 q 31 679 22 674 q 56 684 40 684 l 95 684 l 95 762 q 105 795 95 785 q 138 805 115 805 l 222 805 q 255 795 245 805 q 264 762 264 785 l 264 684 l 568 684 l 568 762 q 578 795 568 785 q 611 805 588 805 l 695 805 q 728 795 718 805 q 738 762 738 785 l 738 684 l 777 684 m 568 558 l 264 558 l 264 494 l 568 494 l 568 558 z "},"Ĥ":{"ha":833,"x_min":95,"x_max":738,"o":"m 254 880 q 231 873 242 873 q 191 902 211 873 q 174 943 174 926 q 189 971 174 958 l 368 1124 q 388 1136 378 1132 q 416 1139 399 1139 q 445 1136 434 1139 q 465 1124 455 1132 l 644 971 q 659 943 659 958 q 642 902 659 926 q 602 873 622 873 q 579 880 591 873 l 416 974 l 254 880 m 695 805 q 728 795 718 805 q 738 762 738 785 l 738 43 q 728 10 738 20 q 695 0 718 0 l 611 0 q 578 10 588 0 q 568 43 568 20 l 568 335 l 264 335 l 264 43 q 255 10 264 20 q 222 0 245 0 l 138 0 q 105 10 115 0 q 95 43 95 20 l 95 762 q 105 795 95 785 q 138 805 115 805 l 222 805 q 255 795 245 805 q 264 762 264 785 l 264 494 l 568 494 l 568 762 q 578 795 568 785 q 611 805 588 805 l 695 805 z "},"I":{"ha":833,"x_min":115,"x_max":718,"o":"m 675 153 q 708 137 699 153 q 718 76 718 121 q 708 16 718 31 q 675 0 699 0 l 158 0 q 125 16 134 0 q 115 76 115 31 q 125 137 115 121 q 158 153 134 153 l 332 153 l 332 652 l 172 652 q 138 668 148 652 q 129 728 129 684 q 138 789 129 773 q 172 805 148 805 l 661 805 q 694 789 685 805 q 704 728 704 773 q 694 668 704 684 q 661 652 685 652 l 501 652 l 501 153 l 675 153 z "},"Ĳ":{"ha":833,"x_min":88,"x_max":748,"o":"m 215 805 q 248 795 238 805 q 258 762 258 785 l 258 43 q 248 10 258 20 q 215 0 238 0 l 131 0 q 98 10 108 0 q 88 43 88 20 l 88 762 q 98 795 88 785 q 131 805 108 805 l 215 805 m 705 805 q 738 795 728 805 q 748 762 748 785 l 748 226 q 686 45 748 106 q 503 -15 625 -15 q 432 -8 469 -15 q 361 12 395 -1 q 338 28 346 18 q 331 57 331 39 q 338 104 331 74 q 359 152 347 137 q 387 166 371 166 q 402 163 391 166 q 453 151 427 155 q 498 146 479 146 q 559 167 540 146 q 578 237 578 189 l 578 762 q 588 795 578 785 q 621 805 598 805 l 705 805 z "},"Í":{"ha":833,"x_min":115,"x_max":718,"o":"m 353 880 q 338 876 347 876 q 292 910 313 876 q 277 953 277 934 q 291 982 277 972 l 526 1155 q 549 1162 537 1162 q 618 1112 580 1162 q 646 1048 646 1075 q 629 1019 646 1027 l 353 880 m 675 153 q 708 137 699 153 q 718 76 718 121 q 708 16 718 31 q 675 0 699 0 l 158 0 q 125 16 134 0 q 115 76 115 31 q 125 137 115 121 q 158 153 134 153 l 332 153 l 332 652 l 172 652 q 138 668 148 652 q 129 728 129 684 q 138 789 129 773 q 172 805 148 805 l 661 805 q 694 789 685 805 q 704 728 704 773 q 694 668 704 684 q 661 652 685 652 l 501 652 l 501 153 l 675 153 z "},"Ĭ":{"ha":833,"x_min":115,"x_max":718,"o":"m 416 889 q 255 939 316 889 q 178 1075 194 989 q 177 1084 177 1078 q 188 1108 177 1098 q 222 1124 199 1118 q 251 1128 238 1128 q 280 1110 273 1128 q 329 1047 296 1067 q 416 1027 361 1027 q 504 1047 471 1027 q 553 1110 537 1067 q 582 1128 560 1128 q 611 1124 595 1128 q 645 1108 634 1118 q 656 1084 656 1098 q 655 1075 656 1078 q 578 939 639 989 q 416 889 517 889 m 675 153 q 708 137 699 153 q 718 76 718 121 q 708 16 718 31 q 675 0 699 0 l 158 0 q 125 16 134 0 q 115 76 115 31 q 125 137 115 121 q 158 153 134 153 l 332 153 l 332 652 l 172 652 q 138 668 148 652 q 129 728 129 684 q 138 789 129 773 q 172 805 148 805 l 661 805 q 694 789 685 805 q 704 728 704 773 q 694 668 704 684 q 661 652 685 652 l 501 652 l 501 153 l 675 153 z "},"Î":{"ha":833,"x_min":115,"x_max":718,"o":"m 254 880 q 231 873 242 873 q 191 902 211 873 q 174 943 174 926 q 189 971 174 958 l 368 1124 q 388 1136 378 1132 q 416 1139 399 1139 q 445 1136 434 1139 q 465 1124 455 1132 l 644 971 q 659 943 659 958 q 642 902 659 926 q 602 873 622 873 q 579 880 591 873 l 416 974 l 254 880 m 675 153 q 708 137 699 153 q 718 76 718 121 q 708 16 718 31 q 675 0 699 0 l 158 0 q 125 16 134 0 q 115 76 115 31 q 125 137 115 121 q 158 153 134 153 l 332 153 l 332 652 l 172 652 q 138 668 148 652 q 129 728 129 684 q 138 789 129 773 q 172 805 148 805 l 661 805 q 694 789 685 805 q 704 728 704 773 q 694 668 704 684 q 661 652 685 652 l 501 652 l 501 153 l 675 153 z "},"Ï":{"ha":833,"x_min":115,"x_max":718,"o":"m 269 911 q 202 921 221 911 q 182 954 182 930 l 182 1065 q 200 1098 182 1088 q 265 1107 218 1107 q 333 1098 313 1107 q 352 1065 352 1088 l 352 954 q 334 921 352 930 q 269 911 316 911 m 567 911 q 500 921 519 911 q 481 954 481 930 l 481 1065 q 498 1098 481 1088 q 564 1107 516 1107 q 631 1098 612 1107 q 650 1065 650 1088 l 650 954 q 632 921 650 930 q 567 911 614 911 m 675 153 q 708 137 699 153 q 718 76 718 121 q 708 16 718 31 q 675 0 699 0 l 158 0 q 125 16 134 0 q 115 76 115 31 q 125 137 115 121 q 158 153 134 153 l 332 153 l 332 652 l 172 652 q 138 668 148 652 q 129 728 129 684 q 138 789 129 773 q 172 805 148 805 l 661 805 q 694 789 685 805 q 704 728 704 773 q 694 668 704 684 q 661 652 685 652 l 501 652 l 501 153 l 675 153 z "},"İ":{"ha":833,"x_min":115,"x_max":718,"o":"m 418 911 q 351 921 370 911 q 332 954 332 930 l 332 1065 q 349 1098 332 1088 q 414 1107 367 1107 q 482 1098 463 1107 q 501 1065 501 1088 l 501 954 q 483 921 501 930 q 418 911 465 911 m 675 153 q 708 137 699 153 q 718 76 718 121 q 708 16 718 31 q 675 0 699 0 l 158 0 q 125 16 134 0 q 115 76 115 31 q 125 137 115 121 q 158 153 134 153 l 332 153 l 332 652 l 172 652 q 138 668 148 652 q 129 728 129 684 q 138 789 129 773 q 172 805 148 805 l 661 805 q 694 789 685 805 q 704 728 704 773 q 694 668 704 684 q 661 652 685 652 l 501 652 l 501 153 l 675 153 z "},"Ì":{"ha":833,"x_min":115,"x_max":718,"o":"m 203 1019 q 187 1048 187 1027 q 214 1112 187 1075 q 284 1162 253 1162 q 307 1155 296 1162 l 542 982 q 556 953 556 972 q 541 910 556 934 q 495 876 519 876 q 479 880 487 876 l 203 1019 m 675 153 q 708 137 699 153 q 718 76 718 121 q 708 16 718 31 q 675 0 699 0 l 158 0 q 125 16 134 0 q 115 76 115 31 q 125 137 115 121 q 158 153 134 153 l 332 153 l 332 652 l 172 652 q 138 668 148 652 q 129 728 129 684 q 138 789 129 773 q 172 805 148 805 l 661 805 q 694 789 685 805 q 704 728 704 773 q 694 668 704 684 q 661 652 685 652 l 501 652 l 501 153 l 675 153 z "},"Ī":{"ha":833,"x_min":115,"x_max":718,"o":"m 233 909 q 208 914 216 909 q 194 935 199 920 q 190 978 190 949 q 194 1021 190 1006 q 208 1042 199 1036 q 233 1048 216 1048 l 600 1048 q 625 1042 616 1048 q 638 1021 634 1036 q 643 978 643 1006 q 638 935 643 949 q 625 914 634 920 q 600 909 616 909 l 233 909 m 675 153 q 708 137 699 153 q 718 76 718 121 q 708 16 718 31 q 675 0 699 0 l 158 0 q 125 16 134 0 q 115 76 115 31 q 125 137 115 121 q 158 153 134 153 l 332 153 l 332 652 l 172 652 q 138 668 148 652 q 129 728 129 684 q 138 789 129 773 q 172 805 148 805 l 661 805 q 694 789 685 805 q 704 728 704 773 q 694 668 704 684 q 661 652 685 652 l 501 652 l 501 153 l 675 153 z "},"Į":{"ha":833,"x_min":115,"x_max":718,"o":"m 675 153 q 708 137 699 153 q 718 76 718 121 q 708 16 718 31 q 675 0 699 0 l 487 0 q 381 -143 381 -84 q 441 -189 381 -189 q 522 -180 472 -189 q 557 -245 557 -174 q 550 -280 557 -268 q 530 -297 543 -292 q 383 -320 460 -320 q 260 -285 303 -320 q 216 -182 216 -250 q 249 -84 216 -128 q 342 0 282 -41 l 158 0 q 125 16 134 0 q 115 76 115 31 q 125 137 115 121 q 158 153 134 153 l 332 153 l 332 652 l 172 652 q 138 668 148 652 q 129 728 129 684 q 138 789 129 773 q 172 805 148 805 l 661 805 q 694 789 685 805 q 704 728 704 773 q 694 668 704 684 q 661 652 685 652 l 501 652 l 501 153 l 675 153 z "},"Ĩ":{"ha":833,"x_min":115,"x_max":718,"o":"m 243 911 q 223 902 234 902 q 178 929 203 902 q 154 981 154 956 q 161 1004 154 994 q 239 1084 195 1055 q 329 1113 282 1113 q 378 1105 356 1113 q 431 1082 401 1097 q 470 1064 455 1069 q 502 1058 486 1058 q 589 1107 543 1058 q 610 1116 599 1116 q 654 1089 629 1116 q 679 1038 679 1062 q 672 1015 679 1024 q 594 934 637 963 q 504 905 551 905 q 454 913 477 905 q 402 937 432 922 q 362 955 378 949 q 331 960 347 960 q 243 911 290 960 m 675 153 q 708 137 699 153 q 718 76 718 121 q 708 16 718 31 q 675 0 699 0 l 158 0 q 125 16 134 0 q 115 76 115 31 q 125 137 115 121 q 158 153 134 153 l 332 153 l 332 652 l 172 652 q 138 668 148 652 q 129 728 129 684 q 138 789 129 773 q 172 805 148 805 l 661 805 q 694 789 685 805 q 704 728 704 773 q 694 668 704 684 q 661 652 685 652 l 501 652 l 501 153 l 675 153 z "},"J":{"ha":833,"x_min":103,"x_max":664,"o":"m 621 805 q 654 795 644 805 q 664 762 664 785 l 664 246 q 594 51 664 116 q 388 -15 524 -15 q 253 4 321 -15 q 129 56 185 22 q 103 100 103 73 q 118 154 103 122 q 173 206 142 206 q 195 200 184 206 q 294 160 244 174 q 389 146 345 146 q 468 174 441 146 q 494 260 494 201 l 494 646 l 280 646 q 255 652 264 646 q 242 676 246 659 q 237 725 237 693 q 242 774 237 757 q 255 798 246 791 q 280 805 264 805 l 621 805 z "},"Ĵ":{"ha":833,"x_min":103,"x_max":768,"o":"m 753 971 q 768 943 768 958 q 751 902 768 926 q 710 873 730 873 q 688 880 699 873 l 525 974 l 362 880 q 340 873 351 873 q 299 902 319 873 q 282 943 282 926 q 297 971 282 958 l 477 1124 q 497 1136 486 1132 q 525 1139 507 1139 q 553 1136 543 1139 q 573 1124 564 1132 l 753 971 m 621 805 q 654 795 644 805 q 664 762 664 785 l 664 246 q 594 51 664 116 q 388 -15 524 -15 q 253 4 321 -15 q 129 56 185 22 q 103 100 103 73 q 118 154 103 122 q 173 206 142 206 q 195 200 184 206 q 294 160 244 174 q 389 146 345 146 q 468 174 441 146 q 494 260 494 201 l 494 646 l 280 646 q 255 652 264 646 q 242 676 246 659 q 237 725 237 693 q 242 774 237 757 q 255 798 246 791 q 280 805 264 805 l 621 805 z "},"K":{"ha":833,"x_min":125,"x_max":755,"o":"m 746 84 q 755 60 755 71 q 741 34 755 47 q 696 7 727 21 q 628 -15 650 -15 q 593 5 607 -15 l 374 330 l 295 247 l 295 43 q 285 10 295 20 q 252 0 275 0 l 168 0 q 135 10 145 0 q 125 43 125 20 l 125 762 q 135 795 125 785 q 168 805 145 805 l 252 805 q 285 795 275 805 q 295 762 295 785 l 295 480 l 601 804 q 633 820 615 820 q 703 791 656 820 q 749 736 749 762 q 734 706 749 722 l 492 453 l 746 84 z "},"Ķ":{"ha":833,"x_min":125,"x_max":755,"o":"m 746 84 q 755 60 755 71 q 741 34 755 47 q 696 7 727 21 q 628 -15 650 -15 q 593 5 607 -15 l 374 330 l 295 247 l 295 43 q 285 10 295 20 q 252 0 275 0 l 168 0 q 135 10 145 0 q 125 43 125 20 l 125 762 q 135 795 125 785 q 168 805 145 805 l 252 805 q 285 795 275 805 q 295 762 295 785 l 295 480 l 601 804 q 633 820 615 820 q 703 791 656 820 q 749 736 749 762 q 734 706 749 722 l 492 453 l 746 84 m 513 -99 q 530 -115 530 -99 q 527 -128 530 -122 l 443 -336 q 420 -361 436 -353 q 374 -369 404 -369 q 325 -360 340 -369 q 309 -334 309 -352 q 309 -325 309 -328 l 349 -117 q 357 -104 351 -109 q 374 -99 364 -99 l 513 -99 z "},"L":{"ha":833,"x_min":142,"x_max":724,"o":"m 682 159 q 707 153 698 159 q 720 129 715 146 q 724 79 724 111 q 720 30 724 47 q 707 6 715 13 q 682 0 698 0 l 184 0 q 152 10 161 0 q 142 43 142 20 l 142 762 q 152 795 142 785 q 184 805 161 805 l 269 805 q 301 795 292 805 q 311 762 311 785 l 311 159 l 682 159 z "},"Ĺ":{"ha":833,"x_min":140,"x_max":724,"o":"m 216 880 q 201 876 209 876 q 155 910 176 876 q 140 953 140 934 q 154 982 140 972 l 389 1155 q 412 1162 400 1162 q 481 1112 443 1162 q 509 1048 509 1075 q 492 1019 509 1027 l 216 880 m 682 159 q 707 153 698 159 q 720 129 715 146 q 724 79 724 111 q 720 30 724 47 q 707 6 715 13 q 682 0 698 0 l 184 0 q 152 10 161 0 q 142 43 142 20 l 142 762 q 152 795 142 785 q 184 805 161 805 l 269 805 q 301 795 292 805 q 311 762 311 785 l 311 159 l 682 159 z "},"Ľ":{"ha":833,"x_min":142,"x_max":724,"o":"m 682 159 q 707 153 698 159 q 720 129 715 146 q 724 79 724 111 q 720 30 724 47 q 707 6 715 13 q 682 0 698 0 l 184 0 q 152 10 161 0 q 142 43 142 20 l 142 762 q 152 795 142 785 q 184 805 161 805 l 269 805 q 301 795 292 805 q 311 762 311 785 l 311 159 l 682 159 m 525 469 q 482 477 496 469 q 468 504 468 486 q 469 517 468 513 l 527 783 q 556 805 532 805 l 692 805 q 711 786 711 805 q 708 770 711 780 l 606 507 q 578 478 597 486 q 525 469 559 469 z "},"Ļ":{"ha":833,"x_min":142,"x_max":724,"o":"m 682 159 q 707 153 698 159 q 720 129 715 146 q 724 79 724 111 q 720 30 724 47 q 707 6 715 13 q 682 0 698 0 l 184 0 q 152 10 161 0 q 142 43 142 20 l 142 762 q 152 795 142 785 q 184 805 161 805 l 269 805 q 301 795 292 805 q 311 762 311 785 l 311 159 l 682 159 m 500 -99 q 516 -115 516 -99 q 513 -128 516 -122 l 429 -336 q 407 -361 422 -353 q 361 -369 391 -369 q 311 -360 327 -369 q 295 -334 295 -352 q 296 -325 295 -328 l 336 -117 q 344 -104 337 -109 q 360 -99 351 -99 l 500 -99 z "},"Ŀ":{"ha":833,"x_min":142,"x_max":724,"o":"m 682 159 q 707 153 698 159 q 720 129 715 146 q 724 79 724 111 q 720 30 724 47 q 707 6 715 13 q 682 0 698 0 l 184 0 q 152 10 161 0 q 142 43 142 20 l 142 762 q 152 795 142 785 q 184 805 161 805 l 269 805 q 301 795 292 805 q 311 762 311 785 l 311 159 l 682 159 m 553 382 q 487 392 506 382 q 467 425 467 401 l 467 536 q 485 569 467 559 q 550 578 503 578 q 617 569 598 578 q 637 536 637 559 l 637 425 q 619 392 637 401 q 553 382 601 382 z "},"Ł":{"ha":833,"x_min":16,"x_max":724,"o":"m 682 159 q 707 153 698 159 q 720 129 715 146 q 724 79 724 111 q 720 30 724 47 q 707 6 715 13 q 682 0 698 0 l 225 0 q 192 10 202 0 q 182 43 182 20 l 182 255 l 108 211 q 85 203 95 203 q 62 213 73 203 q 36 248 50 224 q 16 300 16 284 q 37 330 16 317 l 182 416 l 182 762 q 192 795 182 785 q 225 805 202 805 l 309 805 q 342 795 332 805 q 352 762 352 785 l 352 517 l 481 594 q 505 602 495 602 q 527 592 516 602 q 554 556 538 581 q 574 505 574 523 q 553 475 574 488 l 352 355 l 352 159 l 682 159 z "},"M":{"ha":833,"x_min":81,"x_max":752,"o":"m 695 805 q 728 795 718 805 q 738 762 737 785 l 751 43 q 742 10 752 20 q 709 0 732 0 l 636 0 q 603 10 613 0 q 593 43 593 20 l 589 466 l 486 254 q 460 223 475 232 q 417 214 446 214 q 374 222 389 214 q 347 254 359 231 l 243 464 l 239 43 q 230 10 239 20 q 197 0 220 0 l 124 0 q 91 10 101 0 q 81 43 81 20 l 95 762 q 105 795 96 785 q 138 805 115 805 l 215 805 q 238 800 229 805 q 252 784 246 795 l 416 451 l 581 784 q 594 800 586 795 q 617 805 603 805 l 695 805 z "},"N":{"ha":833,"x_min":95,"x_max":738,"o":"m 695 805 q 728 795 718 805 q 738 762 738 785 l 738 30 q 721 -4 738 7 q 663 -15 704 -15 q 618 -6 633 -15 q 589 22 603 3 l 258 507 l 255 507 l 255 43 q 245 10 255 20 q 212 0 235 0 l 138 0 q 105 10 115 0 q 95 43 95 20 l 95 762 q 105 795 95 785 q 138 805 115 805 l 229 805 q 265 789 254 805 l 575 336 l 578 336 l 578 762 q 588 795 578 785 q 621 805 597 805 l 695 805 z "},"Ń":{"ha":833,"x_min":95,"x_max":738,"o":"m 518 1155 q 541 1162 529 1162 q 610 1112 572 1162 q 637 1048 637 1075 q 621 1019 637 1027 l 345 880 q 330 876 338 876 q 283 910 305 876 q 269 953 269 934 q 283 982 269 972 l 518 1155 m 695 805 q 728 795 718 805 q 738 762 738 785 l 738 30 q 721 -4 738 7 q 663 -15 704 -15 q 618 -6 633 -15 q 589 22 603 3 l 258 507 l 255 507 l 255 43 q 245 10 255 20 q 212 0 235 0 l 138 0 q 105 10 115 0 q 95 43 95 20 l 95 762 q 105 795 95 785 q 138 805 115 805 l 229 805 q 265 789 254 805 l 575 336 l 578 336 l 578 762 q 588 795 578 785 q 621 805 597 805 l 695 805 z "},"Ň":{"ha":833,"x_min":95,"x_max":738,"o":"m 423 880 q 395 883 406 880 q 375 895 385 887 l 195 1048 q 180 1076 180 1061 q 197 1117 180 1093 q 238 1146 218 1146 q 260 1139 249 1146 l 423 1045 l 586 1139 q 608 1146 597 1146 q 649 1117 629 1146 q 666 1076 666 1093 q 651 1048 666 1061 l 471 895 q 451 883 462 887 q 423 880 441 880 m 695 805 q 728 795 718 805 q 738 762 738 785 l 738 30 q 721 -4 738 7 q 663 -15 704 -15 q 618 -6 633 -15 q 589 22 603 3 l 258 507 l 255 507 l 255 43 q 245 10 255 20 q 212 0 235 0 l 138 0 q 105 10 115 0 q 95 43 95 20 l 95 762 q 105 795 95 785 q 138 805 115 805 l 229 805 q 265 789 254 805 l 575 336 l 578 336 l 578 762 q 588 795 578 785 q 621 805 597 805 l 695 805 z "},"Ņ":{"ha":833,"x_min":95,"x_max":738,"o":"m 695 805 q 728 795 718 805 q 738 762 738 785 l 738 30 q 721 -4 738 7 q 663 -15 704 -15 q 618 -6 633 -15 q 589 22 603 3 l 258 507 l 255 507 l 255 43 q 245 10 255 20 q 212 0 235 0 l 138 0 q 105 10 115 0 q 95 43 95 20 l 95 762 q 105 795 95 785 q 138 805 115 805 l 229 805 q 265 789 254 805 l 575 336 l 578 336 l 578 762 q 588 795 578 785 q 621 805 597 805 l 695 805 m 500 -99 q 516 -115 516 -99 q 513 -128 516 -122 l 429 -336 q 407 -361 422 -353 q 361 -369 391 -369 q 311 -360 327 -369 q 295 -334 295 -352 q 296 -325 295 -328 l 336 -117 q 344 -104 337 -109 q 360 -99 351 -99 l 500 -99 z "},"Ŋ":{"ha":833,"x_min":95,"x_max":738,"o":"m 695 805 q 728 795 718 805 q 738 762 738 785 l 738 -37 q 676 -218 738 -157 q 492 -278 614 -278 q 422 -271 459 -278 q 351 -251 385 -264 q 328 -235 336 -245 q 321 -206 321 -224 q 328 -159 321 -189 q 349 -112 336 -126 q 377 -97 361 -97 q 392 -100 381 -97 q 443 -113 417 -108 q 488 -117 469 -117 q 549 -96 530 -117 q 568 -26 568 -75 l 568 53 l 258 507 l 255 507 l 255 43 q 245 10 255 20 q 212 0 235 0 l 138 0 q 105 10 115 0 q 95 43 95 20 l 95 762 q 105 795 95 785 q 138 805 115 805 l 229 805 q 265 789 254 805 l 575 336 l 578 336 l 578 762 q 588 795 578 785 q 621 805 597 805 l 695 805 z "},"Ñ":{"ha":833,"x_min":95,"x_max":738,"o":"m 329 1113 q 378 1105 356 1113 q 431 1082 401 1097 q 470 1064 455 1069 q 502 1058 486 1058 q 589 1107 543 1058 q 610 1116 599 1116 q 654 1089 629 1116 q 679 1038 679 1062 q 672 1015 679 1024 q 594 934 637 963 q 504 905 551 905 q 454 913 477 905 q 402 937 432 922 q 362 955 378 949 q 331 960 347 960 q 243 911 290 960 q 223 902 234 902 q 178 929 203 902 q 154 981 154 956 q 161 1004 154 994 q 239 1084 195 1055 q 329 1113 282 1113 m 695 805 q 728 795 718 805 q 738 762 738 785 l 738 30 q 721 -4 738 7 q 663 -15 704 -15 q 618 -6 633 -15 q 589 22 603 3 l 258 507 l 255 507 l 255 43 q 245 10 255 20 q 212 0 235 0 l 138 0 q 105 10 115 0 q 95 43 95 20 l 95 762 q 105 795 95 785 q 138 805 115 805 l 229 805 q 265 789 254 805 l 575 336 l 578 336 l 578 762 q 588 795 578 785 q 621 805 597 805 l 695 805 z "},"O":{"ha":833,"x_min":45,"x_max":788,"o":"m 416 820 q 612 769 528 820 q 742 625 696 719 q 788 403 788 530 q 742 181 788 275 q 612 36 696 87 q 416 -15 528 -15 q 221 36 305 -15 q 91 181 137 87 q 45 403 45 275 q 91 625 45 530 q 221 769 137 719 q 416 820 305 820 m 416 659 q 272 593 321 659 q 222 403 222 527 q 272 212 222 279 q 416 146 321 146 q 561 212 511 146 q 610 403 610 279 q 561 593 610 527 q 416 659 511 659 z "},"Ó":{"ha":833,"x_min":45,"x_max":788,"o":"m 511 1155 q 534 1162 522 1162 q 604 1112 565 1162 q 631 1048 631 1075 q 614 1019 631 1027 l 338 880 q 323 876 331 876 q 277 910 298 876 q 262 953 262 934 q 276 982 262 972 l 511 1155 m 416 820 q 612 769 528 820 q 742 625 696 719 q 788 403 788 530 q 742 181 788 275 q 612 36 696 87 q 416 -15 528 -15 q 221 36 305 -15 q 91 181 137 87 q 45 403 45 275 q 91 625 45 530 q 221 769 137 719 q 416 820 305 820 m 416 659 q 272 593 321 659 q 222 403 222 527 q 272 212 222 279 q 416 146 321 146 q 561 212 511 146 q 610 403 610 279 q 561 593 610 527 q 416 659 511 659 z "},"Ŏ":{"ha":833,"x_min":45,"x_max":788,"o":"m 611 1124 q 645 1108 634 1118 q 656 1084 656 1098 q 655 1075 656 1078 q 578 939 639 989 q 416 889 517 889 q 255 939 316 889 q 178 1075 194 989 q 177 1084 177 1078 q 188 1108 177 1098 q 222 1124 199 1118 q 251 1128 238 1128 q 280 1110 273 1128 q 329 1047 296 1067 q 416 1027 361 1027 q 504 1047 471 1027 q 553 1110 537 1067 q 582 1128 560 1128 q 611 1124 595 1128 m 416 820 q 612 769 528 820 q 742 625 696 719 q 788 403 788 530 q 742 181 788 275 q 612 36 696 87 q 416 -15 528 -15 q 221 36 305 -15 q 91 181 137 87 q 45 403 45 275 q 91 625 45 530 q 221 769 137 719 q 416 820 305 820 m 416 659 q 272 593 321 659 q 222 403 222 527 q 272 212 222 279 q 416 146 321 146 q 561 212 511 146 q 610 403 610 279 q 561 593 610 527 q 416 659 511 659 z "},"Ô":{"ha":833,"x_min":45,"x_max":788,"o":"m 416 1139 q 445 1136 434 1139 q 465 1124 455 1132 l 644 971 q 659 943 659 958 q 642 902 659 926 q 602 873 622 873 q 579 880 591 873 l 416 974 l 254 880 q 231 873 242 873 q 191 902 211 873 q 174 943 174 926 q 189 971 174 958 l 368 1124 q 388 1136 378 1132 q 416 1139 399 1139 m 416 820 q 612 769 528 820 q 742 625 696 719 q 788 403 788 530 q 742 181 788 275 q 612 36 696 87 q 416 -15 528 -15 q 221 36 305 -15 q 91 181 137 87 q 45 403 45 275 q 91 625 45 530 q 221 769 137 719 q 416 820 305 820 m 416 659 q 272 593 321 659 q 222 403 222 527 q 272 212 222 279 q 416 146 321 146 q 561 212 511 146 q 610 403 610 279 q 561 593 610 527 q 416 659 511 659 z "},"Ö":{"ha":833,"x_min":45,"x_max":788,"o":"m 265 1107 q 333 1098 313 1107 q 352 1065 352 1088 l 352 954 q 334 921 352 930 q 269 911 316 911 q 202 921 221 911 q 182 954 182 930 l 182 1065 q 200 1098 182 1088 q 265 1107 218 1107 m 564 1107 q 631 1098 612 1107 q 650 1065 650 1088 l 650 954 q 632 921 650 930 q 567 911 614 911 q 500 921 519 911 q 481 954 481 930 l 481 1065 q 498 1098 481 1088 q 564 1107 516 1107 m 416 820 q 612 769 528 820 q 742 625 696 719 q 788 403 788 530 q 742 181 788 275 q 612 36 696 87 q 416 -15 528 -15 q 221 36 305 -15 q 91 181 137 87 q 45 403 45 275 q 91 625 45 530 q 221 769 137 719 q 416 820 305 820 m 416 659 q 272 593 321 659 q 222 403 222 527 q 272 212 222 279 q 416 146 321 146 q 561 212 511 146 q 610 403 610 279 q 561 593 610 527 q 416 659 511 659 z "},"Ò":{"ha":833,"x_min":45,"x_max":788,"o":"m 557 982 q 571 953 571 972 q 556 910 571 934 q 510 876 534 876 q 494 880 501 876 l 218 1019 q 202 1048 202 1027 q 229 1112 202 1075 q 299 1162 268 1162 q 321 1155 311 1162 l 557 982 m 416 820 q 612 769 528 820 q 742 625 696 719 q 788 403 788 530 q 742 181 788 275 q 612 36 696 87 q 416 -15 528 -15 q 221 36 305 -15 q 91 181 137 87 q 45 403 45 275 q 91 625 45 530 q 221 769 137 719 q 416 820 305 820 m 416 659 q 272 593 321 659 q 222 403 222 527 q 272 212 222 279 q 416 146 321 146 q 561 212 511 146 q 610 403 610 279 q 561 593 610 527 q 416 659 511 659 z "},"Ő":{"ha":833,"x_min":45,"x_max":788,"o":"m 445 1123 q 493 1079 493 1101 q 484 1061 493 1069 l 304 898 q 272 887 292 887 q 227 897 253 887 q 200 912 209 904 q 191 930 191 921 q 196 944 191 937 l 346 1124 q 384 1139 359 1139 q 445 1123 408 1139 m 736 1123 q 785 1079 785 1101 q 775 1061 785 1069 l 595 898 q 564 887 583 887 q 518 897 545 887 q 491 912 500 904 q 482 930 482 921 q 488 944 482 937 l 637 1124 q 675 1139 650 1139 q 736 1123 700 1139 m 416 820 q 612 769 528 820 q 742 625 696 719 q 788 403 788 530 q 742 181 788 275 q 612 36 696 87 q 416 -15 528 -15 q 221 36 305 -15 q 91 181 137 87 q 45 403 45 275 q 91 625 45 530 q 221 769 137 719 q 416 820 305 820 m 416 659 q 272 593 321 659 q 222 403 222 527 q 272 212 222 279 q 416 146 321 146 q 561 212 511 146 q 610 403 610 279 q 561 593 610 527 q 416 659 511 659 z "},"Ō":{"ha":833,"x_min":45,"x_max":788,"o":"m 600 1048 q 625 1042 616 1048 q 638 1021 634 1036 q 643 978 643 1006 q 638 935 643 949 q 625 914 634 920 q 600 909 616 909 l 233 909 q 208 914 216 909 q 194 935 199 920 q 190 978 190 949 q 194 1021 190 1006 q 208 1042 199 1036 q 233 1048 216 1048 l 600 1048 m 416 820 q 612 769 528 820 q 742 625 696 719 q 788 403 788 530 q 742 181 788 275 q 612 36 696 87 q 416 -15 528 -15 q 221 36 305 -15 q 91 181 137 87 q 45 403 45 275 q 91 625 45 530 q 221 769 137 719 q 416 820 305 820 m 416 659 q 272 593 321 659 q 222 403 222 527 q 272 212 222 279 q 416 146 321 146 q 561 212 511 146 q 610 403 610 279 q 561 593 610 527 q 416 659 511 659 z "},"Ø":{"ha":833,"x_min":45,"x_max":788,"o":"m 698 694 q 765 566 742 640 q 788 403 788 492 q 742 181 788 275 q 612 36 696 87 q 416 -15 528 -15 q 232 29 314 -15 l 182 -43 q 152 -62 168 -62 q 106 -41 136 -62 q 77 -17 86 -28 q 68 5 68 -6 q 78 30 68 15 l 135 111 q 68 239 91 165 q 45 403 45 313 q 91 625 45 530 q 221 769 137 719 q 416 820 305 820 q 601 775 519 820 l 652 848 q 681 867 665 867 q 728 846 696 867 q 756 822 747 833 q 765 800 765 811 q 755 775 765 789 l 698 694 m 222 403 q 243 266 222 321 l 506 640 q 416 659 467 659 q 272 593 321 659 q 222 403 222 527 m 416 146 q 561 212 511 146 q 610 403 610 279 q 589 539 610 484 l 328 165 q 416 146 366 146 z "},"Õ":{"ha":833,"x_min":45,"x_max":788,"o":"m 329 1113 q 378 1105 356 1113 q 431 1082 401 1097 q 470 1064 455 1069 q 502 1058 486 1058 q 589 1107 543 1058 q 610 1116 599 1116 q 654 1089 629 1116 q 679 1038 679 1062 q 672 1015 679 1024 q 594 934 637 963 q 504 905 551 905 q 454 913 477 905 q 402 937 432 922 q 362 955 378 949 q 331 960 347 960 q 243 911 290 960 q 223 902 234 902 q 178 929 203 902 q 154 981 154 956 q 161 1004 154 994 q 239 1084 195 1055 q 329 1113 282 1113 m 416 820 q 612 769 528 820 q 742 625 696 719 q 788 403 788 530 q 742 181 788 275 q 612 36 696 87 q 416 -15 528 -15 q 221 36 305 -15 q 91 181 137 87 q 45 403 45 275 q 91 625 45 530 q 221 769 137 719 q 416 820 305 820 m 416 659 q 272 593 321 659 q 222 403 222 527 q 272 212 222 279 q 416 146 321 146 q 561 212 511 146 q 610 403 610 279 q 561 593 610 527 q 416 659 511 659 z "},"Œ":{"ha":833,"x_min":36,"x_max":800,"o":"m 758 159 q 783 153 774 159 q 796 129 791 146 q 800 79 800 111 q 796 30 800 47 q 783 6 791 13 q 758 0 774 0 l 410 0 q 215 47 299 0 q 83 186 130 95 q 36 403 36 277 q 83 620 36 529 q 215 758 130 711 q 410 805 299 805 l 744 805 q 769 798 760 805 q 782 774 778 791 q 787 725 787 757 q 782 676 787 693 q 769 652 778 659 q 744 646 760 646 l 543 646 l 543 494 l 701 494 q 726 488 718 494 q 740 464 735 481 q 744 414 744 446 q 740 365 744 382 q 726 341 735 348 q 701 335 718 335 l 543 335 l 543 159 l 758 159 m 212 403 q 233 278 212 330 q 290 197 254 226 q 373 161 326 168 l 373 644 q 290 609 326 637 q 233 528 254 580 q 212 403 212 475 z "},"P":{"ha":833,"x_min":136,"x_max":751,"o":"m 434 805 q 608 770 537 805 q 715 671 680 735 q 751 519 751 607 q 715 366 751 431 q 608 267 680 302 q 434 232 537 232 l 305 232 l 305 43 q 295 10 305 20 q 262 0 286 0 l 178 0 q 145 10 155 0 q 136 43 136 20 l 136 762 q 145 795 136 785 q 178 805 155 805 l 434 805 m 413 391 q 535 422 494 391 q 576 519 576 454 q 535 615 576 584 q 413 646 494 646 l 305 646 l 305 391 l 413 391 z "},"Þ":{"ha":833,"x_min":142,"x_max":737,"o":"m 434 663 q 661 594 584 663 q 737 404 737 526 q 661 212 737 280 q 434 144 584 144 l 312 144 l 312 43 q 302 10 312 20 q 269 0 292 0 l 185 0 q 152 10 162 0 q 142 43 142 20 l 142 762 q 152 795 142 785 q 185 805 162 805 l 269 805 q 302 795 292 805 q 312 762 312 785 l 312 663 l 434 663 m 413 303 q 562 404 562 303 q 525 478 562 454 q 413 503 488 503 l 312 503 l 312 303 l 413 303 z "},"Q":{"ha":833,"x_min":45,"x_max":788,"o":"m 720 -1 q 728 -24 728 -13 q 715 -51 728 -37 q 675 -84 703 -64 q 612 -114 633 -114 q 596 -110 603 -114 q 583 -97 590 -106 l 518 -3 q 416 -15 471 -15 q 221 36 305 -15 q 91 181 137 87 q 45 403 45 275 q 91 625 45 530 q 221 769 137 719 q 416 820 305 820 q 612 769 528 820 q 742 625 696 719 q 788 403 788 530 q 756 214 788 298 q 665 77 724 131 l 720 -1 m 222 403 q 272 212 222 279 q 416 146 321 146 q 431 146 426 146 l 369 235 q 360 258 360 246 q 371 283 360 271 q 407 313 382 296 q 465 340 445 340 q 494 322 481 340 l 566 220 q 610 403 610 285 q 561 593 610 527 q 416 659 511 659 q 272 593 321 659 q 222 403 222 527 z "},"R":{"ha":833,"x_min":129,"x_max":730,"o":"m 720 87 q 728 62 728 75 q 714 35 728 48 q 670 9 701 22 q 603 -9 625 -9 q 567 12 580 -9 l 409 272 l 298 272 l 298 43 q 289 10 298 20 q 256 0 279 0 l 172 0 q 139 10 149 0 q 129 43 129 20 l 129 762 q 139 795 129 785 q 172 805 149 805 l 434 805 q 595 773 528 805 q 696 682 661 742 q 730 538 730 622 q 694 391 730 452 q 587 300 657 330 l 720 87 m 298 431 l 420 431 q 523 457 490 431 q 555 538 555 483 q 523 620 555 594 q 420 646 490 646 l 298 646 l 298 431 z "},"Ŕ":{"ha":833,"x_min":129,"x_max":730,"o":"m 347 880 q 331 876 340 876 q 285 910 307 876 q 270 953 270 934 q 284 982 270 972 l 519 1155 q 542 1162 530 1162 q 612 1112 573 1162 q 639 1048 639 1075 q 623 1019 639 1027 l 347 880 m 720 87 q 728 62 728 75 q 714 35 728 48 q 670 9 701 22 q 603 -9 625 -9 q 567 12 580 -9 l 409 272 l 298 272 l 298 43 q 289 10 298 20 q 256 0 279 0 l 172 0 q 139 10 149 0 q 129 43 129 20 l 129 762 q 139 795 129 785 q 172 805 149 805 l 434 805 q 595 773 528 805 q 696 682 661 742 q 730 538 730 622 q 694 391 730 452 q 587 300 657 330 l 720 87 m 298 431 l 420 431 q 523 457 490 431 q 555 538 555 483 q 523 620 555 594 q 420 646 490 646 l 298 646 l 298 431 z "},"Ř":{"ha":833,"x_min":129,"x_max":730,"o":"m 182 1048 q 167 1076 167 1061 q 184 1117 167 1093 q 224 1146 204 1146 q 247 1139 235 1146 l 410 1045 l 572 1139 q 595 1146 584 1146 q 635 1117 615 1146 q 652 1076 652 1093 q 637 1048 652 1061 l 458 895 q 438 883 448 887 q 410 880 427 880 q 381 883 392 880 q 361 895 371 887 l 182 1048 m 720 87 q 728 62 728 75 q 714 35 728 48 q 670 9 701 22 q 603 -9 625 -9 q 567 12 580 -9 l 409 272 l 298 272 l 298 43 q 289 10 298 20 q 256 0 279 0 l 172 0 q 139 10 149 0 q 129 43 129 20 l 129 762 q 139 795 129 785 q 172 805 149 805 l 434 805 q 595 773 528 805 q 696 682 661 742 q 730 538 730 622 q 694 391 730 452 q 587 300 657 330 l 720 87 m 298 431 l 420 431 q 523 457 490 431 q 555 538 555 483 q 523 620 555 594 q 420 646 490 646 l 298 646 l 298 431 z "},"Ŗ":{"ha":833,"x_min":129,"x_max":730,"o":"m 720 87 q 728 62 728 75 q 714 35 728 48 q 670 9 701 22 q 603 -9 625 -9 q 567 12 580 -9 l 409 272 l 298 272 l 298 43 q 289 10 298 20 q 256 0 279 0 l 172 0 q 139 10 149 0 q 129 43 129 20 l 129 762 q 139 795 129 785 q 172 805 149 805 l 434 805 q 595 773 528 805 q 696 682 661 742 q 730 538 730 622 q 694 391 730 452 q 587 300 657 330 l 720 87 m 298 431 l 420 431 q 523 457 490 431 q 555 538 555 483 q 523 620 555 594 q 420 646 490 646 l 298 646 l 298 431 m 507 -99 q 523 -115 523 -99 q 520 -128 523 -122 l 436 -336 q 413 -361 429 -353 q 368 -369 397 -369 q 318 -360 334 -369 q 302 -334 302 -352 q 302 -325 302 -328 l 342 -117 q 351 -104 344 -109 q 367 -99 357 -99 l 507 -99 z "},"S":{"ha":833,"x_min":101,"x_max":737,"o":"m 403 820 q 544 807 474 820 q 674 770 613 794 q 709 715 709 756 q 703 675 709 699 q 682 629 695 644 q 651 614 668 614 q 634 617 643 614 q 519 648 581 637 q 403 659 458 659 q 312 636 344 659 q 279 572 279 612 q 326 517 279 534 q 370 507 345 511 q 433 498 395 503 q 546 480 500 490 q 630 450 591 471 q 709 373 680 422 q 737 245 737 323 q 700 107 737 165 q 592 17 663 48 q 421 -15 522 -15 q 268 1 347 -15 q 132 44 189 16 q 101 94 101 59 q 110 141 101 115 q 133 184 119 170 q 163 198 147 198 q 183 193 174 198 q 294 158 231 170 q 414 146 356 146 q 521 169 484 146 q 557 235 557 193 q 544 278 557 262 q 504 306 530 295 q 456 320 483 315 q 384 332 430 325 q 282 350 321 341 q 208 375 243 358 q 129 445 157 400 q 101 562 101 489 q 138 699 101 640 q 243 788 175 757 q 403 820 311 820 z "},"Ś":{"ha":833,"x_min":101,"x_max":737,"o":"m 511 1155 q 534 1162 522 1162 q 604 1112 565 1162 q 631 1048 631 1075 q 614 1019 631 1027 l 338 880 q 323 876 331 876 q 277 910 298 876 q 262 953 262 934 q 276 982 262 972 l 511 1155 m 403 820 q 544 807 474 820 q 674 770 613 794 q 709 715 709 756 q 703 675 709 699 q 682 629 695 644 q 651 614 668 614 q 634 617 643 614 q 519 648 581 637 q 403 659 458 659 q 312 636 344 659 q 279 572 279 612 q 326 517 279 534 q 370 507 345 511 q 433 498 395 503 q 546 480 500 490 q 630 450 591 471 q 709 373 680 422 q 737 245 737 323 q 700 107 737 165 q 592 17 663 48 q 421 -15 522 -15 q 268 1 347 -15 q 132 44 189 16 q 101 94 101 59 q 110 141 101 115 q 133 184 119 170 q 163 198 147 198 q 183 193 174 198 q 294 158 231 170 q 414 146 356 146 q 521 169 484 146 q 557 235 557 193 q 544 278 557 262 q 504 306 530 295 q 456 320 483 315 q 384 332 430 325 q 282 350 321 341 q 208 375 243 358 q 129 445 157 400 q 101 562 101 489 q 138 699 101 640 q 243 788 175 757 q 403 820 311 820 z "},"Š":{"ha":833,"x_min":101,"x_max":737,"o":"m 420 880 q 392 883 402 880 q 372 895 381 887 l 192 1048 q 177 1076 177 1061 q 194 1117 177 1093 q 235 1146 214 1146 q 257 1139 245 1146 l 420 1045 l 583 1139 q 605 1146 594 1146 q 646 1117 625 1146 q 663 1076 663 1093 q 648 1048 663 1061 l 468 895 q 448 883 458 887 q 420 880 437 880 m 403 820 q 544 807 474 820 q 674 770 613 794 q 709 715 709 756 q 703 675 709 699 q 682 629 695 644 q 651 614 668 614 q 634 617 643 614 q 519 648 581 637 q 403 659 458 659 q 312 636 344 659 q 279 572 279 612 q 326 517 279 534 q 370 507 345 511 q 433 498 395 503 q 546 480 500 490 q 630 450 591 471 q 709 373 680 422 q 737 245 737 323 q 700 107 737 165 q 592 17 663 48 q 421 -15 522 -15 q 268 1 347 -15 q 132 44 189 16 q 101 94 101 59 q 110 141 101 115 q 133 184 119 170 q 163 198 147 198 q 183 193 174 198 q 294 158 231 170 q 414 146 356 146 q 521 169 484 146 q 557 235 557 193 q 544 278 557 262 q 504 306 530 295 q 456 320 483 315 q 384 332 430 325 q 282 350 321 341 q 208 375 243 358 q 129 445 157 400 q 101 562 101 489 q 138 699 101 640 q 243 788 175 757 q 403 820 311 820 z "},"Ş":{"ha":833,"x_min":101,"x_max":737,"o":"m 737 245 q 668 67 737 135 q 471 -13 598 -1 l 471 -56 q 580 -92 543 -56 q 617 -185 617 -127 q 569 -285 617 -250 q 428 -320 520 -320 q 254 -292 328 -320 q 238 -265 238 -285 q 245 -235 238 -252 q 281 -191 261 -191 q 290 -193 284 -191 q 399 -212 345 -212 q 448 -204 432 -212 q 464 -178 464 -195 q 448 -153 464 -160 q 402 -146 431 -146 l 387 -146 q 370 -147 381 -147 q 345 -119 345 -147 l 345 -11 q 231 9 287 -5 q 132 44 174 23 q 101 94 101 59 q 110 141 101 115 q 133 184 119 170 q 163 198 147 198 q 183 193 174 198 q 294 158 231 170 q 414 146 356 146 q 521 169 484 146 q 557 235 557 193 q 544 278 557 262 q 504 306 530 295 q 456 320 483 315 q 384 332 430 325 q 282 350 321 341 q 208 375 243 358 q 129 445 157 400 q 101 562 101 489 q 138 699 101 640 q 243 788 175 757 q 403 820 311 820 q 544 807 474 820 q 674 770 613 794 q 709 715 709 756 q 703 675 709 699 q 682 629 695 644 q 651 614 668 614 q 634 617 643 614 q 519 648 581 637 q 403 659 458 659 q 312 636 344 659 q 279 572 279 612 q 326 517 279 534 q 370 507 345 511 q 433 498 395 503 q 546 480 500 490 q 630 450 591 471 q 709 373 680 422 q 737 245 737 323 z "},"Ŝ":{"ha":833,"x_min":101,"x_max":737,"o":"m 424 1139 q 452 1136 441 1139 q 472 1124 463 1132 l 652 971 q 667 943 667 958 q 650 902 667 926 q 609 873 629 873 q 587 880 598 873 l 424 974 l 261 880 q 239 873 250 873 q 198 902 218 873 q 181 943 181 926 q 196 971 181 958 l 376 1124 q 396 1136 385 1132 q 424 1139 406 1139 m 403 820 q 544 807 474 820 q 674 770 613 794 q 709 715 709 756 q 703 675 709 699 q 682 629 695 644 q 651 614 668 614 q 634 617 643 614 q 519 648 581 637 q 403 659 458 659 q 312 636 344 659 q 279 572 279 612 q 326 517 279 534 q 370 507 345 511 q 433 498 395 503 q 546 480 500 490 q 630 450 591 471 q 709 373 680 422 q 737 245 737 323 q 700 107 737 165 q 592 17 663 48 q 421 -15 522 -15 q 268 1 347 -15 q 132 44 189 16 q 101 94 101 59 q 110 141 101 115 q 133 184 119 170 q 163 198 147 198 q 183 193 174 198 q 294 158 231 170 q 414 146 356 146 q 521 169 484 146 q 557 235 557 193 q 544 278 557 262 q 504 306 530 295 q 456 320 483 315 q 384 332 430 325 q 282 350 321 341 q 208 375 243 358 q 129 445 157 400 q 101 562 101 489 q 138 699 101 640 q 243 788 175 757 q 403 820 311 820 z "},"Ș":{"ha":833,"x_min":101,"x_max":737,"o":"m 403 820 q 544 807 474 820 q 674 770 613 794 q 709 715 709 756 q 703 675 709 699 q 682 629 695 644 q 651 614 668 614 q 634 617 643 614 q 519 648 581 637 q 403 659 458 659 q 312 636 344 659 q 279 572 279 612 q 326 517 279 534 q 370 507 345 511 q 433 498 395 503 q 546 480 500 490 q 630 450 591 471 q 709 373 680 422 q 737 245 737 323 q 700 107 737 165 q 592 17 663 48 q 421 -15 522 -15 q 268 1 347 -15 q 132 44 189 16 q 101 94 101 59 q 110 141 101 115 q 133 184 119 170 q 163 198 147 198 q 183 193 174 198 q 294 158 231 170 q 414 146 356 146 q 521 169 484 146 q 557 235 557 193 q 544 278 557 262 q 504 306 530 295 q 456 320 483 315 q 384 332 430 325 q 282 350 321 341 q 208 375 243 358 q 129 445 157 400 q 101 562 101 489 q 138 699 101 640 q 243 788 175 757 q 403 820 311 820 m 493 -99 q 509 -115 509 -99 q 507 -128 509 -122 l 422 -336 q 400 -361 416 -353 q 354 -369 384 -369 q 304 -360 320 -369 q 288 -334 288 -352 q 289 -325 288 -328 l 329 -117 q 337 -104 330 -109 q 353 -99 344 -99 l 493 -99 z "},"T":{"ha":833,"x_min":68,"x_max":765,"o":"m 722 805 q 747 798 739 805 q 761 774 756 791 q 765 725 765 757 q 761 676 765 693 q 747 652 756 659 q 722 646 739 646 l 501 646 l 501 43 q 491 10 501 20 q 458 0 481 0 l 374 0 q 341 10 351 0 q 332 43 332 20 l 332 646 l 111 646 q 85 652 94 646 q 72 676 77 659 q 68 725 68 693 q 72 774 68 757 q 85 798 77 791 q 111 805 94 805 l 722 805 z "},"Ŧ":{"ha":833,"x_min":68,"x_max":765,"o":"m 722 805 q 747 798 739 805 q 761 774 756 791 q 765 725 765 757 q 761 676 765 693 q 747 652 756 659 q 722 646 739 646 l 501 646 l 501 390 l 641 390 q 666 384 657 390 q 679 361 675 378 q 684 313 684 345 q 679 265 684 281 q 666 243 675 249 q 641 237 657 237 l 501 237 l 501 43 q 491 10 501 20 q 458 0 481 0 l 374 0 q 341 10 351 0 q 332 43 332 20 l 332 237 l 192 237 q 167 243 176 237 q 154 265 158 249 q 149 313 149 281 q 154 361 149 345 q 167 384 158 378 q 192 390 176 390 l 332 390 l 332 646 l 111 646 q 85 652 94 646 q 72 676 77 659 q 68 725 68 693 q 72 774 68 757 q 85 798 77 791 q 111 805 94 805 l 722 805 z "},"Ť":{"ha":833,"x_min":68,"x_max":765,"o":"m 189 1048 q 174 1076 174 1061 q 191 1117 174 1093 q 231 1146 211 1146 q 254 1139 242 1146 l 416 1045 l 579 1139 q 602 1146 591 1146 q 642 1117 622 1146 q 659 1076 659 1093 q 644 1048 659 1061 l 465 895 q 445 883 455 887 q 416 880 434 880 q 388 883 399 880 q 368 895 378 887 l 189 1048 m 722 805 q 747 798 739 805 q 761 774 756 791 q 765 725 765 757 q 761 676 765 693 q 747 652 756 659 q 722 646 739 646 l 501 646 l 501 43 q 491 10 501 20 q 458 0 481 0 l 374 0 q 341 10 351 0 q 332 43 332 20 l 332 646 l 111 646 q 85 652 94 646 q 72 676 77 659 q 68 725 68 693 q 72 774 68 757 q 85 798 77 791 q 111 805 94 805 l 722 805 z "},"Ţ":{"ha":833,"x_min":68,"x_max":765,"o":"m 722 805 q 747 798 739 805 q 761 774 756 791 q 765 725 765 757 q 761 676 765 693 q 747 652 756 659 q 722 646 739 646 l 501 646 l 501 43 q 497 17 501 26 q 482 4 492 8 l 482 -56 q 592 -92 555 -56 q 629 -185 629 -127 q 580 -285 629 -250 q 439 -320 532 -320 q 266 -292 340 -320 q 250 -265 250 -285 q 256 -235 250 -252 q 293 -191 273 -191 q 301 -193 296 -191 q 410 -212 357 -212 q 459 -204 444 -212 q 475 -178 475 -195 q 459 -153 475 -160 q 414 -146 443 -146 l 398 -146 q 382 -147 393 -147 q 357 -119 357 -147 l 357 2 q 338 15 344 5 q 332 43 332 25 l 332 646 l 111 646 q 85 652 94 646 q 72 676 77 659 q 68 725 68 693 q 72 774 68 757 q 85 798 77 791 q 111 805 94 805 l 722 805 z "},"Ț":{"ha":833,"x_min":68,"x_max":765,"o":"m 722 805 q 747 798 739 805 q 761 774 756 791 q 765 725 765 757 q 761 676 765 693 q 747 652 756 659 q 722 646 739 646 l 501 646 l 501 43 q 491 10 501 20 q 458 0 481 0 l 374 0 q 341 10 351 0 q 332 43 332 20 l 332 646 l 111 646 q 85 652 94 646 q 72 676 77 659 q 68 725 68 693 q 72 774 68 757 q 85 798 77 791 q 111 805 94 805 l 722 805 m 497 -99 q 513 -115 513 -99 q 511 -128 513 -122 l 427 -336 q 404 -361 420 -353 q 358 -369 388 -369 q 308 -360 324 -369 q 292 -334 292 -352 q 293 -325 292 -328 l 333 -117 q 341 -104 334 -109 q 357 -99 348 -99 l 497 -99 z "},"U":{"ha":833,"x_min":95,"x_max":738,"o":"m 695 805 q 728 795 718 805 q 738 762 738 785 l 738 294 q 699 127 738 197 q 587 21 660 58 q 416 -15 515 -15 q 245 21 318 -15 q 134 127 173 58 q 95 294 95 197 l 95 762 q 105 795 95 785 q 138 805 115 805 l 222 805 q 255 795 245 805 q 264 762 264 785 l 264 307 q 306 186 264 227 q 416 146 347 146 q 527 186 486 146 q 568 307 568 227 l 568 762 q 578 795 568 785 q 611 805 588 805 l 695 805 z "},"Ú":{"ha":833,"x_min":95,"x_max":738,"o":"m 540 1155 q 562 1162 551 1162 q 632 1112 593 1162 q 659 1048 659 1075 q 643 1019 659 1027 l 367 880 q 351 876 360 876 q 305 910 327 876 q 290 953 290 934 q 304 982 290 972 l 540 1155 m 695 805 q 728 795 718 805 q 738 762 738 785 l 738 294 q 699 127 738 197 q 587 21 660 58 q 416 -15 515 -15 q 245 21 318 -15 q 134 127 173 58 q 95 294 95 197 l 95 762 q 105 795 95 785 q 138 805 115 805 l 222 805 q 255 795 245 805 q 264 762 264 785 l 264 307 q 306 186 264 227 q 416 146 347 146 q 527 186 486 146 q 568 307 568 227 l 568 762 q 578 795 568 785 q 611 805 588 805 l 695 805 z "},"Ŭ":{"ha":833,"x_min":95,"x_max":738,"o":"m 611 1124 q 645 1108 634 1118 q 656 1084 656 1098 q 655 1075 656 1078 q 578 939 639 989 q 416 889 517 889 q 255 939 316 889 q 178 1075 194 989 q 177 1084 177 1078 q 188 1108 177 1098 q 222 1124 199 1118 q 251 1128 238 1128 q 280 1110 273 1128 q 329 1047 296 1067 q 416 1027 361 1027 q 504 1047 471 1027 q 553 1110 537 1067 q 582 1128 560 1128 q 611 1124 595 1128 m 695 805 q 728 795 718 805 q 738 762 738 785 l 738 294 q 699 127 738 197 q 587 21 660 58 q 416 -15 515 -15 q 245 21 318 -15 q 134 127 173 58 q 95 294 95 197 l 95 762 q 105 795 95 785 q 138 805 115 805 l 222 805 q 255 795 245 805 q 264 762 264 785 l 264 307 q 306 186 264 227 q 416 146 347 146 q 527 186 486 146 q 568 307 568 227 l 568 762 q 578 795 568 785 q 611 805 588 805 l 695 805 z "},"Û":{"ha":833,"x_min":95,"x_max":738,"o":"m 416 1139 q 445 1136 434 1139 q 465 1124 455 1132 l 644 971 q 659 943 659 958 q 642 902 659 926 q 602 873 622 873 q 579 880 591 873 l 416 974 l 254 880 q 231 873 242 873 q 191 902 211 873 q 174 943 174 926 q 189 971 174 958 l 368 1124 q 388 1136 378 1132 q 416 1139 399 1139 m 695 805 q 728 795 718 805 q 738 762 738 785 l 738 294 q 699 127 738 197 q 587 21 660 58 q 416 -15 515 -15 q 245 21 318 -15 q 134 127 173 58 q 95 294 95 197 l 95 762 q 105 795 95 785 q 138 805 115 805 l 222 805 q 255 795 245 805 q 264 762 264 785 l 264 307 q 306 186 264 227 q 416 146 347 146 q 527 186 486 146 q 568 307 568 227 l 568 762 q 578 795 568 785 q 611 805 588 805 l 695 805 z "},"Ü":{"ha":833,"x_min":95,"x_max":738,"o":"m 265 1107 q 333 1098 313 1107 q 352 1065 352 1088 l 352 954 q 334 921 352 930 q 269 911 316 911 q 202 921 221 911 q 182 954 182 930 l 182 1065 q 200 1098 182 1088 q 265 1107 218 1107 m 564 1107 q 631 1098 612 1107 q 650 1065 650 1088 l 650 954 q 632 921 650 930 q 567 911 614 911 q 500 921 519 911 q 481 954 481 930 l 481 1065 q 498 1098 481 1088 q 564 1107 516 1107 m 695 805 q 728 795 718 805 q 738 762 738 785 l 738 294 q 699 127 738 197 q 587 21 660 58 q 416 -15 515 -15 q 245 21 318 -15 q 134 127 173 58 q 95 294 95 197 l 95 762 q 105 795 95 785 q 138 805 115 805 l 222 805 q 255 795 245 805 q 264 762 264 785 l 264 307 q 306 186 264 227 q 416 146 347 146 q 527 186 486 146 q 568 307 568 227 l 568 762 q 578 795 568 785 q 611 805 588 805 l 695 805 z "},"Ù":{"ha":833,"x_min":95,"x_max":738,"o":"m 528 982 q 543 953 543 972 q 528 910 543 934 q 481 876 506 876 q 466 880 473 876 l 190 1019 q 174 1048 174 1027 q 201 1112 174 1075 q 271 1162 239 1162 q 293 1155 282 1162 l 528 982 m 695 805 q 728 795 718 805 q 738 762 738 785 l 738 294 q 699 127 738 197 q 587 21 660 58 q 416 -15 515 -15 q 245 21 318 -15 q 134 127 173 58 q 95 294 95 197 l 95 762 q 105 795 95 785 q 138 805 115 805 l 222 805 q 255 795 245 805 q 264 762 264 785 l 264 307 q 306 186 264 227 q 416 146 347 146 q 527 186 486 146 q 568 307 568 227 l 568 762 q 578 795 568 785 q 611 805 588 805 l 695 805 z "},"Ű":{"ha":833,"x_min":95,"x_max":785,"o":"m 445 1123 q 493 1079 493 1101 q 484 1061 493 1069 l 304 898 q 272 887 292 887 q 227 897 253 887 q 200 912 209 904 q 191 930 191 921 q 196 944 191 937 l 346 1124 q 384 1139 359 1139 q 445 1123 408 1139 m 736 1123 q 785 1079 785 1101 q 775 1061 785 1069 l 595 898 q 564 887 583 887 q 518 897 545 887 q 491 912 500 904 q 482 930 482 921 q 488 944 482 937 l 637 1124 q 675 1139 650 1139 q 736 1123 700 1139 m 695 805 q 728 795 718 805 q 738 762 738 785 l 738 294 q 699 127 738 197 q 587 21 660 58 q 416 -15 515 -15 q 245 21 318 -15 q 134 127 173 58 q 95 294 95 197 l 95 762 q 105 795 95 785 q 138 805 115 805 l 222 805 q 255 795 245 805 q 264 762 264 785 l 264 307 q 306 186 264 227 q 416 146 347 146 q 527 186 486 146 q 568 307 568 227 l 568 762 q 578 795 568 785 q 611 805 588 805 l 695 805 z "},"Ū":{"ha":833,"x_min":95,"x_max":738,"o":"m 600 1048 q 625 1042 616 1048 q 638 1021 634 1036 q 643 978 643 1006 q 638 935 643 949 q 625 914 634 920 q 600 909 616 909 l 233 909 q 208 914 216 909 q 194 935 199 920 q 190 978 190 949 q 194 1021 190 1006 q 208 1042 199 1036 q 233 1048 216 1048 l 600 1048 m 695 805 q 728 795 718 805 q 738 762 738 785 l 738 294 q 699 127 738 197 q 587 21 660 58 q 416 -15 515 -15 q 245 21 318 -15 q 134 127 173 58 q 95 294 95 197 l 95 762 q 105 795 95 785 q 138 805 115 805 l 222 805 q 255 795 245 805 q 264 762 264 785 l 264 307 q 306 186 264 227 q 416 146 347 146 q 527 186 486 146 q 568 307 568 227 l 568 762 q 578 795 568 785 q 611 805 588 805 l 695 805 z "},"Ų":{"ha":833,"x_min":95,"x_max":738,"o":"m 695 805 q 728 795 718 805 q 738 762 738 785 l 738 294 q 696 122 738 193 q 576 16 654 51 q 449 -143 449 -79 q 509 -189 449 -189 q 590 -180 540 -189 q 625 -245 625 -174 q 618 -280 625 -268 q 597 -297 611 -292 q 451 -320 528 -320 q 328 -285 371 -320 q 284 -182 284 -250 q 312 -92 284 -133 q 390 -14 339 -52 q 233 28 299 -9 q 131 133 167 66 q 95 294 95 201 l 95 762 q 105 795 95 785 q 138 805 115 805 l 222 805 q 255 795 245 805 q 264 762 264 785 l 264 307 q 306 186 264 227 q 416 146 347 146 q 527 186 486 146 q 568 307 568 227 l 568 762 q 578 795 568 785 q 611 805 588 805 l 695 805 z "},"Ů":{"ha":833,"x_min":95,"x_max":738,"o":"m 416 1219 q 507 1196 467 1219 q 571 1132 548 1173 q 594 1041 594 1091 q 571 950 594 991 q 507 886 548 909 q 416 863 467 863 q 326 886 366 863 q 262 950 285 909 q 239 1041 239 991 q 262 1132 239 1091 q 326 1196 285 1173 q 416 1219 366 1219 m 416 1103 q 371 1086 388 1103 q 354 1041 354 1069 q 371 996 354 1013 q 416 979 388 979 q 462 996 445 979 q 479 1041 479 1013 q 462 1086 479 1069 q 416 1103 445 1103 m 695 805 q 728 795 718 805 q 738 762 738 785 l 738 294 q 699 127 738 197 q 587 21 660 58 q 416 -15 515 -15 q 245 21 318 -15 q 134 127 173 58 q 95 294 95 197 l 95 762 q 105 795 95 785 q 138 805 115 805 l 222 805 q 255 795 245 805 q 264 762 264 785 l 264 307 q 306 186 264 227 q 416 146 347 146 q 527 186 486 146 q 568 307 568 227 l 568 762 q 578 795 568 785 q 611 805 588 805 l 695 805 z "},"Ũ":{"ha":833,"x_min":95,"x_max":738,"o":"m 329 1113 q 378 1105 356 1113 q 431 1082 401 1097 q 470 1064 455 1069 q 502 1058 486 1058 q 589 1107 543 1058 q 610 1116 599 1116 q 654 1089 629 1116 q 679 1038 679 1062 q 672 1015 679 1024 q 594 934 637 963 q 504 905 551 905 q 454 913 477 905 q 402 937 432 922 q 362 955 378 949 q 331 960 347 960 q 243 911 290 960 q 223 902 234 902 q 178 929 203 902 q 154 981 154 956 q 161 1004 154 994 q 239 1084 195 1055 q 329 1113 282 1113 m 695 805 q 728 795 718 805 q 738 762 738 785 l 738 294 q 699 127 738 197 q 587 21 660 58 q 416 -15 515 -15 q 245 21 318 -15 q 134 127 173 58 q 95 294 95 197 l 95 762 q 105 795 95 785 q 138 805 115 805 l 222 805 q 255 795 245 805 q 264 762 264 785 l 264 307 q 306 186 264 227 q 416 146 347 146 q 527 186 486 146 q 568 307 568 227 l 568 762 q 578 795 568 785 q 611 805 588 805 l 695 805 z "},"V":{"ha":833,"x_min":53,"x_max":783,"o":"m 713 806 q 766 786 749 798 q 783 758 783 774 q 779 739 783 749 l 503 29 q 473 -5 493 5 q 412 -15 454 -15 q 352 -5 371 -15 q 323 29 332 5 l 56 739 q 53 757 53 749 q 70 785 53 773 q 123 806 86 798 q 179 814 158 814 q 210 808 199 814 q 227 787 221 801 l 415 267 l 610 787 q 627 808 616 801 q 657 814 638 814 q 713 806 678 814 z "},"W":{"ha":833,"x_min":35,"x_max":795,"o":"m 719 812 q 779 801 762 812 q 793 766 795 789 l 713 37 q 704 11 711 20 q 680 -3 697 1 q 630 -7 663 -7 q 564 3 584 -7 q 534 37 544 14 l 415 323 l 296 37 q 266 3 286 14 q 200 -7 246 -7 q 150 -3 168 -7 q 126 11 133 1 q 117 37 119 20 l 37 766 q 52 800 35 789 q 113 812 69 812 q 181 803 159 812 q 204 772 202 793 l 250 316 l 352 564 q 372 586 359 578 q 418 593 386 593 q 463 586 450 593 q 484 564 477 578 l 586 316 l 632 772 q 654 803 634 793 q 719 812 673 812 z "},"Ẃ":{"ha":833,"x_min":35,"x_max":795,"o":"m 533 1155 q 555 1162 544 1162 q 625 1112 587 1162 q 652 1048 652 1075 q 636 1019 652 1027 l 360 880 q 345 876 353 876 q 298 910 320 876 q 283 953 283 934 q 298 982 283 972 l 533 1155 m 719 812 q 779 801 762 812 q 793 766 795 789 l 713 37 q 704 11 711 20 q 680 -3 697 1 q 630 -7 663 -7 q 564 3 584 -7 q 534 37 544 14 l 415 323 l 296 37 q 266 3 286 14 q 200 -7 246 -7 q 150 -3 168 -7 q 126 11 133 1 q 117 37 119 20 l 37 766 q 52 800 35 789 q 113 812 69 812 q 181 803 159 812 q 204 772 202 793 l 250 316 l 352 564 q 372 586 359 578 q 418 593 386 593 q 463 586 450 593 q 484 564 477 578 l 586 316 l 632 772 q 654 803 634 793 q 719 812 673 812 z "},"Ŵ":{"ha":833,"x_min":35,"x_max":795,"o":"m 420 1139 q 448 1136 437 1139 q 468 1124 458 1132 l 648 971 q 663 943 663 958 q 646 902 663 926 q 605 873 625 873 q 583 880 594 873 l 420 974 l 257 880 q 235 873 245 873 q 194 902 214 873 q 177 943 177 926 q 192 971 177 958 l 372 1124 q 392 1136 381 1132 q 420 1139 402 1139 m 719 812 q 779 801 762 812 q 793 766 795 789 l 713 37 q 704 11 711 20 q 680 -3 697 1 q 630 -7 663 -7 q 564 3 584 -7 q 534 37 544 14 l 415 323 l 296 37 q 266 3 286 14 q 200 -7 246 -7 q 150 -3 168 -7 q 126 11 133 1 q 117 37 119 20 l 37 766 q 52 800 35 789 q 113 812 69 812 q 181 803 159 812 q 204 772 202 793 l 250 316 l 352 564 q 372 586 359 578 q 418 593 386 593 q 463 586 450 593 q 484 564 477 578 l 586 316 l 632 772 q 654 803 634 793 q 719 812 673 812 z "},"Ẅ":{"ha":833,"x_min":35,"x_max":795,"o":"m 269 1107 q 336 1098 317 1107 q 355 1065 355 1088 l 355 954 q 337 921 355 930 q 272 911 319 911 q 205 921 224 911 q 186 954 186 930 l 186 1065 q 203 1098 186 1088 q 269 1107 221 1107 m 567 1107 q 634 1098 615 1107 q 654 1065 654 1088 l 654 954 q 636 921 654 930 q 570 911 618 911 q 504 921 523 911 q 484 954 484 930 l 484 1065 q 502 1098 484 1088 q 567 1107 519 1107 m 719 812 q 779 801 762 812 q 793 766 795 789 l 713 37 q 704 11 711 20 q 680 -3 697 1 q 630 -7 663 -7 q 564 3 584 -7 q 534 37 544 14 l 415 323 l 296 37 q 266 3 286 14 q 200 -7 246 -7 q 150 -3 168 -7 q 126 11 133 1 q 117 37 119 20 l 37 766 q 52 800 35 789 q 113 812 69 812 q 181 803 159 812 q 204 772 202 793 l 250 316 l 352 564 q 372 586 359 578 q 418 593 386 593 q 463 586 450 593 q 484 564 477 578 l 586 316 l 632 772 q 654 803 634 793 q 719 812 673 812 z "},"Ẁ":{"ha":833,"x_min":35,"x_max":795,"o":"m 535 982 q 549 953 549 972 q 534 910 549 934 q 488 876 513 876 q 473 880 479 876 l 197 1019 q 180 1048 180 1027 q 208 1112 180 1075 q 277 1162 246 1162 q 300 1155 289 1162 l 535 982 m 719 812 q 779 801 762 812 q 793 766 795 789 l 713 37 q 704 11 711 20 q 680 -3 697 1 q 630 -7 663 -7 q 564 3 584 -7 q 534 37 544 14 l 415 323 l 296 37 q 266 3 286 14 q 200 -7 246 -7 q 150 -3 168 -7 q 126 11 133 1 q 117 37 119 20 l 37 766 q 52 800 35 789 q 113 812 69 812 q 181 803 159 812 q 204 772 202 793 l 250 316 l 352 564 q 372 586 359 578 q 418 593 386 593 q 463 586 450 593 q 484 564 477 578 l 586 316 l 632 772 q 654 803 634 793 q 719 812 673 812 z "},"X":{"ha":833,"x_min":76,"x_max":757,"o":"m 749 87 q 757 64 757 76 q 696 9 757 35 q 628 -9 652 -9 q 606 -4 615 -9 q 589 12 597 1 l 414 275 l 241 12 q 203 -9 228 -9 q 136 9 180 -9 q 76 63 76 34 q 84 87 76 75 l 302 409 l 93 718 q 84 742 84 732 q 143 795 84 771 q 211 814 186 814 q 250 793 237 814 l 418 537 l 586 793 q 624 814 599 814 q 691 795 648 814 q 735 770 722 783 q 749 743 749 757 q 740 718 749 732 l 530 410 l 749 87 z "},"Y":{"ha":833,"x_min":66,"x_max":766,"o":"m 709 795 q 766 743 766 771 q 758 718 766 732 l 501 307 l 501 43 q 491 10 501 20 q 458 0 481 0 l 374 0 q 341 10 351 0 q 332 43 332 20 l 332 307 l 75 718 q 66 743 66 730 q 80 770 66 757 q 125 795 94 783 q 192 814 170 814 q 228 793 215 814 l 418 480 l 608 793 q 623 809 614 804 q 643 814 631 814 q 709 795 665 814 z "},"Ý":{"ha":833,"x_min":66,"x_max":766,"o":"m 360 880 q 345 876 353 876 q 298 910 320 876 q 283 953 283 934 q 298 982 283 972 l 533 1155 q 555 1162 544 1162 q 625 1112 587 1162 q 652 1048 652 1075 q 636 1019 652 1027 l 360 880 m 709 795 q 766 743 766 771 q 758 718 766 732 l 501 307 l 501 43 q 491 10 501 20 q 458 0 481 0 l 374 0 q 341 10 351 0 q 332 43 332 20 l 332 307 l 75 718 q 66 743 66 730 q 80 770 66 757 q 125 795 94 783 q 192 814 170 814 q 228 793 215 814 l 418 480 l 608 793 q 623 809 614 804 q 643 814 631 814 q 709 795 665 814 z "},"Ŷ":{"ha":833,"x_min":66,"x_max":766,"o":"m 254 880 q 231 873 242 873 q 191 902 211 873 q 174 943 174 926 q 189 971 174 958 l 368 1124 q 388 1136 378 1132 q 416 1139 399 1139 q 445 1136 434 1139 q 465 1124 455 1132 l 644 971 q 659 943 659 958 q 642 902 659 926 q 602 873 622 873 q 579 880 591 873 l 416 974 l 254 880 m 709 795 q 766 743 766 771 q 758 718 766 732 l 501 307 l 501 43 q 491 10 501 20 q 458 0 481 0 l 374 0 q 341 10 351 0 q 332 43 332 20 l 332 307 l 75 718 q 66 743 66 730 q 80 770 66 757 q 125 795 94 783 q 192 814 170 814 q 228 793 215 814 l 418 480 l 608 793 q 623 809 614 804 q 643 814 631 814 q 709 795 665 814 z "},"Ÿ":{"ha":833,"x_min":66,"x_max":766,"o":"m 269 911 q 202 921 221 911 q 182 954 182 930 l 182 1065 q 200 1098 182 1088 q 265 1107 218 1107 q 333 1098 313 1107 q 352 1065 352 1088 l 352 954 q 334 921 352 930 q 269 911 316 911 m 567 911 q 500 921 519 911 q 481 954 481 930 l 481 1065 q 498 1098 481 1088 q 564 1107 516 1107 q 631 1098 612 1107 q 650 1065 650 1088 l 650 954 q 632 921 650 930 q 567 911 614 911 m 709 795 q 766 743 766 771 q 758 718 766 732 l 501 307 l 501 43 q 491 10 501 20 q 458 0 481 0 l 374 0 q 341 10 351 0 q 332 43 332 20 l 332 307 l 75 718 q 66 743 66 730 q 80 770 66 757 q 125 795 94 783 q 192 814 170 814 q 228 793 215 814 l 418 480 l 608 793 q 623 809 614 804 q 643 814 631 814 q 709 795 665 814 z "},"Ỳ":{"ha":833,"x_min":66,"x_max":766,"o":"m 197 1019 q 180 1048 180 1027 q 208 1112 180 1075 q 277 1162 246 1162 q 300 1155 289 1162 l 535 982 q 549 953 549 972 q 534 910 549 934 q 488 876 513 876 q 473 880 479 876 l 197 1019 m 709 795 q 766 743 766 771 q 758 718 766 732 l 501 307 l 501 43 q 491 10 501 20 q 458 0 481 0 l 374 0 q 341 10 351 0 q 332 43 332 20 l 332 307 l 75 718 q 66 743 66 730 q 80 770 66 757 q 125 795 94 783 q 192 814 170 814 q 228 793 215 814 l 418 480 l 608 793 q 623 809 614 804 q 643 814 631 814 q 709 795 665 814 z "},"Z":{"ha":833,"x_min":94,"x_max":739,"o":"m 696 159 q 722 153 713 159 q 735 129 730 146 q 739 79 739 111 q 735 30 739 47 q 722 6 730 13 q 696 0 713 0 l 136 0 q 111 5 120 0 q 98 26 102 11 q 94 69 94 41 q 107 132 94 114 l 479 646 l 150 646 q 125 652 134 646 q 112 676 116 659 q 107 725 107 693 q 112 774 107 757 q 125 798 116 791 q 150 805 134 805 l 683 805 q 708 799 699 805 q 721 779 717 793 q 726 735 726 764 q 710 673 726 694 l 338 159 l 696 159 z "},"Ź":{"ha":833,"x_min":94,"x_max":739,"o":"m 352 880 q 336 876 345 876 q 290 910 312 876 q 275 953 275 934 q 290 982 275 972 l 525 1155 q 547 1162 536 1162 q 617 1112 578 1162 q 644 1048 644 1075 q 628 1019 644 1027 l 352 880 m 696 159 q 722 153 713 159 q 735 129 730 146 q 739 79 739 111 q 735 30 739 47 q 722 6 730 13 q 696 0 713 0 l 136 0 q 111 5 120 0 q 98 26 102 11 q 94 69 94 41 q 107 132 94 114 l 479 646 l 150 646 q 125 652 134 646 q 112 676 116 659 q 107 725 107 693 q 112 774 107 757 q 125 798 116 791 q 150 805 134 805 l 683 805 q 708 799 699 805 q 721 779 717 793 q 726 735 726 764 q 710 673 726 694 l 338 159 l 696 159 z "},"Ž":{"ha":833,"x_min":94,"x_max":739,"o":"m 194 1048 q 179 1076 179 1061 q 196 1117 179 1093 q 237 1146 216 1146 q 259 1139 248 1146 l 422 1045 l 585 1139 q 607 1146 596 1146 q 648 1117 627 1146 q 665 1076 665 1093 q 650 1048 665 1061 l 470 895 q 450 883 460 887 q 422 880 439 880 q 394 883 404 880 q 374 895 383 887 l 194 1048 m 696 159 q 722 153 713 159 q 735 129 730 146 q 739 79 739 111 q 735 30 739 47 q 722 6 730 13 q 696 0 713 0 l 136 0 q 111 5 120 0 q 98 26 102 11 q 94 69 94 41 q 107 132 94 114 l 479 646 l 150 646 q 125 652 134 646 q 112 676 116 659 q 107 725 107 693 q 112 774 107 757 q 125 798 116 791 q 150 805 134 805 l 683 805 q 708 799 699 805 q 721 779 717 793 q 726 735 726 764 q 710 673 726 694 l 338 159 l 696 159 z "},"Ż":{"ha":833,"x_min":94,"x_max":739,"o":"m 418 911 q 351 921 370 911 q 332 954 332 930 l 332 1065 q 349 1098 332 1088 q 414 1107 367 1107 q 482 1098 463 1107 q 501 1065 501 1088 l 501 954 q 483 921 501 930 q 418 911 465 911 m 696 159 q 722 153 713 159 q 735 129 730 146 q 739 79 739 111 q 735 30 739 47 q 722 6 730 13 q 696 0 713 0 l 136 0 q 111 5 120 0 q 98 26 102 11 q 94 69 94 41 q 107 132 94 114 l 479 646 l 150 646 q 125 652 134 646 q 112 676 116 659 q 107 725 107 693 q 112 774 107 757 q 125 798 116 791 q 150 805 134 805 l 683 805 q 708 799 699 805 q 721 779 717 793 q 726 735 726 764 q 710 673 726 694 l 338 159 l 696 159 z "},"a":{"ha":833,"x_min":95,"x_max":707,"o":"m 425 642 q 641 577 574 642 q 707 393 707 513 l 707 43 q 697 10 707 20 q 665 0 688 0 l 601 0 q 568 10 578 0 q 558 43 558 20 l 558 60 q 338 -15 452 -15 q 207 11 262 -15 q 124 86 153 37 q 95 200 95 134 q 161 347 95 295 q 346 399 227 399 q 538 379 436 399 l 538 399 q 509 466 538 444 q 409 488 481 488 q 320 478 369 488 q 222 452 271 468 q 203 448 211 448 q 173 461 186 448 q 149 503 159 473 q 138 552 138 532 q 170 598 138 587 q 298 631 230 620 q 425 642 366 642 m 266 193 q 290 145 266 161 q 359 128 314 128 q 452 147 406 128 q 538 198 498 165 l 538 241 q 363 260 448 260 q 291 243 315 260 q 266 193 266 226 z "},"á":{"ha":833,"x_min":95,"x_max":707,"o":"m 353 696 q 338 692 347 692 q 292 727 313 692 q 277 770 277 751 q 291 799 277 789 l 526 972 q 549 979 537 979 q 618 928 580 979 q 646 865 646 892 q 629 836 646 844 l 353 696 m 425 642 q 641 577 574 642 q 707 393 707 513 l 707 43 q 697 10 707 20 q 665 0 688 0 l 601 0 q 568 10 578 0 q 558 43 558 20 l 558 60 q 338 -15 452 -15 q 207 11 262 -15 q 124 86 153 37 q 95 200 95 134 q 161 347 95 295 q 346 399 227 399 q 538 379 436 399 l 538 399 q 509 466 538 444 q 409 488 481 488 q 320 478 369 488 q 222 452 271 468 q 203 448 211 448 q 173 461 186 448 q 149 503 159 473 q 138 552 138 532 q 170 598 138 587 q 298 631 230 620 q 425 642 366 642 m 266 193 q 290 145 266 161 q 359 128 314 128 q 452 147 406 128 q 538 198 498 165 l 538 241 q 363 260 448 260 q 291 243 315 260 q 266 193 266 226 z "},"ă":{"ha":833,"x_min":95,"x_max":707,"o":"m 432 706 q 271 756 332 706 q 193 892 210 806 q 193 901 193 895 q 203 925 193 915 q 237 941 214 935 q 267 945 254 945 q 296 927 289 945 q 344 864 311 884 q 432 844 377 844 q 520 864 487 844 q 568 927 553 884 q 597 945 576 945 q 627 941 610 945 q 661 925 650 935 q 671 901 671 915 q 671 892 671 895 q 593 756 654 806 q 432 706 532 706 m 425 642 q 641 577 574 642 q 707 393 707 513 l 707 43 q 697 10 707 20 q 665 0 688 0 l 601 0 q 568 10 578 0 q 558 43 558 20 l 558 60 q 338 -15 452 -15 q 207 11 262 -15 q 124 86 153 37 q 95 200 95 134 q 161 347 95 295 q 346 399 227 399 q 538 379 436 399 l 538 399 q 509 466 538 444 q 409 488 481 488 q 320 478 369 488 q 222 452 271 468 q 203 448 211 448 q 173 461 186 448 q 149 503 159 473 q 138 552 138 532 q 170 598 138 587 q 298 631 230 620 q 425 642 366 642 m 266 193 q 290 145 266 161 q 359 128 314 128 q 452 147 406 128 q 538 198 498 165 l 538 241 q 363 260 448 260 q 291 243 315 260 q 266 193 266 226 z "},"â":{"ha":833,"x_min":95,"x_max":707,"o":"m 267 697 q 245 690 256 690 q 204 719 224 690 q 187 760 187 743 q 202 788 187 775 l 382 941 q 402 952 391 949 q 430 956 412 956 q 458 952 448 956 q 478 941 469 949 l 658 788 q 673 760 673 775 q 656 719 673 743 q 615 690 635 690 q 593 697 604 690 l 430 791 l 267 697 m 425 642 q 641 577 574 642 q 707 393 707 513 l 707 43 q 697 10 707 20 q 665 0 688 0 l 601 0 q 568 10 578 0 q 558 43 558 20 l 558 60 q 338 -15 452 -15 q 207 11 262 -15 q 124 86 153 37 q 95 200 95 134 q 161 347 95 295 q 346 399 227 399 q 538 379 436 399 l 538 399 q 509 466 538 444 q 409 488 481 488 q 320 478 369 488 q 222 452 271 468 q 203 448 211 448 q 173 461 186 448 q 149 503 159 473 q 138 552 138 532 q 170 598 138 587 q 298 631 230 620 q 425 642 366 642 m 266 193 q 290 145 266 161 q 359 128 314 128 q 452 147 406 128 q 538 198 498 165 l 538 241 q 363 260 448 260 q 291 243 315 260 q 266 193 266 226 z "},"ä":{"ha":833,"x_min":95,"x_max":707,"o":"m 275 728 q 209 738 228 728 q 189 770 189 747 l 189 882 q 207 915 189 905 q 272 924 224 924 q 339 915 320 924 q 359 882 359 905 l 359 770 q 341 738 359 747 q 275 728 323 728 m 574 728 q 507 738 526 728 q 488 770 488 747 l 488 882 q 505 915 488 905 q 570 924 523 924 q 638 915 618 924 q 657 882 657 905 l 657 770 q 639 738 657 747 q 574 728 621 728 m 425 642 q 641 577 574 642 q 707 393 707 513 l 707 43 q 697 10 707 20 q 665 0 688 0 l 601 0 q 568 10 578 0 q 558 43 558 20 l 558 60 q 338 -15 452 -15 q 207 11 262 -15 q 124 86 153 37 q 95 200 95 134 q 161 347 95 295 q 346 399 227 399 q 538 379 436 399 l 538 399 q 509 466 538 444 q 409 488 481 488 q 320 478 369 488 q 222 452 271 468 q 203 448 211 448 q 173 461 186 448 q 149 503 159 473 q 138 552 138 532 q 170 598 138 587 q 298 631 230 620 q 425 642 366 642 m 266 193 q 290 145 266 161 q 359 128 314 128 q 452 147 406 128 q 538 198 498 165 l 538 241 q 363 260 448 260 q 291 243 315 260 q 266 193 266 226 z "},"à":{"ha":833,"x_min":95,"x_max":707,"o":"m 237 836 q 221 865 221 844 q 248 928 221 892 q 318 979 287 979 q 340 972 330 979 l 576 799 q 590 770 590 789 q 575 727 590 751 q 529 692 553 692 q 513 696 520 692 l 237 836 m 425 642 q 641 577 574 642 q 707 393 707 513 l 707 43 q 697 10 707 20 q 665 0 688 0 l 601 0 q 568 10 578 0 q 558 43 558 20 l 558 60 q 338 -15 452 -15 q 207 11 262 -15 q 124 86 153 37 q 95 200 95 134 q 161 347 95 295 q 346 399 227 399 q 538 379 436 399 l 538 399 q 509 466 538 444 q 409 488 481 488 q 320 478 369 488 q 222 452 271 468 q 203 448 211 448 q 173 461 186 448 q 149 503 159 473 q 138 552 138 532 q 170 598 138 587 q 298 631 230 620 q 425 642 366 642 m 266 193 q 290 145 266 161 q 359 128 314 128 q 452 147 406 128 q 538 198 498 165 l 538 241 q 363 260 448 260 q 291 243 315 260 q 266 193 266 226 z "},"ā":{"ha":833,"x_min":95,"x_max":707,"o":"m 246 726 q 221 731 230 726 q 208 751 212 736 q 203 795 203 766 q 208 838 203 823 q 221 859 212 853 q 246 865 230 865 l 614 865 q 639 859 630 865 q 652 838 648 853 q 656 795 656 823 q 652 751 656 766 q 639 731 648 736 q 614 726 630 726 l 246 726 m 425 642 q 641 577 574 642 q 707 393 707 513 l 707 43 q 697 10 707 20 q 665 0 688 0 l 601 0 q 568 10 578 0 q 558 43 558 20 l 558 60 q 338 -15 452 -15 q 207 11 262 -15 q 124 86 153 37 q 95 200 95 134 q 161 347 95 295 q 346 399 227 399 q 538 379 436 399 l 538 399 q 509 466 538 444 q 409 488 481 488 q 320 478 369 488 q 222 452 271 468 q 203 448 211 448 q 173 461 186 448 q 149 503 159 473 q 138 552 138 532 q 170 598 138 587 q 298 631 230 620 q 425 642 366 642 m 266 193 q 290 145 266 161 q 359 128 314 128 q 452 147 406 128 q 538 198 498 165 l 538 241 q 363 260 448 260 q 291 243 315 260 q 266 193 266 226 z "},"ą":{"ha":833,"x_min":95,"x_max":755,"o":"m 425 642 q 641 577 574 642 q 707 393 707 513 l 707 43 q 695 7 707 17 q 579 -143 579 -81 q 639 -189 579 -189 q 720 -180 670 -189 q 755 -245 755 -174 q 748 -280 755 -268 q 728 -297 741 -292 q 581 -320 659 -320 q 458 -285 501 -320 q 414 -182 414 -250 q 452 -78 414 -124 q 558 12 490 -33 l 558 60 q 338 -15 452 -15 q 207 11 262 -15 q 124 86 153 37 q 95 200 95 134 q 161 347 95 295 q 346 399 227 399 q 538 379 436 399 l 538 399 q 509 466 538 444 q 409 488 481 488 q 320 478 369 488 q 222 452 271 468 q 203 448 211 448 q 173 461 186 448 q 149 503 159 473 q 138 552 138 532 q 170 598 138 587 q 298 631 230 620 q 425 642 366 642 m 363 260 q 291 243 315 260 q 266 193 266 226 q 290 145 266 161 q 359 128 314 128 q 452 147 406 128 q 538 198 498 165 l 538 241 q 363 260 448 260 z "},"å":{"ha":833,"x_min":95,"x_max":707,"o":"m 435 701 q 344 724 385 701 q 280 787 303 747 q 257 878 257 828 q 280 969 257 928 q 344 1033 303 1010 q 435 1056 385 1056 q 526 1033 485 1056 q 589 969 566 1010 q 612 878 612 928 q 589 787 612 828 q 526 724 566 747 q 435 701 485 701 m 435 941 q 389 924 406 941 q 372 878 372 907 q 389 833 372 850 q 435 816 406 816 q 480 833 463 816 q 497 878 497 850 q 480 924 497 907 q 435 941 463 941 m 425 642 q 641 577 574 642 q 707 393 707 513 l 707 43 q 697 10 707 20 q 665 0 688 0 l 601 0 q 568 10 578 0 q 558 43 558 20 l 558 60 q 338 -15 452 -15 q 207 11 262 -15 q 124 86 153 37 q 95 200 95 134 q 161 347 95 295 q 346 399 227 399 q 538 379 436 399 l 538 399 q 509 466 538 444 q 409 488 481 488 q 320 478 369 488 q 222 452 271 468 q 203 448 211 448 q 173 461 186 448 q 149 503 159 473 q 138 552 138 532 q 170 598 138 587 q 298 631 230 620 q 425 642 366 642 m 266 193 q 290 145 266 161 q 359 128 314 128 q 452 147 406 128 q 538 198 498 165 l 538 241 q 363 260 448 260 q 291 243 315 260 q 266 193 266 226 z "},"ã":{"ha":833,"x_min":95,"x_max":707,"o":"m 257 728 q 237 719 248 719 q 192 746 217 719 q 168 798 168 773 q 174 821 168 811 q 252 901 209 872 q 342 930 296 930 q 392 922 370 930 q 444 899 414 913 q 484 881 469 886 q 515 875 499 875 q 603 924 557 875 q 623 933 612 933 q 668 906 643 933 q 692 854 692 879 q 686 831 692 841 q 608 751 651 780 q 517 722 564 722 q 468 730 490 722 q 416 753 446 739 q 376 771 391 766 q 345 777 361 777 q 257 728 303 777 m 425 642 q 641 577 574 642 q 707 393 707 513 l 707 43 q 697 10 707 20 q 665 0 688 0 l 601 0 q 568 10 578 0 q 558 43 558 20 l 558 60 q 338 -15 452 -15 q 207 11 262 -15 q 124 86 153 37 q 95 200 95 134 q 161 347 95 295 q 346 399 227 399 q 538 379 436 399 l 538 399 q 509 466 538 444 q 409 488 481 488 q 320 478 369 488 q 222 452 271 468 q 203 448 211 448 q 173 461 186 448 q 149 503 159 473 q 138 552 138 532 q 170 598 138 587 q 298 631 230 620 q 425 642 366 642 m 266 193 q 290 145 266 161 q 359 128 314 128 q 452 147 406 128 q 538 198 498 165 l 538 241 q 363 260 448 260 q 291 243 315 260 q 266 193 266 226 z "},"æ":{"ha":833,"x_min":22,"x_max":809,"o":"m 582 642 q 720 598 670 642 q 789 478 770 555 q 809 293 809 402 q 799 260 809 270 q 766 251 789 251 l 491 251 q 582 139 505 139 q 653 147 619 139 q 730 173 687 155 q 749 177 740 177 q 777 163 765 177 q 798 121 788 149 q 807 77 807 94 q 777 33 807 46 q 572 -15 665 -15 q 409 69 465 -15 q 227 -15 345 -15 q 120 9 166 -15 q 47 79 73 33 q 22 186 22 124 q 91 343 22 290 q 295 397 161 397 q 345 395 319 397 l 345 399 q 321 465 345 442 q 248 488 296 488 q 190 478 218 488 q 128 452 161 469 q 108 447 117 447 q 53 500 78 447 q 41 547 41 527 q 65 589 41 575 q 161 628 109 614 q 267 642 213 642 q 430 578 375 642 q 582 642 486 642 m 582 488 q 520 462 541 488 q 491 383 498 437 l 656 383 q 634 460 653 433 q 582 488 616 488 m 345 264 q 294 267 317 267 q 203 249 230 267 q 176 193 176 231 q 193 145 176 163 q 243 128 210 128 q 318 160 290 128 q 345 243 345 193 l 345 264 z "},"b":{"ha":833,"x_min":113,"x_max":749,"o":"m 240 890 q 273 880 263 890 q 283 847 283 870 l 283 562 q 363 621 317 600 q 461 642 408 642 q 615 598 550 642 q 715 480 680 555 q 749 313 749 406 q 715 146 749 221 q 615 28 680 72 q 461 -15 550 -15 q 348 14 399 -15 q 262 93 296 42 l 262 43 q 253 10 262 20 q 220 0 243 0 l 156 0 q 123 10 133 0 q 113 43 113 20 l 113 847 q 123 880 113 870 q 156 890 133 890 l 240 890 m 434 484 q 355 464 391 484 q 299 406 320 444 q 278 313 278 367 q 299 221 278 260 q 355 162 320 182 q 434 142 391 142 q 535 189 498 142 q 572 313 572 235 q 535 438 572 392 q 434 484 498 484 z "},"c":{"ha":833,"x_min":93,"x_max":738,"o":"m 444 642 q 568 624 503 642 q 693 576 633 606 q 724 528 724 560 q 713 480 724 508 q 660 425 692 425 q 638 431 650 425 q 444 484 536 484 q 354 464 393 484 q 294 404 315 443 q 272 313 272 366 q 294 222 272 261 q 354 163 315 184 q 444 142 393 142 q 650 203 542 142 q 672 210 662 210 q 726 156 703 210 q 738 106 738 127 q 709 60 738 76 q 444 -15 570 -15 q 261 27 340 -15 q 137 144 181 70 q 93 313 93 219 q 137 482 93 408 q 261 599 181 557 q 444 642 340 642 z "},"ć":{"ha":833,"x_min":93,"x_max":738,"o":"m 524 972 q 547 979 535 979 q 616 928 578 979 q 644 865 644 892 q 627 836 644 844 l 351 696 q 336 692 345 692 q 290 727 311 692 q 275 770 275 751 q 289 799 275 789 l 524 972 m 444 642 q 568 624 503 642 q 693 576 633 606 q 724 528 724 560 q 713 480 724 508 q 660 425 692 425 q 638 431 650 425 q 444 484 536 484 q 354 464 393 484 q 294 404 315 443 q 272 313 272 366 q 294 222 272 261 q 354 163 315 184 q 444 142 393 142 q 650 203 542 142 q 672 210 662 210 q 726 156 703 210 q 738 106 738 127 q 709 60 738 76 q 444 -15 570 -15 q 261 27 340 -15 q 137 144 181 70 q 93 313 93 219 q 137 482 93 408 q 261 599 181 557 q 444 642 340 642 z "},"č":{"ha":833,"x_min":93,"x_max":738,"o":"m 437 696 q 409 700 419 696 q 389 712 398 704 l 209 865 q 194 893 194 878 q 211 934 194 910 q 252 963 231 963 q 274 956 262 963 l 437 862 l 600 956 q 622 963 611 963 q 663 934 642 963 q 680 893 680 910 q 665 865 680 878 l 485 712 q 465 700 475 704 q 437 696 454 696 m 444 642 q 568 624 503 642 q 693 576 633 606 q 724 528 724 560 q 713 480 724 508 q 660 425 692 425 q 638 431 650 425 q 444 484 536 484 q 354 464 393 484 q 294 404 315 443 q 272 313 272 366 q 294 222 272 261 q 354 163 315 184 q 444 142 393 142 q 650 203 542 142 q 672 210 662 210 q 726 156 703 210 q 738 106 738 127 q 709 60 738 76 q 444 -15 570 -15 q 261 27 340 -15 q 137 144 181 70 q 93 313 93 219 q 137 482 93 408 q 261 599 181 557 q 444 642 340 642 z "},"ç":{"ha":833,"x_min":93,"x_max":738,"o":"m 726 156 q 738 106 738 127 q 709 60 738 76 q 471 -14 585 -7 l 471 -56 q 580 -92 543 -56 q 617 -185 617 -127 q 569 -285 617 -250 q 428 -320 520 -320 q 254 -292 328 -320 q 238 -265 238 -285 q 245 -235 238 -252 q 281 -191 261 -191 q 290 -193 284 -191 q 399 -212 345 -212 q 448 -204 432 -212 q 464 -178 464 -195 q 448 -153 464 -160 q 402 -146 431 -146 l 387 -146 q 370 -147 381 -147 q 345 -119 345 -147 l 345 -4 q 212 59 269 14 q 124 169 155 104 q 93 313 93 235 q 137 482 93 408 q 261 599 181 557 q 444 642 340 642 q 568 624 503 642 q 693 576 633 606 q 724 528 724 560 q 713 480 724 508 q 660 425 692 425 q 638 431 650 425 q 444 484 536 484 q 354 464 393 484 q 294 404 315 443 q 272 313 272 366 q 294 222 272 261 q 354 163 315 184 q 444 142 393 142 q 650 203 542 142 q 672 210 662 210 q 726 156 703 210 z "},"ĉ":{"ha":833,"x_min":93,"x_max":738,"o":"m 437 956 q 465 952 454 956 q 485 941 475 949 l 665 788 q 680 760 680 775 q 663 719 680 743 q 622 690 642 690 q 600 697 611 690 l 437 791 l 274 697 q 252 690 262 690 q 211 719 231 690 q 194 760 194 743 q 209 788 194 775 l 389 941 q 409 952 398 949 q 437 956 419 956 m 444 642 q 568 624 503 642 q 693 576 633 606 q 724 528 724 560 q 713 480 724 508 q 660 425 692 425 q 638 431 650 425 q 444 484 536 484 q 354 464 393 484 q 294 404 315 443 q 272 313 272 366 q 294 222 272 261 q 354 163 315 184 q 444 142 393 142 q 650 203 542 142 q 672 210 662 210 q 726 156 703 210 q 738 106 738 127 q 709 60 738 76 q 444 -15 570 -15 q 261 27 340 -15 q 137 144 181 70 q 93 313 93 219 q 137 482 93 408 q 261 599 181 557 q 444 642 340 642 z "},"ċ":{"ha":833,"x_min":93,"x_max":738,"o":"m 435 924 q 502 915 483 924 q 522 882 522 905 l 522 770 q 504 738 522 747 q 438 728 486 728 q 371 738 391 728 q 352 770 352 747 l 352 882 q 370 915 352 905 q 435 924 387 924 m 444 642 q 568 624 503 642 q 693 576 633 606 q 724 528 724 560 q 713 480 724 508 q 660 425 692 425 q 638 431 650 425 q 444 484 536 484 q 354 464 393 484 q 294 404 315 443 q 272 313 272 366 q 294 222 272 261 q 354 163 315 184 q 444 142 393 142 q 650 203 542 142 q 672 210 662 210 q 726 156 703 210 q 738 106 738 127 q 709 60 738 76 q 444 -15 570 -15 q 261 27 340 -15 q 137 144 181 70 q 93 313 93 219 q 137 482 93 408 q 261 599 181 557 q 444 642 340 642 z "},"d":{"ha":833,"x_min":83,"x_max":720,"o":"m 677 890 q 710 880 700 890 q 720 847 720 870 l 720 43 q 710 10 720 20 q 677 0 700 0 l 613 0 q 580 10 590 0 q 570 43 570 20 l 570 93 q 485 14 536 42 q 372 -15 434 -15 q 218 28 283 -15 q 118 146 153 72 q 83 313 83 221 q 118 480 83 406 q 218 598 153 555 q 372 642 283 642 q 470 621 425 642 q 550 562 515 600 l 550 847 q 560 880 550 870 q 593 890 570 890 l 677 890 m 399 484 q 298 438 335 484 q 261 313 261 392 q 298 189 261 235 q 399 142 335 142 q 477 162 442 142 q 534 221 513 182 q 555 313 555 260 q 534 406 555 367 q 477 464 513 444 q 399 484 442 484 z "},"ð":{"ha":833,"x_min":83,"x_max":750,"o":"m 572 748 q 705 549 661 659 q 750 313 750 439 q 709 139 750 213 q 593 25 668 64 q 416 -15 517 -15 q 241 23 317 -15 q 124 130 165 62 q 83 286 83 199 q 122 442 83 374 q 232 549 161 511 q 396 587 303 587 q 525 553 469 587 q 420 667 485 614 l 317 612 q 294 605 303 605 q 272 615 282 605 q 250 648 262 625 q 234 692 234 677 q 240 710 234 703 q 258 724 245 718 l 302 747 l 256 771 q 235 802 235 782 q 261 866 235 825 q 292 904 278 892 q 321 916 307 916 q 346 909 332 916 q 469 836 412 876 l 570 890 q 593 897 583 897 q 615 887 605 897 q 637 854 625 877 q 652 810 652 825 q 647 792 652 800 q 629 779 641 785 l 572 748 m 416 139 q 527 178 486 139 q 568 286 568 218 q 527 394 568 355 q 416 433 486 433 q 306 394 347 433 q 264 286 264 355 q 306 178 264 218 q 416 139 347 139 z "},"ď":{"ha":833,"x_min":50,"x_max":942,"o":"m 582 890 q 615 880 605 890 q 625 847 625 870 l 625 43 q 615 10 625 20 q 582 0 605 0 l 518 0 q 485 10 495 0 q 475 43 475 20 l 475 79 q 403 9 446 34 q 307 -15 360 -15 q 169 28 227 -15 q 80 146 111 71 q 50 313 50 221 q 80 480 50 406 q 169 598 111 555 q 307 642 227 642 q 389 623 351 642 q 455 568 427 604 l 455 847 q 465 880 455 870 q 498 890 475 890 l 582 890 m 923 890 q 942 871 942 890 q 939 854 942 865 l 836 592 q 809 563 828 571 q 755 554 789 554 q 712 562 726 554 q 699 589 699 570 q 700 602 699 597 l 758 867 q 787 890 763 890 l 923 890 m 334 484 q 256 438 285 484 q 227 313 227 392 q 256 189 227 235 q 334 142 285 142 q 398 162 369 142 q 443 221 427 182 q 460 313 460 260 q 443 406 460 367 q 398 464 427 444 q 334 484 369 484 z "},"đ":{"ha":833,"x_min":97,"x_max":821,"o":"m 779 783 q 804 778 795 783 q 817 757 812 772 q 821 713 821 742 q 817 670 821 685 q 804 650 812 655 q 779 644 795 644 l 706 644 l 706 43 q 696 10 706 20 q 663 0 686 0 l 600 0 q 567 10 576 0 q 557 43 557 20 l 557 75 q 476 9 525 33 q 372 -15 427 -15 q 225 24 287 -15 q 130 130 163 63 q 97 279 97 197 q 130 428 97 361 q 225 534 163 495 q 372 574 287 574 q 463 555 420 574 q 536 503 505 536 l 536 644 l 397 644 q 372 650 381 644 q 359 670 363 655 q 355 713 355 685 q 359 757 355 742 q 372 778 363 772 q 397 783 381 783 l 536 783 l 536 847 q 546 880 536 870 q 579 890 556 890 l 663 890 q 696 880 686 890 q 706 847 706 870 l 706 783 l 779 783 m 399 142 q 471 158 438 142 q 522 205 503 174 q 541 279 541 237 q 522 354 541 323 q 471 401 503 385 q 399 416 439 416 q 308 379 341 416 q 275 279 275 342 q 308 179 275 216 q 399 142 341 142 z "},"e":{"ha":833,"x_min":91,"x_max":746,"o":"m 426 642 q 601 597 529 642 q 709 474 673 553 q 746 293 746 395 q 736 260 746 270 q 703 251 726 251 l 268 251 q 320 168 281 196 q 419 139 359 139 q 661 176 538 139 q 677 179 669 179 q 703 165 692 179 q 722 119 713 152 q 729 77 729 94 q 721 49 729 59 q 696 33 713 39 q 552 -2 627 10 q 406 -15 477 -15 q 236 27 307 -15 q 128 143 165 69 q 91 313 91 218 q 131 483 91 408 q 248 600 172 557 q 426 642 323 642 m 426 488 q 325 461 364 488 q 271 383 286 435 l 573 383 q 523 460 562 432 q 426 488 484 488 z "},"é":{"ha":833,"x_min":91,"x_max":746,"o":"m 526 972 q 549 979 537 979 q 618 928 580 979 q 646 865 646 892 q 629 836 646 844 l 353 696 q 338 692 347 692 q 292 727 313 692 q 277 770 277 751 q 291 799 277 789 l 526 972 m 426 642 q 601 597 529 642 q 709 474 673 553 q 746 293 746 395 q 736 260 746 270 q 703 251 726 251 l 268 251 q 320 168 281 196 q 419 139 359 139 q 661 176 538 139 q 677 179 669 179 q 703 165 692 179 q 722 119 713 152 q 729 77 729 94 q 721 49 729 59 q 696 33 713 39 q 552 -2 627 10 q 406 -15 477 -15 q 236 27 307 -15 q 128 143 165 69 q 91 313 91 218 q 131 483 91 408 q 248 600 172 557 q 426 642 323 642 m 426 488 q 325 461 364 488 q 271 383 286 435 l 573 383 q 523 460 562 432 q 426 488 484 488 z "},"ĕ":{"ha":833,"x_min":91,"x_max":746,"o":"m 611 941 q 645 925 634 935 q 656 901 656 915 q 655 892 656 895 q 578 756 639 806 q 416 706 517 706 q 255 756 316 706 q 178 892 194 806 q 177 901 177 895 q 188 925 177 915 q 222 941 199 935 q 251 945 238 945 q 280 927 273 945 q 329 864 296 884 q 416 844 361 844 q 504 864 471 844 q 553 927 537 884 q 582 945 560 945 q 611 941 595 945 m 426 642 q 601 597 529 642 q 709 474 673 553 q 746 293 746 395 q 736 260 746 270 q 703 251 726 251 l 268 251 q 320 168 281 196 q 419 139 359 139 q 661 176 538 139 q 677 179 669 179 q 703 165 692 179 q 722 119 713 152 q 729 77 729 94 q 721 49 729 59 q 696 33 713 39 q 552 -2 627 10 q 406 -15 477 -15 q 236 27 307 -15 q 128 143 165 69 q 91 313 91 218 q 131 483 91 408 q 248 600 172 557 q 426 642 323 642 m 426 488 q 325 461 364 488 q 271 383 286 435 l 573 383 q 523 460 562 432 q 426 488 484 488 z "},"ě":{"ha":833,"x_min":91,"x_max":746,"o":"m 416 696 q 388 700 399 696 q 368 712 378 704 l 189 865 q 174 893 174 878 q 191 934 174 910 q 231 963 211 963 q 254 956 242 963 l 416 862 l 579 956 q 602 963 591 963 q 642 934 622 963 q 659 893 659 910 q 644 865 659 878 l 465 712 q 445 700 455 704 q 416 696 434 696 m 426 642 q 601 597 529 642 q 709 474 673 553 q 746 293 746 395 q 736 260 746 270 q 703 251 726 251 l 268 251 q 320 168 281 196 q 419 139 359 139 q 661 176 538 139 q 677 179 669 179 q 703 165 692 179 q 722 119 713 152 q 729 77 729 94 q 721 49 729 59 q 696 33 713 39 q 552 -2 627 10 q 406 -15 477 -15 q 236 27 307 -15 q 128 143 165 69 q 91 313 91 218 q 131 483 91 408 q 248 600 172 557 q 426 642 323 642 m 426 488 q 325 461 364 488 q 271 383 286 435 l 573 383 q 523 460 562 432 q 426 488 484 488 z "},"ê":{"ha":833,"x_min":91,"x_max":746,"o":"m 423 956 q 451 952 441 956 q 471 941 462 949 l 651 788 q 666 760 666 775 q 649 719 666 743 q 608 690 629 690 q 586 697 597 690 l 423 791 l 260 697 q 238 690 249 690 q 197 719 218 690 q 180 760 180 743 q 195 788 180 775 l 375 941 q 395 952 385 949 q 423 956 406 956 m 426 642 q 601 597 529 642 q 709 474 673 553 q 746 293 746 395 q 736 260 746 270 q 703 251 726 251 l 268 251 q 320 168 281 196 q 419 139 359 139 q 661 176 538 139 q 677 179 669 179 q 703 165 692 179 q 722 119 713 152 q 729 77 729 94 q 721 49 729 59 q 696 33 713 39 q 552 -2 627 10 q 406 -15 477 -15 q 236 27 307 -15 q 128 143 165 69 q 91 313 91 218 q 131 483 91 408 q 248 600 172 557 q 426 642 323 642 m 426 488 q 325 461 364 488 q 271 383 286 435 l 573 383 q 523 460 562 432 q 426 488 484 488 z "},"ë":{"ha":833,"x_min":91,"x_max":746,"o":"m 265 924 q 333 915 313 924 q 352 882 352 905 l 352 770 q 334 738 352 747 q 269 728 316 728 q 202 738 221 728 q 182 770 182 747 l 182 882 q 200 915 182 905 q 265 924 218 924 m 564 924 q 631 915 612 924 q 650 882 650 905 l 650 770 q 632 738 650 747 q 567 728 614 728 q 500 738 519 728 q 481 770 481 747 l 481 882 q 498 915 481 905 q 564 924 516 924 m 426 642 q 601 597 529 642 q 709 474 673 553 q 746 293 746 395 q 736 260 746 270 q 703 251 726 251 l 268 251 q 320 168 281 196 q 419 139 359 139 q 661 176 538 139 q 677 179 669 179 q 703 165 692 179 q 722 119 713 152 q 729 77 729 94 q 721 49 729 59 q 696 33 713 39 q 552 -2 627 10 q 406 -15 477 -15 q 236 27 307 -15 q 128 143 165 69 q 91 313 91 218 q 131 483 91 408 q 248 600 172 557 q 426 642 323 642 m 426 488 q 325 461 364 488 q 271 383 286 435 l 573 383 q 523 460 562 432 q 426 488 484 488 z "},"ė":{"ha":833,"x_min":91,"x_max":746,"o":"m 414 924 q 482 915 463 924 q 501 882 501 905 l 501 770 q 483 738 501 747 q 418 728 465 728 q 351 738 370 728 q 332 770 332 747 l 332 882 q 349 915 332 905 q 414 924 367 924 m 426 642 q 601 597 529 642 q 709 474 673 553 q 746 293 746 395 q 736 260 746 270 q 703 251 726 251 l 268 251 q 320 168 281 196 q 419 139 359 139 q 661 176 538 139 q 677 179 669 179 q 703 165 692 179 q 722 119 713 152 q 729 77 729 94 q 721 49 729 59 q 696 33 713 39 q 552 -2 627 10 q 406 -15 477 -15 q 236 27 307 -15 q 128 143 165 69 q 91 313 91 218 q 131 483 91 408 q 248 600 172 557 q 426 642 323 642 m 426 488 q 325 461 364 488 q 271 383 286 435 l 573 383 q 523 460 562 432 q 426 488 484 488 z "},"è":{"ha":833,"x_min":91,"x_max":746,"o":"m 569 799 q 583 770 583 789 q 568 727 583 751 q 522 692 547 692 q 507 696 514 692 l 231 836 q 214 865 214 844 q 241 928 214 892 q 311 979 280 979 q 334 972 323 979 l 569 799 m 426 642 q 601 597 529 642 q 709 474 673 553 q 746 293 746 395 q 736 260 746 270 q 703 251 726 251 l 268 251 q 320 168 281 196 q 419 139 359 139 q 661 176 538 139 q 677 179 669 179 q 703 165 692 179 q 722 119 713 152 q 729 77 729 94 q 721 49 729 59 q 696 33 713 39 q 552 -2 627 10 q 406 -15 477 -15 q 236 27 307 -15 q 128 143 165 69 q 91 313 91 218 q 131 483 91 408 q 248 600 172 557 q 426 642 323 642 m 426 488 q 325 461 364 488 q 271 383 286 435 l 573 383 q 523 460 562 432 q 426 488 484 488 z "},"ē":{"ha":833,"x_min":91,"x_max":746,"o":"m 607 865 q 632 859 623 865 q 645 838 641 853 q 650 795 650 823 q 645 751 650 766 q 632 731 641 736 q 607 726 623 726 l 239 726 q 214 731 223 726 q 201 751 205 736 q 197 795 197 766 q 201 838 197 823 q 214 859 205 853 q 239 865 223 865 l 607 865 m 426 642 q 601 597 529 642 q 709 474 673 553 q 746 293 746 395 q 736 260 746 270 q 703 251 726 251 l 268 251 q 320 168 281 196 q 419 139 359 139 q 661 176 538 139 q 677 179 669 179 q 703 165 692 179 q 722 119 713 152 q 729 77 729 94 q 721 49 729 59 q 696 33 713 39 q 552 -2 627 10 q 406 -15 477 -15 q 236 27 307 -15 q 128 143 165 69 q 91 313 91 218 q 131 483 91 408 q 248 600 172 557 q 426 642 323 642 m 426 488 q 325 461 364 488 q 271 383 286 435 l 573 383 q 523 460 562 432 q 426 488 484 488 z "},"ę":{"ha":833,"x_min":91,"x_max":746,"o":"m 426 642 q 601 597 529 642 q 709 474 673 553 q 746 293 746 395 q 736 260 746 270 q 703 251 726 251 l 268 251 q 320 168 281 196 q 419 139 359 139 q 661 176 538 139 q 677 179 669 179 q 703 165 692 179 q 722 119 713 152 q 729 77 729 94 q 721 49 729 59 q 696 33 713 39 q 671 19 686 30 q 540 -143 540 -78 q 600 -189 540 -189 q 681 -180 631 -189 q 715 -245 715 -174 q 709 -280 715 -268 q 688 -297 702 -292 q 542 -320 619 -320 q 418 -285 462 -320 q 375 -182 375 -250 q 404 -90 375 -132 q 486 -11 433 -49 q 406 -15 445 -15 q 236 27 307 -15 q 128 143 165 69 q 91 313 91 218 q 131 483 91 408 q 248 600 172 557 q 426 642 323 642 m 426 488 q 325 461 364 488 q 271 383 286 435 l 573 383 q 523 460 562 432 q 426 488 484 488 z "},"f":{"ha":833,"x_min":113,"x_max":762,"o":"m 728 854 q 753 837 745 848 q 762 806 762 825 q 755 762 762 787 q 733 717 746 731 q 705 703 721 703 q 688 706 696 703 q 537 732 602 732 q 472 707 494 732 q 450 627 450 682 l 450 586 l 661 586 q 694 570 684 586 q 703 509 703 554 q 694 449 703 465 q 661 433 684 433 l 450 433 l 450 43 q 440 10 450 20 q 407 0 430 0 l 323 0 q 290 10 300 0 q 280 43 280 20 l 280 433 l 156 433 q 123 449 132 433 q 113 509 113 465 q 123 570 113 554 q 156 586 132 586 l 280 586 l 280 635 q 342 827 280 762 q 522 893 404 893 q 728 854 625 893 z "},"g":{"ha":833,"x_min":83,"x_max":720,"o":"m 372 642 q 485 616 434 642 q 570 543 536 591 l 570 584 q 580 617 570 607 q 613 627 590 627 l 677 627 q 710 617 700 627 q 720 584 720 607 l 720 1 q 640 -205 720 -132 q 401 -278 560 -278 q 274 -267 343 -278 q 142 -236 205 -256 q 109 -189 109 -226 q 118 -142 109 -173 q 141 -96 128 -110 q 170 -81 153 -81 q 186 -84 179 -81 q 395 -124 316 -124 q 513 -90 477 -124 q 550 14 550 -56 l 550 83 q 470 31 515 49 q 372 12 425 12 q 219 52 285 12 q 119 163 154 92 q 83 323 83 234 q 119 487 83 415 q 219 601 154 559 q 372 642 285 642 m 399 484 q 298 442 336 484 q 261 323 261 400 q 298 205 261 247 q 399 163 336 163 q 478 181 442 163 q 534 235 513 199 q 555 323 555 271 q 534 412 555 376 q 478 466 513 448 q 399 484 442 484 z "},"ğ":{"ha":833,"x_min":83,"x_max":720,"o":"m 611 941 q 645 925 634 935 q 656 901 656 915 q 655 892 656 895 q 578 756 639 806 q 416 706 517 706 q 255 756 316 706 q 178 892 194 806 q 177 901 177 895 q 188 925 177 915 q 222 941 199 935 q 251 945 238 945 q 280 927 273 945 q 329 864 296 884 q 416 844 361 844 q 504 864 471 844 q 553 927 537 884 q 582 945 560 945 q 611 941 595 945 m 372 642 q 485 616 434 642 q 570 543 536 591 l 570 584 q 580 617 570 607 q 613 627 590 627 l 677 627 q 710 617 700 627 q 720 584 720 607 l 720 1 q 640 -205 720 -132 q 401 -278 560 -278 q 274 -267 343 -278 q 142 -236 205 -256 q 109 -189 109 -226 q 118 -142 109 -173 q 141 -96 128 -110 q 170 -81 153 -81 q 186 -84 179 -81 q 395 -124 316 -124 q 513 -90 477 -124 q 550 14 550 -56 l 550 83 q 470 31 515 49 q 372 12 425 12 q 219 52 285 12 q 119 163 154 92 q 83 323 83 234 q 119 487 83 415 q 219 601 154 559 q 372 642 285 642 m 399 484 q 298 442 336 484 q 261 323 261 400 q 298 205 261 247 q 399 163 336 163 q 478 181 442 163 q 534 235 513 199 q 555 323 555 271 q 534 412 555 376 q 478 466 513 448 q 399 484 442 484 z "},"ĝ":{"ha":833,"x_min":83,"x_max":720,"o":"m 423 956 q 451 952 441 956 q 471 941 462 949 l 651 788 q 666 760 666 775 q 649 719 666 743 q 608 690 629 690 q 586 697 597 690 l 423 791 l 260 697 q 238 690 249 690 q 197 719 218 690 q 180 760 180 743 q 195 788 180 775 l 375 941 q 395 952 385 949 q 423 956 406 956 m 372 642 q 485 616 434 642 q 570 543 536 591 l 570 584 q 580 617 570 607 q 613 627 590 627 l 677 627 q 710 617 700 627 q 720 584 720 607 l 720 1 q 640 -205 720 -132 q 401 -278 560 -278 q 274 -267 343 -278 q 142 -236 205 -256 q 109 -189 109 -226 q 118 -142 109 -173 q 141 -96 128 -110 q 170 -81 153 -81 q 186 -84 179 -81 q 395 -124 316 -124 q 513 -90 477 -124 q 550 14 550 -56 l 550 83 q 470 31 515 49 q 372 12 425 12 q 219 52 285 12 q 119 163 154 92 q 83 323 83 234 q 119 487 83 415 q 219 601 154 559 q 372 642 285 642 m 399 484 q 298 442 336 484 q 261 323 261 400 q 298 205 261 247 q 399 163 336 163 q 478 181 442 163 q 534 235 513 199 q 555 323 555 271 q 534 412 555 376 q 478 466 513 448 q 399 484 442 484 z "},"ģ":{"ha":833,"x_min":83,"x_max":720,"o":"m 334 722 q 317 737 317 722 q 320 751 317 745 l 404 958 q 427 983 411 975 q 473 991 443 991 q 523 983 507 991 q 538 956 538 975 q 538 947 538 951 l 498 740 q 490 726 496 731 q 473 722 483 722 l 334 722 m 372 642 q 485 616 434 642 q 570 543 536 591 l 570 584 q 580 617 570 607 q 613 627 590 627 l 677 627 q 710 617 700 627 q 720 584 720 607 l 720 1 q 640 -205 720 -132 q 401 -278 560 -278 q 274 -267 343 -278 q 142 -236 205 -256 q 109 -189 109 -226 q 118 -142 109 -173 q 141 -96 128 -110 q 170 -81 153 -81 q 186 -84 179 -81 q 395 -124 316 -124 q 513 -90 477 -124 q 550 14 550 -56 l 550 83 q 470 31 515 49 q 372 12 425 12 q 219 52 285 12 q 119 163 154 92 q 83 323 83 234 q 119 487 83 415 q 219 601 154 559 q 372 642 285 642 m 399 484 q 298 442 336 484 q 261 323 261 400 q 298 205 261 247 q 399 163 336 163 q 478 181 442 163 q 534 235 513 199 q 555 323 555 271 q 534 412 555 376 q 478 466 513 448 q 399 484 442 484 z "},"ġ":{"ha":833,"x_min":83,"x_max":720,"o":"m 414 924 q 482 915 463 924 q 501 882 501 905 l 501 770 q 483 738 501 747 q 418 728 465 728 q 351 738 370 728 q 332 770 332 747 l 332 882 q 349 915 332 905 q 414 924 367 924 m 372 642 q 485 616 434 642 q 570 543 536 591 l 570 584 q 580 617 570 607 q 613 627 590 627 l 677 627 q 710 617 700 627 q 720 584 720 607 l 720 1 q 640 -205 720 -132 q 401 -278 560 -278 q 274 -267 343 -278 q 142 -236 205 -256 q 109 -189 109 -226 q 118 -142 109 -173 q 141 -96 128 -110 q 170 -81 153 -81 q 186 -84 179 -81 q 395 -124 316 -124 q 513 -90 477 -124 q 550 14 550 -56 l 550 83 q 470 31 515 49 q 372 12 425 12 q 219 52 285 12 q 119 163 154 92 q 83 323 83 234 q 119 487 83 415 q 219 601 154 559 q 372 642 285 642 m 399 484 q 298 442 336 484 q 261 323 261 400 q 298 205 261 247 q 399 163 336 163 q 478 181 442 163 q 534 235 513 199 q 555 323 555 271 q 534 412 555 376 q 478 466 513 448 q 399 484 442 484 z "},"h":{"ha":833,"x_min":115,"x_max":727,"o":"m 242 890 q 275 880 265 890 q 285 847 285 870 l 285 528 q 388 612 331 582 q 509 642 445 642 q 625 613 575 642 q 701 533 674 585 q 727 414 727 481 l 727 43 q 717 10 727 20 q 684 0 707 0 l 600 0 q 567 10 577 0 q 557 43 557 20 l 557 374 q 465 481 557 481 q 379 448 421 481 q 311 359 338 414 q 285 243 285 304 l 285 43 q 275 10 285 20 q 242 0 265 0 l 158 0 q 125 10 135 0 q 115 43 115 20 l 115 847 q 125 880 115 870 q 158 890 135 890 l 242 890 z "},"ħ":{"ha":833,"x_min":14,"x_max":713,"o":"m 509 574 q 617 547 571 574 q 689 469 664 519 q 713 353 713 419 l 713 43 q 704 10 713 20 q 671 0 694 0 l 587 0 q 554 10 564 0 q 544 43 544 20 l 544 319 q 525 389 544 364 q 465 413 505 413 q 386 385 425 413 q 323 310 347 357 q 298 209 298 262 l 298 43 q 289 10 298 20 q 256 0 279 0 l 172 0 q 139 10 149 0 q 129 43 129 20 l 129 644 l 56 644 q 31 650 40 644 q 18 670 22 655 q 14 713 14 685 q 18 757 14 742 q 31 778 22 772 q 56 783 40 783 l 129 783 l 129 847 q 139 880 129 870 q 172 890 149 890 l 256 890 q 289 880 279 890 q 298 847 298 870 l 298 783 l 437 783 q 463 778 454 783 q 476 757 471 772 q 480 713 480 742 q 476 670 480 685 q 463 650 471 655 q 437 644 454 644 l 298 644 l 298 467 q 395 546 342 517 q 509 574 449 574 z "},"ĥ":{"ha":833,"x_min":109,"x_max":720,"o":"m 410 1207 q 438 1203 427 1207 q 458 1192 448 1200 l 637 1039 q 652 1010 652 1026 q 635 970 652 994 q 595 941 615 941 q 572 948 584 941 l 410 1042 l 247 948 q 224 941 235 941 q 184 970 204 941 q 167 1010 167 994 q 182 1039 167 1026 l 361 1192 q 381 1203 371 1200 q 410 1207 392 1207 m 235 890 q 268 880 258 890 q 278 847 278 870 l 278 528 q 381 612 324 582 q 502 642 438 642 q 618 613 568 642 q 694 533 667 585 q 720 414 720 481 l 720 43 q 710 10 720 20 q 677 0 701 0 l 593 0 q 561 10 570 0 q 551 43 551 20 l 551 374 q 458 481 551 481 q 373 448 414 481 q 304 359 331 414 q 278 243 278 304 l 278 43 q 268 10 278 20 q 235 0 258 0 l 151 0 q 118 10 128 0 q 109 43 109 20 l 109 847 q 118 880 109 870 q 151 890 128 890 l 235 890 z "},"i":{"ha":833,"x_min":113,"x_max":744,"o":"m 424 924 q 491 915 472 924 q 511 882 511 905 l 511 770 q 493 738 511 747 q 427 728 475 728 q 360 738 380 728 q 341 770 341 747 l 341 882 q 359 915 341 905 q 424 924 376 924 m 468 627 q 501 617 491 627 q 511 584 511 607 l 511 153 l 701 153 q 734 137 725 153 q 744 76 744 121 q 734 16 744 31 q 701 0 725 0 l 156 0 q 123 16 132 0 q 113 76 113 31 q 123 137 113 121 q 156 153 132 153 l 341 153 l 341 474 l 197 474 q 163 490 173 474 q 154 550 154 505 q 163 611 154 595 q 197 627 173 627 l 468 627 z "},"ı":{"ha":833,"x_min":113,"x_max":744,"o":"m 468 627 q 501 617 491 627 q 511 584 511 607 l 511 153 l 701 153 q 734 137 725 153 q 744 76 744 121 q 734 16 744 31 q 701 0 725 0 l 156 0 q 123 16 132 0 q 113 76 113 31 q 123 137 113 121 q 156 153 132 153 l 341 153 l 341 474 l 197 474 q 163 490 173 474 q 154 550 154 505 q 163 611 154 595 q 197 627 173 627 l 468 627 z "},"í":{"ha":833,"x_min":113,"x_max":744,"o":"m 513 972 q 535 979 524 979 q 605 928 566 979 q 632 865 632 892 q 616 836 632 844 l 340 696 q 324 692 332 692 q 278 727 300 692 q 263 770 263 751 q 277 799 263 789 l 513 972 m 468 627 q 501 617 491 627 q 511 584 511 607 l 511 153 l 701 153 q 734 137 725 153 q 744 76 744 121 q 734 16 744 31 q 701 0 725 0 l 156 0 q 123 16 132 0 q 113 76 113 31 q 123 137 113 121 q 156 153 132 153 l 341 153 l 341 474 l 197 474 q 163 490 173 474 q 154 550 154 505 q 163 611 154 595 q 197 627 173 627 l 468 627 z "},"ĭ":{"ha":833,"x_min":113,"x_max":744,"o":"m 604 941 q 638 925 627 935 q 649 901 649 915 q 648 892 649 895 q 571 756 632 806 q 410 706 510 706 q 248 756 309 706 q 171 892 187 806 q 170 901 170 895 q 181 925 170 915 q 215 941 192 935 q 244 945 231 945 q 273 927 267 945 q 322 864 289 884 q 410 844 355 844 q 497 864 465 844 q 546 927 530 884 q 575 945 553 945 q 604 941 588 945 m 468 627 q 501 617 491 627 q 511 584 511 607 l 511 153 l 701 153 q 734 137 725 153 q 744 76 744 121 q 734 16 744 31 q 701 0 725 0 l 156 0 q 123 16 132 0 q 113 76 113 31 q 123 137 113 121 q 156 153 132 153 l 341 153 l 341 474 l 197 474 q 163 490 173 474 q 154 550 154 505 q 163 611 154 595 q 197 627 173 627 l 468 627 z "},"î":{"ha":833,"x_min":113,"x_max":744,"o":"m 416 956 q 445 952 434 956 q 465 941 455 949 l 644 788 q 659 760 659 775 q 642 719 659 743 q 602 690 622 690 q 579 697 591 690 l 416 791 l 254 697 q 231 690 242 690 q 191 719 211 690 q 174 760 174 743 q 189 788 174 775 l 368 941 q 388 952 378 949 q 416 956 399 956 m 468 627 q 501 617 491 627 q 511 584 511 607 l 511 153 l 701 153 q 734 137 725 153 q 744 76 744 121 q 734 16 744 31 q 701 0 725 0 l 156 0 q 123 16 132 0 q 113 76 113 31 q 123 137 113 121 q 156 153 132 153 l 341 153 l 341 474 l 197 474 q 163 490 173 474 q 154 550 154 505 q 163 611 154 595 q 197 627 173 627 l 468 627 z "},"ï":{"ha":833,"x_min":113,"x_max":744,"o":"m 258 924 q 326 915 307 924 q 345 882 345 905 l 345 770 q 327 738 345 747 q 262 728 309 728 q 195 738 214 728 q 176 770 176 747 l 176 882 q 193 915 176 905 q 258 924 211 924 m 557 924 q 624 915 605 924 q 644 882 644 905 l 644 770 q 626 738 644 747 q 560 728 608 728 q 493 738 513 728 q 474 770 474 747 l 474 882 q 492 915 474 905 q 557 924 509 924 m 468 627 q 501 617 491 627 q 511 584 511 607 l 511 153 l 701 153 q 734 137 725 153 q 744 76 744 121 q 734 16 744 31 q 701 0 725 0 l 156 0 q 123 16 132 0 q 113 76 113 31 q 123 137 113 121 q 156 153 132 153 l 341 153 l 341 474 l 197 474 q 163 490 173 474 q 154 550 154 505 q 163 611 154 595 q 197 627 173 627 l 468 627 z "},"ì":{"ha":833,"x_min":113,"x_max":744,"o":"m 516 799 q 530 770 530 789 q 515 727 530 751 q 469 692 494 692 q 454 696 460 692 l 178 836 q 161 865 161 844 q 189 928 161 892 q 258 979 227 979 q 281 972 270 979 l 516 799 m 468 627 q 501 617 491 627 q 511 584 511 607 l 511 153 l 701 153 q 734 137 725 153 q 744 76 744 121 q 734 16 744 31 q 701 0 725 0 l 156 0 q 123 16 132 0 q 113 76 113 31 q 123 137 113 121 q 156 153 132 153 l 341 153 l 341 474 l 197 474 q 163 490 173 474 q 154 550 154 505 q 163 611 154 595 q 197 627 173 627 l 468 627 z "},"ĳ":{"ha":833,"x_min":132,"x_max":701,"o":"m 214 924 q 282 915 262 924 q 301 882 301 905 l 301 770 q 283 738 301 747 q 218 728 265 728 q 151 738 170 728 q 132 770 132 747 l 132 882 q 149 915 132 905 q 214 924 167 924 m 614 924 q 682 915 663 924 q 701 882 701 905 l 701 770 q 683 738 701 747 q 618 728 665 728 q 551 738 570 728 q 532 770 532 747 l 532 882 q 549 915 532 905 q 614 924 567 924 m 258 627 q 291 617 281 627 q 301 584 301 607 l 301 43 q 291 10 301 20 q 258 0 281 0 l 174 0 q 141 10 151 0 q 132 43 132 20 l 132 584 q 141 617 132 607 q 174 627 151 627 l 258 627 m 659 627 q 691 617 682 627 q 701 584 701 607 l 701 -37 q 640 -218 701 -157 q 456 -278 578 -278 q 385 -271 422 -278 q 314 -251 348 -264 q 292 -235 299 -245 q 284 -206 284 -224 q 292 -159 284 -189 q 312 -112 300 -126 q 340 -97 324 -97 q 355 -100 345 -97 q 407 -113 380 -108 q 451 -117 433 -117 q 512 -96 493 -117 q 532 -26 532 -75 l 532 584 q 542 617 532 607 q 574 627 551 627 l 659 627 z "},"ī":{"ha":833,"x_min":113,"x_max":744,"o":"m 593 865 q 618 859 610 865 q 632 838 627 853 q 636 795 636 823 q 632 751 636 766 q 618 731 627 736 q 593 726 610 726 l 226 726 q 201 731 210 726 q 188 751 192 736 q 183 795 183 766 q 188 838 183 823 q 201 859 192 853 q 226 865 210 865 l 593 865 m 468 627 q 501 617 491 627 q 511 584 511 607 l 511 153 l 701 153 q 734 137 725 153 q 744 76 744 121 q 734 16 744 31 q 701 0 725 0 l 156 0 q 123 16 132 0 q 113 76 113 31 q 123 137 113 121 q 156 153 132 153 l 341 153 l 341 474 l 197 474 q 163 490 173 474 q 154 550 154 505 q 163 611 154 595 q 197 627 173 627 l 468 627 z "},"į":{"ha":833,"x_min":113,"x_max":744,"o":"m 427 728 q 360 738 380 728 q 341 770 341 747 l 341 882 q 359 915 341 905 q 424 924 376 924 q 491 915 472 924 q 511 882 511 905 l 511 770 q 493 738 511 747 q 427 728 475 728 m 701 153 q 734 137 725 153 q 744 76 744 121 q 734 16 744 31 q 701 0 725 0 l 500 0 q 395 -143 395 -84 q 454 -189 395 -189 q 536 -180 486 -189 q 570 -245 570 -174 q 564 -280 570 -268 q 543 -297 557 -292 q 397 -320 474 -320 q 273 -285 317 -320 q 230 -182 230 -250 q 263 -84 230 -128 q 356 0 296 -41 l 156 0 q 123 16 132 0 q 113 76 113 31 q 123 137 113 121 q 156 153 132 153 l 341 153 l 341 474 l 197 474 q 163 490 173 474 q 154 550 154 505 q 163 611 154 595 q 197 627 173 627 l 468 627 q 501 617 491 627 q 511 584 511 607 l 511 153 l 701 153 z "},"ĩ":{"ha":833,"x_min":113,"x_max":744,"o":"m 313 930 q 363 922 340 930 q 415 899 385 913 q 455 881 439 886 q 486 875 470 875 q 574 924 528 875 q 594 933 583 933 q 639 906 614 933 q 663 854 663 879 q 656 831 663 841 q 578 751 622 780 q 488 722 535 722 q 439 730 461 722 q 387 753 416 739 q 347 771 362 766 q 315 777 332 777 q 228 728 274 777 q 208 719 218 719 q 163 746 188 719 q 138 798 138 773 q 145 821 138 811 q 223 901 180 872 q 313 930 267 930 m 468 627 q 501 617 491 627 q 511 584 511 607 l 511 153 l 701 153 q 734 137 725 153 q 744 76 744 121 q 734 16 744 31 q 701 0 725 0 l 156 0 q 123 16 132 0 q 113 76 113 31 q 123 137 113 121 q 156 153 132 153 l 341 153 l 341 474 l 197 474 q 163 490 173 474 q 154 550 154 505 q 163 611 154 595 q 197 627 173 627 l 468 627 z "},"j":{"ha":833,"x_min":113,"x_max":626,"o":"m 539 924 q 607 915 587 924 q 626 882 626 905 l 626 770 q 608 738 626 747 q 543 728 590 728 q 476 738 495 728 q 456 770 456 747 l 456 882 q 474 915 456 905 q 539 924 492 924 m 583 627 q 616 617 606 627 q 626 584 626 607 l 626 -20 q 564 -212 626 -146 q 384 -278 502 -278 q 264 -262 328 -278 q 142 -216 201 -245 q 120 -198 127 -208 q 113 -171 113 -187 q 124 -121 113 -153 q 178 -65 146 -65 q 199 -70 187 -65 q 369 -117 307 -117 q 434 -92 412 -117 q 456 -12 456 -66 l 456 474 l 197 474 q 163 490 173 474 q 154 550 154 505 q 163 611 154 595 q 197 627 173 627 l 583 627 z "},"ȷ":{"ha":833,"x_min":113,"x_max":626,"o":"m 583 627 q 616 617 606 627 q 626 584 626 607 l 626 -20 q 564 -212 626 -146 q 384 -278 502 -278 q 264 -262 328 -278 q 142 -216 201 -245 q 120 -198 127 -208 q 113 -171 113 -187 q 124 -121 113 -153 q 178 -65 146 -65 q 199 -70 187 -65 q 369 -117 307 -117 q 434 -92 412 -117 q 456 -12 456 -66 l 456 474 l 197 474 q 163 490 173 474 q 154 550 154 505 q 163 611 154 595 q 197 627 173 627 l 583 627 z "},"ĵ":{"ha":833,"x_min":113,"x_max":734,"o":"m 719 788 q 734 760 734 775 q 717 719 734 743 q 676 690 696 690 q 654 697 665 690 l 491 791 l 328 697 q 306 690 317 690 q 265 719 286 690 q 248 760 248 743 q 263 788 248 775 l 443 941 q 463 952 452 949 q 491 956 473 956 q 519 952 509 956 q 539 941 530 949 l 719 788 m 583 627 q 616 617 606 627 q 626 584 626 607 l 626 -20 q 564 -212 626 -146 q 384 -278 502 -278 q 264 -262 328 -278 q 142 -216 201 -245 q 120 -198 127 -208 q 113 -171 113 -187 q 124 -121 113 -153 q 178 -65 146 -65 q 199 -70 187 -65 q 369 -117 307 -117 q 434 -92 412 -117 q 456 -12 456 -66 l 456 474 l 197 474 q 163 490 173 474 q 154 550 154 505 q 163 611 154 595 q 197 627 173 627 l 583 627 z "},"k":{"ha":833,"x_min":138,"x_max":739,"o":"m 725 110 q 739 76 739 92 q 688 16 739 47 q 621 -10 646 -10 q 584 9 598 -10 l 389 250 l 307 184 l 307 43 q 297 10 307 20 q 264 0 288 0 l 180 0 q 148 10 157 0 q 138 43 138 20 l 138 847 q 148 880 138 870 q 180 890 157 890 l 264 890 q 297 880 288 890 q 307 847 307 870 l 307 394 l 578 621 q 612 635 593 635 q 679 603 640 635 q 728 537 728 562 q 711 509 728 523 l 523 357 l 725 110 z "},"ķ":{"ha":833,"x_min":138,"x_max":739,"o":"m 725 110 q 739 76 739 92 q 688 16 739 47 q 621 -10 646 -10 q 584 9 598 -10 l 389 250 l 307 184 l 307 43 q 297 10 307 20 q 264 0 288 0 l 180 0 q 148 10 157 0 q 138 43 138 20 l 138 847 q 148 880 138 870 q 180 890 157 890 l 264 890 q 297 880 288 890 q 307 847 307 870 l 307 394 l 578 621 q 612 635 593 635 q 679 603 640 635 q 728 537 728 562 q 711 509 728 523 l 523 357 l 725 110 m 500 -99 q 516 -115 516 -99 q 513 -128 516 -122 l 429 -336 q 407 -361 422 -353 q 361 -369 391 -369 q 311 -360 327 -369 q 295 -334 295 -352 q 296 -325 295 -328 l 336 -117 q 344 -104 337 -109 q 360 -99 351 -99 l 500 -99 z "},"l":{"ha":833,"x_min":106,"x_max":737,"o":"m 694 153 q 728 137 718 153 q 737 76 737 121 q 728 16 737 31 q 694 0 718 0 l 149 0 q 116 16 125 0 q 106 76 106 31 q 116 137 106 121 q 149 153 125 153 l 334 153 l 334 737 l 176 737 q 143 753 153 737 q 134 813 134 768 q 143 874 134 858 q 176 890 153 890 l 461 890 q 494 880 484 890 q 504 847 504 870 l 504 153 l 694 153 z "},"ĺ":{"ha":833,"x_min":106,"x_max":737,"o":"m 332 947 q 316 943 324 943 q 270 978 292 943 q 255 1021 255 1002 q 269 1050 255 1040 l 505 1223 q 527 1230 515 1230 q 597 1179 558 1230 q 624 1116 624 1143 q 608 1086 624 1095 l 332 947 m 694 153 q 728 137 718 153 q 737 76 737 121 q 728 16 737 31 q 694 0 718 0 l 149 0 q 116 16 125 0 q 106 76 106 31 q 116 137 106 121 q 149 153 125 153 l 334 153 l 334 737 l 176 737 q 143 753 153 737 q 134 813 134 768 q 143 874 134 858 q 176 890 153 890 l 461 890 q 494 880 484 890 q 504 847 504 870 l 504 153 l 694 153 z "},"ľ":{"ha":833,"x_min":79,"x_max":827,"o":"m 667 153 q 701 137 691 153 q 710 76 710 121 q 701 16 710 31 q 667 0 691 0 l 122 0 q 89 16 98 0 q 79 76 79 31 q 89 137 79 121 q 122 153 98 153 l 307 153 l 307 737 l 149 737 q 116 753 125 737 q 106 813 106 768 q 116 874 106 858 q 149 890 125 890 l 434 890 q 467 880 457 890 q 477 847 477 870 l 477 153 l 667 153 m 808 890 q 827 871 827 890 q 823 854 827 865 l 721 592 q 693 563 713 571 q 640 554 674 554 q 597 562 611 554 q 583 589 583 570 q 585 602 583 597 l 642 867 q 671 890 648 890 l 808 890 z "},"ļ":{"ha":833,"x_min":106,"x_max":737,"o":"m 694 153 q 728 137 718 153 q 737 76 737 121 q 728 16 737 31 q 694 0 718 0 l 149 0 q 116 16 125 0 q 106 76 106 31 q 116 137 106 121 q 149 153 125 153 l 334 153 l 334 737 l 176 737 q 143 753 153 737 q 134 813 134 768 q 143 874 134 858 q 176 890 153 890 l 461 890 q 494 880 484 890 q 504 847 504 870 l 504 153 l 694 153 m 493 -99 q 509 -115 509 -99 q 507 -128 509 -122 l 422 -336 q 400 -361 416 -353 q 354 -369 384 -369 q 304 -360 320 -369 q 288 -334 288 -352 q 289 -325 288 -328 l 329 -117 q 337 -104 330 -109 q 353 -99 344 -99 l 493 -99 z "},"ŀ":{"ha":833,"x_min":79,"x_max":779,"o":"m 667 153 q 701 137 691 153 q 710 76 710 121 q 701 16 710 31 q 667 0 691 0 l 122 0 q 89 16 98 0 q 79 76 79 31 q 89 137 79 121 q 122 153 98 153 l 307 153 l 307 737 l 149 737 q 116 753 125 737 q 106 813 106 768 q 116 874 106 858 q 149 890 125 890 l 434 890 q 467 880 457 890 q 477 847 477 870 l 477 153 l 667 153 m 692 599 q 760 589 741 599 q 779 556 779 579 l 779 445 q 761 412 779 422 q 696 402 743 402 q 629 412 648 402 q 610 445 610 422 l 610 556 q 627 589 610 580 q 692 599 645 599 z "},"ł":{"ha":833,"x_min":106,"x_max":737,"o":"m 694 153 q 728 137 718 153 q 737 76 737 121 q 728 16 737 31 q 694 0 718 0 l 149 0 q 116 16 125 0 q 106 76 106 31 q 116 137 106 121 q 149 153 125 153 l 334 153 l 334 334 l 230 273 q 207 264 217 264 q 184 275 195 264 q 158 310 172 286 q 138 362 138 346 q 159 392 138 379 l 334 496 l 334 737 l 176 737 q 143 753 153 737 q 134 813 134 768 q 143 874 134 858 q 176 890 153 890 l 461 890 q 494 880 484 890 q 504 847 504 870 l 504 597 l 604 656 q 627 664 617 664 q 649 653 638 664 q 676 618 661 643 q 696 566 696 585 q 675 536 696 549 l 504 435 l 504 153 l 694 153 z "},"m":{"ha":833,"x_min":60,"x_max":777,"o":"m 643 642 q 741 591 705 642 q 777 436 777 540 l 777 43 q 767 10 777 20 q 734 0 758 0 l 650 0 q 617 10 627 0 q 608 43 608 20 l 608 397 q 599 450 608 433 q 572 467 591 467 q 522 418 541 467 q 503 273 503 368 l 503 43 q 493 10 503 20 q 460 0 484 0 l 376 0 q 343 10 353 0 q 334 43 334 20 l 334 397 q 325 450 334 433 q 298 467 317 467 q 248 418 267 467 q 229 273 229 368 l 229 43 q 219 10 229 20 q 186 0 210 0 l 102 0 q 70 10 79 0 q 60 43 60 20 l 60 584 q 70 617 60 607 q 102 627 79 627 l 153 627 q 185 617 176 627 q 195 584 195 607 l 195 500 q 265 605 224 569 q 351 642 305 642 q 481 504 452 642 q 553 607 512 572 q 643 642 595 642 z "},"n":{"ha":833,"x_min":115,"x_max":727,"o":"m 509 642 q 625 613 575 642 q 701 533 674 585 q 727 414 727 481 l 727 43 q 717 10 727 20 q 684 0 707 0 l 600 0 q 567 10 577 0 q 557 43 557 20 l 557 374 q 465 481 557 481 q 379 448 421 481 q 311 359 338 414 q 285 243 285 304 l 285 43 q 275 10 285 20 q 242 0 265 0 l 158 0 q 125 10 135 0 q 115 43 115 20 l 115 584 q 125 617 115 607 q 158 627 135 627 l 222 627 q 255 617 245 627 q 264 584 264 607 l 264 499 q 374 604 312 566 q 509 642 437 642 z "},"ń":{"ha":833,"x_min":115,"x_max":727,"o":"m 532 972 q 554 979 543 979 q 624 928 585 979 q 651 865 651 892 q 635 836 651 844 l 359 696 q 343 692 351 692 q 297 727 319 692 q 282 770 282 751 q 296 799 282 789 l 532 972 m 509 642 q 625 613 575 642 q 701 533 674 585 q 727 414 727 481 l 727 43 q 717 10 727 20 q 684 0 707 0 l 600 0 q 567 10 577 0 q 557 43 557 20 l 557 374 q 465 481 557 481 q 379 448 421 481 q 311 359 338 414 q 285 243 285 304 l 285 43 q 275 10 285 20 q 242 0 265 0 l 158 0 q 125 10 135 0 q 115 43 115 20 l 115 584 q 125 617 115 607 q 158 627 135 627 l 222 627 q 255 617 245 627 q 264 584 264 607 l 264 499 q 374 604 312 566 q 509 642 437 642 z "},"ň":{"ha":833,"x_min":115,"x_max":727,"o":"m 430 696 q 402 700 412 696 q 382 712 391 704 l 202 865 q 187 893 187 878 q 204 934 187 910 q 245 963 224 963 q 267 956 256 963 l 430 862 l 593 956 q 615 963 604 963 q 656 934 635 963 q 673 893 673 910 q 658 865 673 878 l 478 712 q 458 700 469 704 q 430 696 448 696 m 509 642 q 625 613 575 642 q 701 533 674 585 q 727 414 727 481 l 727 43 q 717 10 727 20 q 684 0 707 0 l 600 0 q 567 10 577 0 q 557 43 557 20 l 557 374 q 465 481 557 481 q 379 448 421 481 q 311 359 338 414 q 285 243 285 304 l 285 43 q 275 10 285 20 q 242 0 265 0 l 158 0 q 125 10 135 0 q 115 43 115 20 l 115 584 q 125 617 115 607 q 158 627 135 627 l 222 627 q 255 617 245 627 q 264 584 264 607 l 264 499 q 374 604 312 566 q 509 642 437 642 z "},"ņ":{"ha":833,"x_min":115,"x_max":727,"o":"m 509 642 q 625 613 575 642 q 701 533 674 585 q 727 414 727 481 l 727 43 q 717 10 727 20 q 684 0 707 0 l 600 0 q 567 10 577 0 q 557 43 557 20 l 557 374 q 465 481 557 481 q 379 448 421 481 q 311 359 338 414 q 285 243 285 304 l 285 43 q 275 10 285 20 q 242 0 265 0 l 158 0 q 125 10 135 0 q 115 43 115 20 l 115 584 q 125 617 115 607 q 158 627 135 627 l 222 627 q 255 617 245 627 q 264 584 264 607 l 264 499 q 374 604 312 566 q 509 642 437 642 m 500 -99 q 516 -115 516 -99 q 513 -128 516 -122 l 429 -336 q 407 -361 422 -353 q 361 -369 391 -369 q 311 -360 327 -369 q 295 -334 295 -352 q 296 -325 295 -328 l 336 -117 q 344 -104 337 -109 q 360 -99 351 -99 l 500 -99 z "},"ŋ":{"ha":833,"x_min":115,"x_max":727,"o":"m 509 642 q 625 613 575 642 q 701 533 674 585 q 727 414 727 481 l 727 -37 q 665 -218 727 -157 q 481 -278 604 -278 q 411 -271 448 -278 q 340 -251 374 -264 q 317 -235 325 -245 q 310 -206 310 -224 q 317 -159 310 -189 q 338 -112 326 -126 q 366 -97 350 -97 q 381 -100 370 -97 q 432 -113 406 -108 q 477 -117 458 -117 q 538 -96 519 -117 q 557 -26 557 -75 l 557 374 q 465 481 557 481 q 379 448 421 481 q 311 359 338 414 q 285 243 285 304 l 285 43 q 275 10 285 20 q 242 0 265 0 l 158 0 q 125 10 135 0 q 115 43 115 20 l 115 584 q 125 617 115 607 q 158 627 135 627 l 222 627 q 255 617 245 627 q 264 584 264 607 l 264 499 q 374 604 312 566 q 509 642 437 642 z "},"ñ":{"ha":833,"x_min":115,"x_max":727,"o":"m 336 930 q 385 922 363 930 q 437 899 408 913 q 477 881 462 886 q 509 875 492 875 q 596 924 550 875 q 616 933 606 933 q 661 906 636 933 q 686 854 686 879 q 679 831 686 841 q 601 751 644 780 q 511 722 557 722 q 461 730 484 722 q 409 753 439 739 q 369 771 385 766 q 338 777 354 777 q 250 728 296 777 q 230 719 241 719 q 185 746 210 719 q 161 798 161 773 q 168 821 161 811 q 245 901 202 872 q 336 930 289 930 m 509 642 q 625 613 575 642 q 701 533 674 585 q 727 414 727 481 l 727 43 q 717 10 727 20 q 684 0 707 0 l 600 0 q 567 10 577 0 q 557 43 557 20 l 557 374 q 465 481 557 481 q 379 448 421 481 q 311 359 338 414 q 285 243 285 304 l 285 43 q 275 10 285 20 q 242 0 265 0 l 158 0 q 125 10 135 0 q 115 43 115 20 l 115 584 q 125 617 115 607 q 158 627 135 627 l 222 627 q 255 617 245 627 q 264 584 264 607 l 264 499 q 374 604 312 566 q 509 642 437 642 z "},"o":{"ha":833,"x_min":77,"x_max":756,"o":"m 416 642 q 596 600 519 642 q 714 483 673 557 q 756 313 756 408 q 714 144 756 218 q 596 27 673 69 q 416 -15 519 -15 q 237 27 314 -15 q 118 144 160 69 q 77 313 77 218 q 118 483 77 408 q 237 600 160 557 q 416 642 314 642 m 416 484 q 331 463 368 484 q 274 404 294 442 q 254 313 254 365 q 274 223 254 262 q 331 163 294 184 q 416 142 368 142 q 502 163 465 142 q 558 223 538 184 q 578 313 578 262 q 558 404 578 365 q 502 463 538 442 q 416 484 465 484 z "},"ó":{"ha":833,"x_min":77,"x_max":756,"o":"m 511 972 q 534 979 522 979 q 604 928 565 979 q 631 865 631 892 q 614 836 631 844 l 338 696 q 323 692 331 692 q 277 727 298 692 q 262 770 262 751 q 276 799 262 789 l 511 972 m 416 642 q 596 600 519 642 q 714 483 673 557 q 756 313 756 408 q 714 144 756 218 q 596 27 673 69 q 416 -15 519 -15 q 237 27 314 -15 q 118 144 160 69 q 77 313 77 218 q 118 483 77 408 q 237 600 160 557 q 416 642 314 642 m 416 484 q 331 463 368 484 q 274 404 294 442 q 254 313 254 365 q 274 223 254 262 q 331 163 294 184 q 416 142 368 142 q 502 163 465 142 q 558 223 538 184 q 578 313 578 262 q 558 404 578 365 q 502 463 538 442 q 416 484 465 484 z "},"ŏ":{"ha":833,"x_min":77,"x_max":756,"o":"m 611 941 q 645 925 634 935 q 656 901 656 915 q 655 892 656 895 q 578 756 639 806 q 416 706 517 706 q 255 756 316 706 q 178 892 194 806 q 177 901 177 895 q 188 925 177 915 q 222 941 199 935 q 251 945 238 945 q 280 927 273 945 q 329 864 296 884 q 416 844 361 844 q 504 864 471 844 q 553 927 537 884 q 582 945 560 945 q 611 941 595 945 m 416 642 q 596 600 519 642 q 714 483 673 557 q 756 313 756 408 q 714 144 756 218 q 596 27 673 69 q 416 -15 519 -15 q 237 27 314 -15 q 118 144 160 69 q 77 313 77 218 q 118 483 77 408 q 237 600 160 557 q 416 642 314 642 m 416 484 q 331 463 368 484 q 274 404 294 442 q 254 313 254 365 q 274 223 254 262 q 331 163 294 184 q 416 142 368 142 q 502 163 465 142 q 558 223 538 184 q 578 313 578 262 q 558 404 578 365 q 502 463 538 442 q 416 484 465 484 z "},"ô":{"ha":833,"x_min":77,"x_max":756,"o":"m 416 956 q 445 952 434 956 q 465 941 455 949 l 644 788 q 659 760 659 775 q 642 719 659 743 q 602 690 622 690 q 579 697 591 690 l 416 791 l 254 697 q 231 690 242 690 q 191 719 211 690 q 174 760 174 743 q 189 788 174 775 l 368 941 q 388 952 378 949 q 416 956 399 956 m 416 642 q 596 600 519 642 q 714 483 673 557 q 756 313 756 408 q 714 144 756 218 q 596 27 673 69 q 416 -15 519 -15 q 237 27 314 -15 q 118 144 160 69 q 77 313 77 218 q 118 483 77 408 q 237 600 160 557 q 416 642 314 642 m 416 484 q 331 463 368 484 q 274 404 294 442 q 254 313 254 365 q 274 223 254 262 q 331 163 294 184 q 416 142 368 142 q 502 163 465 142 q 558 223 538 184 q 578 313 578 262 q 558 404 578 365 q 502 463 538 442 q 416 484 465 484 z "},"ö":{"ha":833,"x_min":77,"x_max":756,"o":"m 265 924 q 333 915 313 924 q 352 882 352 905 l 352 770 q 334 738 352 747 q 269 728 316 728 q 202 738 221 728 q 182 770 182 747 l 182 882 q 200 915 182 905 q 265 924 218 924 m 564 924 q 631 915 612 924 q 650 882 650 905 l 650 770 q 632 738 650 747 q 567 728 614 728 q 500 738 519 728 q 481 770 481 747 l 481 882 q 498 915 481 905 q 564 924 516 924 m 416 642 q 596 600 519 642 q 714 483 673 557 q 756 313 756 408 q 714 144 756 218 q 596 27 673 69 q 416 -15 519 -15 q 237 27 314 -15 q 118 144 160 69 q 77 313 77 218 q 118 483 77 408 q 237 600 160 557 q 416 642 314 642 m 416 484 q 331 463 368 484 q 274 404 294 442 q 254 313 254 365 q 274 223 254 262 q 331 163 294 184 q 416 142 368 142 q 502 163 465 142 q 558 223 538 184 q 578 313 578 262 q 558 404 578 365 q 502 463 538 442 q 416 484 465 484 z "},"ò":{"ha":833,"x_min":77,"x_max":756,"o":"m 557 799 q 571 770 571 789 q 556 727 571 751 q 510 692 534 692 q 494 696 501 692 l 218 836 q 202 865 202 844 q 229 928 202 892 q 299 979 268 979 q 321 972 311 979 l 557 799 m 416 642 q 596 600 519 642 q 714 483 673 557 q 756 313 756 408 q 714 144 756 218 q 596 27 673 69 q 416 -15 519 -15 q 237 27 314 -15 q 118 144 160 69 q 77 313 77 218 q 118 483 77 408 q 237 600 160 557 q 416 642 314 642 m 416 484 q 331 463 368 484 q 274 404 294 442 q 254 313 254 365 q 274 223 254 262 q 331 163 294 184 q 416 142 368 142 q 502 163 465 142 q 558 223 538 184 q 578 313 578 262 q 558 404 578 365 q 502 463 538 442 q 416 484 465 484 z "},"ő":{"ha":833,"x_min":77,"x_max":785,"o":"m 445 940 q 493 896 493 918 q 484 878 493 886 l 304 715 q 272 704 292 704 q 227 714 253 704 q 200 729 209 721 q 191 747 191 738 q 196 761 191 754 l 346 941 q 384 956 359 956 q 445 940 408 956 m 736 940 q 785 896 785 918 q 775 878 785 886 l 595 715 q 564 704 583 704 q 518 714 545 704 q 491 729 500 721 q 482 747 482 738 q 488 761 482 754 l 637 941 q 675 956 650 956 q 736 940 700 956 m 416 642 q 596 600 519 642 q 714 483 673 557 q 756 313 756 408 q 714 144 756 218 q 596 27 673 69 q 416 -15 519 -15 q 237 27 314 -15 q 118 144 160 69 q 77 313 77 218 q 118 483 77 408 q 237 600 160 557 q 416 642 314 642 m 416 484 q 331 463 368 484 q 274 404 294 442 q 254 313 254 365 q 274 223 254 262 q 331 163 294 184 q 416 142 368 142 q 502 163 465 142 q 558 223 538 184 q 578 313 578 262 q 558 404 578 365 q 502 463 538 442 q 416 484 465 484 z "},"ō":{"ha":833,"x_min":77,"x_max":756,"o":"m 600 865 q 625 859 616 865 q 638 838 634 853 q 643 795 643 823 q 638 751 643 766 q 625 731 634 736 q 600 726 616 726 l 233 726 q 208 731 216 726 q 194 751 199 736 q 190 795 190 766 q 194 838 190 823 q 208 859 199 853 q 233 865 216 865 l 600 865 m 416 642 q 596 600 519 642 q 714 483 673 557 q 756 313 756 408 q 714 144 756 218 q 596 27 673 69 q 416 -15 519 -15 q 237 27 314 -15 q 118 144 160 69 q 77 313 77 218 q 118 483 77 408 q 237 600 160 557 q 416 642 314 642 m 416 484 q 331 463 368 484 q 274 404 294 442 q 254 313 254 365 q 274 223 254 262 q 331 163 294 184 q 416 142 368 142 q 502 163 465 142 q 558 223 538 184 q 578 313 578 262 q 558 404 578 365 q 502 463 538 442 q 416 484 465 484 z "},"ø":{"ha":833,"x_min":56,"x_max":777,"o":"m 747 654 q 777 607 777 625 q 762 579 777 595 l 696 511 q 741 420 726 471 q 756 313 756 370 q 714 144 756 218 q 596 27 673 69 q 416 -15 519 -15 q 231 31 309 -15 l 161 -40 q 133 -56 147 -56 q 86 -27 115 -56 q 56 20 56 2 q 71 47 56 32 l 136 115 q 92 207 107 156 q 77 313 77 257 q 118 483 77 408 q 237 600 160 557 q 416 642 314 642 q 602 595 524 642 l 671 667 q 700 682 686 682 q 747 654 718 682 m 254 313 q 264 247 254 277 l 483 472 q 416 484 453 484 q 331 463 368 484 q 274 404 294 442 q 254 313 254 365 m 578 313 q 568 380 578 349 l 350 155 q 416 142 380 142 q 502 163 465 142 q 558 223 538 184 q 578 313 578 262 z "},"õ":{"ha":833,"x_min":77,"x_max":756,"o":"m 329 930 q 378 922 356 930 q 431 899 401 913 q 470 881 455 886 q 502 875 486 875 q 589 924 543 875 q 610 933 599 933 q 654 906 629 933 q 679 854 679 879 q 672 831 679 841 q 594 751 637 780 q 504 722 551 722 q 454 730 477 722 q 402 753 432 739 q 362 771 378 766 q 331 777 347 777 q 243 728 290 777 q 223 719 234 719 q 178 746 203 719 q 154 798 154 773 q 161 821 154 811 q 239 901 195 872 q 329 930 282 930 m 416 642 q 596 600 519 642 q 714 483 673 557 q 756 313 756 408 q 714 144 756 218 q 596 27 673 69 q 416 -15 519 -15 q 237 27 314 -15 q 118 144 160 69 q 77 313 77 218 q 118 483 77 408 q 237 600 160 557 q 416 642 314 642 m 416 484 q 331 463 368 484 q 274 404 294 442 q 254 313 254 365 q 274 223 254 262 q 331 163 294 184 q 416 142 368 142 q 502 163 465 142 q 558 223 538 184 q 578 313 578 262 q 558 404 578 365 q 502 463 538 442 q 416 484 465 484 z "},"œ":{"ha":833,"x_min":18,"x_max":809,"o":"m 582 642 q 720 598 670 642 q 789 478 770 555 q 809 293 809 402 q 799 260 809 270 q 766 251 789 251 l 491 251 q 582 139 505 139 q 653 147 619 139 q 730 173 686 155 q 749 177 740 177 q 777 163 765 177 q 798 121 788 149 q 807 77 807 94 q 777 33 807 46 q 572 -15 665 -15 q 418 57 473 -15 q 260 -15 362 -15 q 77 73 135 -15 q 18 313 18 161 q 77 553 18 465 q 260 642 135 642 q 420 567 364 642 q 582 642 480 642 m 260 488 q 198 446 217 488 q 180 313 180 404 q 198 181 180 222 q 260 139 217 139 q 322 181 304 139 q 341 313 341 222 q 322 446 341 404 q 260 488 304 488 m 582 488 q 520 462 541 488 q 491 383 498 437 l 656 383 q 634 460 653 433 q 582 488 616 488 z "},"p":{"ha":833,"x_min":113,"x_max":749,"o":"m 461 642 q 615 598 550 642 q 715 480 680 555 q 749 313 749 406 q 715 146 749 221 q 615 28 680 72 q 461 -15 550 -15 q 363 6 408 -15 q 283 65 317 26 l 283 -220 q 273 -253 283 -243 q 240 -263 263 -263 l 156 -263 q 123 -253 133 -263 q 113 -220 113 -243 l 113 584 q 123 617 113 607 q 156 627 133 627 l 220 627 q 253 617 243 627 q 262 584 262 607 l 262 534 q 348 613 296 585 q 461 642 399 642 m 434 484 q 355 464 391 484 q 299 406 320 444 q 278 313 278 367 q 299 221 278 260 q 355 162 320 182 q 434 142 391 142 q 535 189 498 142 q 572 313 572 235 q 535 438 572 392 q 434 484 498 484 z "},"þ":{"ha":833,"x_min":113,"x_max":749,"o":"m 240 890 q 273 880 263 890 q 283 847 283 870 l 283 562 q 363 621 317 600 q 461 642 408 642 q 615 598 550 642 q 715 480 680 555 q 749 313 749 406 q 715 146 749 221 q 615 28 680 72 q 461 -15 550 -15 q 363 6 408 -15 q 283 65 317 26 l 283 -220 q 273 -253 283 -243 q 240 -263 263 -263 l 156 -263 q 123 -253 133 -263 q 113 -220 113 -243 l 113 847 q 123 880 113 870 q 156 890 133 890 l 240 890 m 434 484 q 355 464 391 484 q 299 406 320 444 q 278 313 278 367 q 299 221 278 260 q 355 162 320 182 q 434 142 391 142 q 535 189 498 142 q 572 313 572 235 q 535 438 572 392 q 434 484 498 484 z "},"q":{"ha":833,"x_min":83,"x_max":720,"o":"m 372 642 q 485 613 434 642 q 570 534 536 585 l 570 584 q 580 617 570 607 q 613 627 590 627 l 677 627 q 710 617 700 627 q 720 584 720 607 l 720 -220 q 710 -253 720 -243 q 677 -263 700 -263 l 593 -263 q 560 -253 570 -263 q 550 -220 550 -243 l 550 65 q 470 6 515 26 q 372 -15 425 -15 q 218 28 283 -15 q 118 146 153 72 q 83 313 83 221 q 118 480 83 406 q 218 598 153 555 q 372 642 283 642 m 399 484 q 298 438 335 484 q 261 313 261 392 q 298 189 261 235 q 399 142 335 142 q 477 162 442 142 q 534 221 513 182 q 555 313 555 260 q 534 406 555 367 q 477 464 513 444 q 399 484 442 484 z "},"r":{"ha":833,"x_min":174,"x_max":735,"o":"m 597 642 q 699 621 648 642 q 735 562 735 607 q 730 520 735 545 q 674 447 713 447 q 661 449 667 447 q 588 460 625 460 q 466 426 522 460 q 377 332 410 392 q 344 197 344 272 l 344 43 q 334 10 344 20 q 301 0 324 0 l 217 0 q 184 10 194 0 q 174 43 174 20 l 174 584 q 184 617 174 607 q 217 627 194 627 l 288 627 q 320 617 311 627 q 330 584 330 607 l 330 468 q 447 595 377 549 q 597 642 517 642 z "},"ŕ":{"ha":833,"x_min":174,"x_max":735,"o":"m 567 972 q 589 979 578 979 q 659 928 621 979 q 686 865 686 892 q 670 836 686 844 l 394 696 q 378 692 387 692 q 332 727 354 692 q 317 770 317 751 q 332 799 317 789 l 567 972 m 597 642 q 699 621 648 642 q 735 562 735 607 q 730 520 735 545 q 674 447 713 447 q 661 449 667 447 q 588 460 625 460 q 466 426 522 460 q 377 332 410 392 q 344 197 344 272 l 344 43 q 334 10 344 20 q 301 0 324 0 l 217 0 q 184 10 194 0 q 174 43 174 20 l 174 584 q 184 617 174 607 q 217 627 194 627 l 288 627 q 320 617 311 627 q 330 584 330 607 l 330 468 q 447 595 377 549 q 597 642 517 642 z "},"ř":{"ha":833,"x_min":174,"x_max":735,"o":"m 450 696 q 422 700 433 696 q 402 712 412 704 l 222 865 q 208 893 208 878 q 224 934 208 910 q 265 963 245 963 q 288 956 276 963 l 450 862 l 613 956 q 635 963 625 963 q 676 934 656 963 q 693 893 693 910 q 678 865 693 878 l 498 712 q 478 700 489 704 q 450 696 468 696 m 597 642 q 699 621 648 642 q 735 562 735 607 q 730 520 735 545 q 674 447 713 447 q 661 449 667 447 q 588 460 625 460 q 466 426 522 460 q 377 332 410 392 q 344 197 344 272 l 344 43 q 334 10 344 20 q 301 0 324 0 l 217 0 q 184 10 194 0 q 174 43 174 20 l 174 584 q 184 617 174 607 q 217 627 194 627 l 288 627 q 320 617 311 627 q 330 584 330 607 l 330 468 q 447 595 377 549 q 597 642 517 642 z "},"ŗ":{"ha":833,"x_min":174,"x_max":735,"o":"m 597 642 q 699 621 648 642 q 735 562 735 607 q 730 520 735 545 q 674 447 713 447 q 661 449 667 447 q 588 460 625 460 q 466 426 522 460 q 377 332 410 392 q 344 197 344 272 l 344 43 q 334 10 344 20 q 301 0 324 0 l 217 0 q 184 10 194 0 q 174 43 174 20 l 174 584 q 184 617 174 607 q 217 627 194 627 l 288 627 q 320 617 311 627 q 330 584 330 607 l 330 468 q 447 595 377 549 q 597 642 517 642 m 432 -99 q 448 -115 448 -99 q 446 -128 448 -122 l 361 -336 q 339 -361 355 -353 q 293 -369 323 -369 q 243 -360 259 -369 q 227 -334 227 -352 q 228 -325 227 -328 l 268 -117 q 276 -104 269 -109 q 292 -99 283 -99 l 432 -99 z "},"s":{"ha":833,"x_min":111,"x_max":726,"o":"m 438 -15 q 292 -2 368 -15 q 146 34 216 10 q 112 83 112 46 q 118 119 112 98 q 169 176 134 176 q 186 173 176 176 q 423 129 309 129 q 521 144 492 129 q 551 187 551 159 q 535 212 551 203 q 491 227 520 221 q 413 236 467 231 q 293 251 342 242 q 203 281 243 260 q 111 437 111 329 q 144 547 111 500 q 237 617 177 593 q 377 642 297 642 q 523 629 448 642 q 669 593 599 616 q 703 544 703 581 q 697 507 703 529 q 646 450 681 450 q 629 454 640 450 q 392 498 506 498 q 312 483 337 498 q 286 440 286 469 q 298 417 286 426 q 334 404 311 409 q 422 395 364 398 q 529 384 486 390 q 610 363 572 377 q 695 304 665 343 q 726 201 726 266 q 694 88 726 136 q 597 12 662 39 q 438 -15 533 -15 z "},"ś":{"ha":833,"x_min":111,"x_max":726,"o":"m 511 972 q 534 979 522 979 q 604 928 565 979 q 631 865 631 892 q 614 836 631 844 l 338 696 q 323 692 331 692 q 277 727 298 692 q 262 770 262 751 q 276 799 262 789 l 511 972 m 438 -15 q 292 -2 368 -15 q 146 34 216 10 q 112 83 112 46 q 118 119 112 98 q 169 176 134 176 q 186 173 176 176 q 423 129 309 129 q 521 144 492 129 q 551 187 551 159 q 535 212 551 203 q 491 227 520 221 q 413 236 467 231 q 293 251 342 242 q 203 281 243 260 q 111 437 111 329 q 144 547 111 500 q 237 617 177 593 q 377 642 297 642 q 523 629 448 642 q 669 593 599 616 q 703 544 703 581 q 697 507 703 529 q 646 450 681 450 q 629 454 640 450 q 392 498 506 498 q 312 483 337 498 q 286 440 286 469 q 298 417 286 426 q 334 404 311 409 q 422 395 364 398 q 529 384 486 390 q 610 363 572 377 q 695 304 665 343 q 726 201 726 266 q 694 88 726 136 q 597 12 662 39 q 438 -15 533 -15 z "},"š":{"ha":833,"x_min":111,"x_max":726,"o":"m 416 696 q 388 700 399 696 q 368 712 378 704 l 189 865 q 174 893 174 878 q 191 934 174 910 q 231 963 211 963 q 254 956 242 963 l 416 862 l 579 956 q 602 963 591 963 q 642 934 622 963 q 659 893 659 910 q 644 865 659 878 l 465 712 q 445 700 455 704 q 416 696 434 696 m 438 -15 q 292 -2 368 -15 q 146 34 216 10 q 112 83 112 46 q 118 119 112 98 q 169 176 134 176 q 186 173 176 176 q 423 129 309 129 q 521 144 492 129 q 551 187 551 159 q 535 212 551 203 q 491 227 520 221 q 413 236 467 231 q 293 251 342 242 q 203 281 243 260 q 111 437 111 329 q 144 547 111 500 q 237 617 177 593 q 377 642 297 642 q 523 629 448 642 q 669 593 599 616 q 703 544 703 581 q 697 507 703 529 q 646 450 681 450 q 629 454 640 450 q 392 498 506 498 q 312 483 337 498 q 286 440 286 469 q 298 417 286 426 q 334 404 311 409 q 422 395 364 398 q 529 384 486 390 q 610 363 572 377 q 695 304 665 343 q 726 201 726 266 q 694 88 726 136 q 597 12 662 39 q 438 -15 533 -15 z "},"ş":{"ha":833,"x_min":111,"x_max":726,"o":"m 726 201 q 661 50 726 108 q 471 -14 596 -7 l 471 -56 q 580 -92 543 -56 q 617 -185 617 -127 q 569 -285 617 -250 q 428 -320 520 -320 q 254 -292 328 -320 q 238 -265 238 -285 q 245 -235 238 -252 q 281 -191 261 -191 q 290 -193 284 -191 q 399 -212 345 -212 q 448 -204 432 -212 q 464 -178 464 -195 q 448 -153 464 -160 q 402 -146 431 -146 l 387 -146 q 370 -147 381 -147 q 345 -119 345 -147 l 345 -9 q 146 34 243 1 q 112 83 112 46 q 118 119 112 98 q 169 176 134 176 q 186 173 176 176 q 423 129 309 129 q 521 144 492 129 q 551 187 551 159 q 535 212 551 203 q 491 227 520 221 q 413 236 467 231 q 293 251 342 242 q 203 281 243 260 q 111 437 111 329 q 144 547 111 500 q 237 617 177 593 q 377 642 297 642 q 523 629 448 642 q 669 593 599 616 q 703 544 703 581 q 697 507 703 529 q 646 450 681 450 q 629 454 640 450 q 392 498 506 498 q 312 483 337 498 q 286 440 286 469 q 298 417 286 426 q 334 404 311 409 q 422 395 364 398 q 529 384 486 390 q 610 363 572 377 q 695 304 665 343 q 726 201 726 266 z "},"ŝ":{"ha":833,"x_min":111,"x_max":726,"o":"m 416 956 q 445 952 434 956 q 465 941 455 949 l 644 788 q 659 760 659 775 q 642 719 659 743 q 602 690 622 690 q 579 697 591 690 l 416 791 l 254 697 q 231 690 242 690 q 191 719 211 690 q 174 760 174 743 q 189 788 174 775 l 368 941 q 388 952 378 949 q 416 956 399 956 m 438 -15 q 292 -2 368 -15 q 146 34 216 10 q 112 83 112 46 q 118 119 112 98 q 169 176 134 176 q 186 173 176 176 q 423 129 309 129 q 521 144 492 129 q 551 187 551 159 q 535 212 551 203 q 491 227 520 221 q 413 236 467 231 q 293 251 342 242 q 203 281 243 260 q 111 437 111 329 q 144 547 111 500 q 237 617 177 593 q 377 642 297 642 q 523 629 448 642 q 669 593 599 616 q 703 544 703 581 q 697 507 703 529 q 646 450 681 450 q 629 454 640 450 q 392 498 506 498 q 312 483 337 498 q 286 440 286 469 q 298 417 286 426 q 334 404 311 409 q 422 395 364 398 q 529 384 486 390 q 610 363 572 377 q 695 304 665 343 q 726 201 726 266 q 694 88 726 136 q 597 12 662 39 q 438 -15 533 -15 z "},"ș":{"ha":833,"x_min":111,"x_max":726,"o":"m 438 -15 q 292 -2 368 -15 q 146 34 216 10 q 112 83 112 46 q 118 119 112 98 q 169 176 134 176 q 186 173 176 176 q 423 129 309 129 q 521 144 492 129 q 551 187 551 159 q 535 212 551 203 q 491 227 520 221 q 413 236 467 231 q 293 251 342 242 q 203 281 243 260 q 111 437 111 329 q 144 547 111 500 q 237 617 177 593 q 377 642 297 642 q 523 629 448 642 q 669 593 599 616 q 703 544 703 581 q 697 507 703 529 q 646 450 681 450 q 629 454 640 450 q 392 498 506 498 q 312 483 337 498 q 286 440 286 469 q 298 417 286 426 q 334 404 311 409 q 422 395 364 398 q 529 384 486 390 q 610 363 572 377 q 695 304 665 343 q 726 201 726 266 q 694 88 726 136 q 597 12 662 39 q 438 -15 533 -15 m 500 -99 q 516 -115 516 -99 q 513 -128 516 -122 l 429 -336 q 407 -361 422 -353 q 361 -369 391 -369 q 311 -360 327 -369 q 295 -334 295 -352 q 296 -325 295 -328 l 336 -117 q 344 -104 337 -109 q 360 -99 351 -99 l 500 -99 z "},"ß":{"ha":833,"x_min":127,"x_max":736,"o":"m 418 893 q 572 861 508 893 q 668 772 635 829 q 701 642 701 715 q 674 533 701 578 q 593 460 648 489 q 700 380 663 433 q 736 249 736 326 q 700 103 736 163 q 597 15 663 44 q 440 -15 530 -15 q 400 2 413 -15 q 388 62 388 20 q 396 122 388 106 q 427 139 404 139 q 526 170 492 139 q 559 262 559 201 q 526 343 559 315 q 435 372 493 372 q 402 389 412 372 q 393 448 393 406 q 402 507 393 490 q 435 525 412 523 q 531 635 531 534 q 503 710 531 682 q 417 739 474 739 q 328 702 359 739 q 297 593 297 664 l 297 43 q 287 10 297 20 q 254 0 277 0 l 170 0 q 137 10 147 0 q 127 43 127 20 l 127 595 q 162 752 127 685 q 262 857 197 820 q 418 893 328 893 z "},"t":{"ha":833,"x_min":66,"x_max":752,"o":"m 740 147 q 752 96 752 117 q 745 70 752 81 q 724 52 738 60 q 481 -15 591 -15 q 301 51 363 -15 q 239 243 239 117 l 239 433 l 109 433 q 75 449 85 433 q 66 509 66 465 q 75 570 66 554 q 109 586 85 586 l 239 586 l 239 777 q 260 810 239 800 q 329 820 281 820 q 378 815 361 820 q 402 802 395 811 q 409 777 409 793 l 409 586 l 661 586 q 694 570 684 586 q 703 509 703 554 q 694 449 703 465 q 661 433 684 433 l 409 433 l 409 255 q 496 146 409 146 q 667 195 555 146 q 688 201 679 201 q 740 147 719 201 z "},"ŧ":{"ha":833,"x_min":66,"x_max":752,"o":"m 740 147 q 752 96 752 117 q 745 70 752 81 q 724 52 738 60 q 481 -15 591 -15 q 304 48 366 -15 q 239 231 242 111 l 172 231 q 146 236 155 231 q 133 256 138 241 q 129 300 129 271 q 133 343 129 328 q 146 364 138 358 q 172 370 155 370 l 239 370 l 239 433 l 109 433 q 75 449 85 433 q 66 509 66 465 q 75 570 66 554 q 109 586 85 586 l 239 586 l 239 777 q 260 810 239 800 q 329 820 281 820 q 378 815 361 820 q 402 802 395 811 q 409 777 409 793 l 409 586 l 661 586 q 694 570 684 586 q 703 509 703 554 q 694 449 703 465 q 661 433 684 433 l 409 433 l 409 370 l 539 370 q 564 364 555 370 q 577 343 573 358 q 582 300 582 328 q 577 256 582 271 q 564 236 573 241 q 539 231 555 231 l 410 231 q 496 146 419 146 q 667 195 555 146 q 688 201 679 201 q 740 147 719 201 z "},"ť":{"ha":833,"x_min":66,"x_max":752,"o":"m 571 680 q 521 688 537 680 q 505 714 505 696 q 506 724 505 720 l 546 931 q 554 945 547 940 q 570 949 561 949 l 710 949 q 726 934 726 949 q 724 920 726 926 l 640 713 q 617 688 633 696 q 571 680 601 680 m 740 147 q 752 96 752 117 q 745 70 752 81 q 724 52 738 60 q 481 -15 591 -15 q 301 51 363 -15 q 239 243 239 117 l 239 433 l 109 433 q 75 449 85 433 q 66 509 66 465 q 75 570 66 554 q 109 586 85 586 l 239 586 l 239 777 q 260 810 239 800 q 329 820 281 820 q 378 815 361 820 q 402 802 395 811 q 409 777 409 793 l 409 586 l 661 586 q 694 570 684 586 q 703 509 703 554 q 694 449 703 465 q 661 433 684 433 l 409 433 l 409 255 q 496 146 409 146 q 667 195 555 146 q 688 201 679 201 q 740 147 719 201 z "},"ţ":{"ha":833,"x_min":66,"x_max":752,"o":"m 740 147 q 752 96 752 117 q 745 70 752 81 q 724 52 738 60 q 498 -14 600 -10 l 498 -56 q 607 -92 570 -56 q 644 -185 644 -127 q 596 -285 644 -250 q 455 -320 547 -320 q 281 -292 355 -320 q 265 -265 265 -285 q 272 -235 265 -252 q 309 -191 288 -191 q 317 -193 311 -191 q 426 -212 372 -212 q 475 -204 459 -212 q 491 -178 491 -195 q 475 -153 491 -160 q 429 -146 458 -146 l 414 -146 q 397 -147 408 -147 q 372 -119 372 -147 l 372 3 q 273 90 307 29 q 239 243 239 150 l 239 433 l 109 433 q 75 449 85 433 q 66 509 66 465 q 75 570 66 554 q 109 586 85 586 l 239 586 l 239 777 q 260 810 239 800 q 329 820 281 820 q 378 815 361 820 q 402 802 395 811 q 409 777 409 793 l 409 586 l 661 586 q 694 570 684 586 q 703 509 703 554 q 694 449 703 465 q 661 433 684 433 l 409 433 l 409 255 q 496 146 409 146 q 667 195 555 146 q 688 201 679 201 q 740 147 719 201 z "},"ț":{"ha":833,"x_min":66,"x_max":752,"o":"m 740 147 q 752 96 752 117 q 745 70 752 81 q 724 52 738 60 q 481 -15 591 -15 q 301 51 363 -15 q 239 243 239 117 l 239 433 l 109 433 q 75 449 85 433 q 66 509 66 465 q 75 570 66 554 q 109 586 85 586 l 239 586 l 239 777 q 260 810 239 800 q 329 820 281 820 q 378 815 361 820 q 402 802 395 811 q 409 777 409 793 l 409 586 l 661 586 q 694 570 684 586 q 703 509 703 554 q 694 449 703 465 q 661 433 684 433 l 409 433 l 409 255 q 496 146 409 146 q 667 195 555 146 q 688 201 679 201 q 740 147 719 201 m 527 -99 q 543 -115 543 -99 q 541 -128 543 -122 l 456 -336 q 434 -361 450 -353 q 388 -369 418 -369 q 338 -360 354 -369 q 322 -334 322 -352 q 323 -325 322 -328 l 363 -117 q 371 -104 364 -109 q 387 -99 378 -99 l 527 -99 z "},"u":{"ha":833,"x_min":106,"x_max":718,"o":"m 675 627 q 708 617 698 627 q 718 584 718 607 l 718 43 q 708 10 718 20 q 675 0 698 0 l 611 0 q 578 10 588 0 q 568 43 568 20 l 568 127 q 458 23 521 60 q 324 -15 396 -15 q 208 14 258 -15 q 132 94 159 42 q 106 213 106 145 l 106 584 q 116 617 106 607 q 149 627 125 627 l 233 627 q 266 617 256 627 q 275 584 275 607 l 275 253 q 368 146 275 146 q 453 179 412 146 q 522 267 495 212 q 548 384 548 322 l 548 584 q 558 617 548 607 q 591 627 568 627 l 675 627 z "},"ú":{"ha":833,"x_min":106,"x_max":718,"o":"m 525 972 q 547 979 536 979 q 617 928 578 979 q 644 865 644 892 q 628 836 644 844 l 352 696 q 336 692 345 692 q 290 727 312 692 q 275 770 275 751 q 290 799 275 789 l 525 972 m 675 627 q 708 617 698 627 q 718 584 718 607 l 718 43 q 708 10 718 20 q 675 0 698 0 l 611 0 q 578 10 588 0 q 568 43 568 20 l 568 127 q 458 23 521 60 q 324 -15 396 -15 q 208 14 258 -15 q 132 94 159 42 q 106 213 106 145 l 106 584 q 116 617 106 607 q 149 627 125 627 l 233 627 q 266 617 256 627 q 275 584 275 607 l 275 253 q 368 146 275 146 q 453 179 412 146 q 522 267 495 212 q 548 384 548 322 l 548 584 q 558 617 548 607 q 591 627 568 627 l 675 627 z "},"ŭ":{"ha":833,"x_min":106,"x_max":718,"o":"m 611 941 q 645 925 634 935 q 656 901 656 915 q 655 892 656 895 q 578 756 639 806 q 416 706 517 706 q 255 756 316 706 q 178 892 194 806 q 177 901 177 895 q 188 925 177 915 q 222 941 199 935 q 251 945 238 945 q 280 927 273 945 q 329 864 296 884 q 416 844 361 844 q 504 864 471 844 q 553 927 537 884 q 582 945 560 945 q 611 941 595 945 m 675 627 q 708 617 698 627 q 718 584 718 607 l 718 43 q 708 10 718 20 q 675 0 698 0 l 611 0 q 578 10 588 0 q 568 43 568 20 l 568 127 q 458 23 521 60 q 324 -15 396 -15 q 208 14 258 -15 q 132 94 159 42 q 106 213 106 145 l 106 584 q 116 617 106 607 q 149 627 125 627 l 233 627 q 266 617 256 627 q 275 584 275 607 l 275 253 q 368 146 275 146 q 453 179 412 146 q 522 267 495 212 q 548 384 548 322 l 548 584 q 558 617 548 607 q 591 627 568 627 l 675 627 z "},"û":{"ha":833,"x_min":106,"x_max":718,"o":"m 412 956 q 440 952 429 956 q 460 941 450 949 l 640 788 q 654 760 654 775 q 637 719 654 743 q 597 690 617 690 q 574 697 586 690 l 412 791 l 249 697 q 227 690 237 690 q 186 719 206 690 q 169 760 169 743 q 184 788 169 775 l 363 941 q 384 952 373 949 q 412 956 394 956 m 675 627 q 708 617 698 627 q 718 584 718 607 l 718 43 q 708 10 718 20 q 675 0 698 0 l 611 0 q 578 10 588 0 q 568 43 568 20 l 568 127 q 458 23 521 60 q 324 -15 396 -15 q 208 14 258 -15 q 132 94 159 42 q 106 213 106 145 l 106 584 q 116 617 106 607 q 149 627 125 627 l 233 627 q 266 617 256 627 q 275 584 275 607 l 275 253 q 368 146 275 146 q 453 179 412 146 q 522 267 495 212 q 548 384 548 322 l 548 584 q 558 617 548 607 q 591 627 568 627 l 675 627 z "},"ü":{"ha":833,"x_min":106,"x_max":718,"o":"m 260 924 q 328 915 309 924 q 347 882 347 905 l 347 770 q 329 738 347 747 q 264 728 311 728 q 197 738 216 728 q 178 770 178 747 l 178 882 q 195 915 178 905 q 260 924 213 924 m 559 924 q 626 915 607 924 q 646 882 646 905 l 646 770 q 628 738 646 747 q 562 728 610 728 q 495 738 515 728 q 476 770 476 747 l 476 882 q 494 915 476 905 q 559 924 511 924 m 675 627 q 708 617 698 627 q 718 584 718 607 l 718 43 q 708 10 718 20 q 675 0 698 0 l 611 0 q 578 10 588 0 q 568 43 568 20 l 568 127 q 458 23 521 60 q 324 -15 396 -15 q 208 14 258 -15 q 132 94 159 42 q 106 213 106 145 l 106 584 q 116 617 106 607 q 149 627 125 627 l 233 627 q 266 617 256 627 q 275 584 275 607 l 275 253 q 368 146 275 146 q 453 179 412 146 q 522 267 495 212 q 548 384 548 322 l 548 584 q 558 617 548 607 q 591 627 568 627 l 675 627 z "},"ù":{"ha":833,"x_min":106,"x_max":718,"o":"m 550 799 q 564 770 564 789 q 549 727 564 751 q 503 692 528 692 q 488 696 495 692 l 212 836 q 195 865 195 844 q 222 928 195 892 q 292 979 261 979 q 315 972 304 979 l 550 799 m 675 627 q 708 617 698 627 q 718 584 718 607 l 718 43 q 708 10 718 20 q 675 0 698 0 l 611 0 q 578 10 588 0 q 568 43 568 20 l 568 127 q 458 23 521 60 q 324 -15 396 -15 q 208 14 258 -15 q 132 94 159 42 q 106 213 106 145 l 106 584 q 116 617 106 607 q 149 627 125 627 l 233 627 q 266 617 256 627 q 275 584 275 607 l 275 253 q 368 146 275 146 q 453 179 412 146 q 522 267 495 212 q 548 384 548 322 l 548 584 q 558 617 548 607 q 591 627 568 627 l 675 627 z "},"ű":{"ha":833,"x_min":106,"x_max":771,"o":"m 431 940 q 479 896 479 918 q 470 878 479 886 l 290 715 q 258 704 278 704 q 213 714 239 704 q 186 729 195 721 q 177 747 177 738 q 182 761 177 754 l 332 941 q 370 956 345 956 q 431 940 395 956 m 723 940 q 771 896 771 918 q 762 878 771 886 l 582 715 q 550 704 570 704 q 505 714 531 704 q 478 729 487 721 q 469 747 469 738 q 474 761 469 754 l 624 941 q 662 956 637 956 q 723 940 686 956 m 675 627 q 708 617 698 627 q 718 584 718 607 l 718 43 q 708 10 718 20 q 675 0 698 0 l 611 0 q 578 10 588 0 q 568 43 568 20 l 568 127 q 458 23 521 60 q 324 -15 396 -15 q 208 14 258 -15 q 132 94 159 42 q 106 213 106 145 l 106 584 q 116 617 106 607 q 149 627 125 627 l 233 627 q 266 617 256 627 q 275 584 275 607 l 275 253 q 368 146 275 146 q 453 179 412 146 q 522 267 495 212 q 548 384 548 322 l 548 584 q 558 617 548 607 q 591 627 568 627 l 675 627 z "},"ū":{"ha":833,"x_min":106,"x_max":718,"o":"m 600 865 q 625 859 616 865 q 638 838 634 853 q 643 795 643 823 q 638 751 643 766 q 625 731 634 736 q 600 726 616 726 l 233 726 q 208 731 216 726 q 194 751 199 736 q 190 795 190 766 q 194 838 190 823 q 208 859 199 853 q 233 865 216 865 l 600 865 m 675 627 q 708 617 698 627 q 718 584 718 607 l 718 43 q 708 10 718 20 q 675 0 698 0 l 611 0 q 578 10 588 0 q 568 43 568 20 l 568 127 q 458 23 521 60 q 324 -15 396 -15 q 208 14 258 -15 q 132 94 159 42 q 106 213 106 145 l 106 584 q 116 617 106 607 q 149 627 125 627 l 233 627 q 266 617 256 627 q 275 584 275 607 l 275 253 q 368 146 275 146 q 453 179 412 146 q 522 267 495 212 q 548 384 548 322 l 548 584 q 558 617 548 607 q 591 627 568 627 l 675 627 z "},"ų":{"ha":833,"x_min":106,"x_max":765,"o":"m 675 627 q 708 617 698 627 q 718 584 718 607 l 718 43 q 705 7 718 17 q 589 -143 589 -81 q 649 -189 589 -189 q 730 -180 680 -189 q 765 -245 765 -174 q 758 -280 765 -268 q 738 -297 751 -292 q 591 -320 669 -320 q 468 -285 511 -320 q 425 -182 425 -250 q 462 -78 425 -124 q 568 12 500 -33 l 568 127 q 458 23 521 60 q 324 -15 396 -15 q 208 14 258 -15 q 132 94 159 42 q 106 213 106 145 l 106 584 q 116 617 106 607 q 149 627 125 627 l 233 627 q 266 617 256 627 q 275 584 275 607 l 275 253 q 368 146 275 146 q 453 179 412 146 q 522 267 495 212 q 548 384 548 322 l 548 584 q 558 617 548 607 q 591 627 568 627 l 675 627 z "},"ů":{"ha":833,"x_min":106,"x_max":718,"o":"m 410 1056 q 500 1033 460 1056 q 564 969 541 1010 q 587 878 587 928 q 564 787 587 828 q 500 724 541 747 q 410 701 460 701 q 319 724 359 701 q 255 787 278 747 q 232 878 232 828 q 255 969 232 928 q 319 1033 278 1010 q 410 1056 359 1056 m 410 941 q 364 924 381 941 q 347 878 347 907 q 364 833 347 850 q 410 816 381 816 q 455 833 438 816 q 472 878 472 850 q 455 924 472 907 q 410 941 438 941 m 675 627 q 708 617 698 627 q 718 584 718 607 l 718 43 q 708 10 718 20 q 675 0 698 0 l 611 0 q 578 10 588 0 q 568 43 568 20 l 568 127 q 458 23 521 60 q 324 -15 396 -15 q 208 14 258 -15 q 132 94 159 42 q 106 213 106 145 l 106 584 q 116 617 106 607 q 149 627 125 627 l 233 627 q 266 617 256 627 q 275 584 275 607 l 275 253 q 368 146 275 146 q 453 179 412 146 q 522 267 495 212 q 548 384 548 322 l 548 584 q 558 617 548 607 q 591 627 568 627 l 675 627 z "},"ũ":{"ha":833,"x_min":106,"x_max":718,"o":"m 329 930 q 378 922 356 930 q 431 899 401 913 q 470 881 455 886 q 502 875 486 875 q 589 924 543 875 q 610 933 599 933 q 654 906 629 933 q 679 854 679 879 q 672 831 679 841 q 594 751 637 780 q 504 722 551 722 q 454 730 477 722 q 402 753 432 739 q 362 771 378 766 q 331 777 347 777 q 243 728 290 777 q 223 719 234 719 q 178 746 203 719 q 154 798 154 773 q 161 821 154 811 q 239 901 195 872 q 329 930 282 930 m 675 627 q 708 617 698 627 q 718 584 718 607 l 718 43 q 708 10 718 20 q 675 0 698 0 l 611 0 q 578 10 588 0 q 568 43 568 20 l 568 127 q 458 23 521 60 q 324 -15 396 -15 q 208 14 258 -15 q 132 94 159 42 q 106 213 106 145 l 106 584 q 116 617 106 607 q 149 627 125 627 l 233 627 q 266 617 256 627 q 275 584 275 607 l 275 253 q 368 146 275 146 q 453 179 412 146 q 522 267 495 212 q 548 384 548 322 l 548 584 q 558 617 548 607 q 591 627 568 627 l 675 627 z "},"v":{"ha":833,"x_min":73,"x_max":760,"o":"m 690 628 q 760 580 760 612 q 755 561 760 573 l 518 29 q 485 -5 508 5 q 414 -15 462 -15 q 345 -5 367 -15 q 312 29 322 5 l 77 561 q 73 579 73 570 q 144 628 73 612 q 200 636 179 636 q 231 629 219 636 q 248 608 242 623 l 418 202 l 588 608 q 605 629 593 623 q 635 636 616 636 q 690 628 655 636 z "},"w":{"ha":833,"x_min":33,"x_max":797,"o":"m 728 631 q 781 616 766 626 q 797 588 797 606 q 795 576 797 584 l 688 29 q 666 -5 684 5 q 606 -15 648 -15 q 544 -4 566 -15 q 513 29 523 6 l 414 268 l 313 29 q 281 -4 302 6 q 218 -15 259 -15 q 160 -5 178 -15 q 138 29 142 5 l 34 576 q 33 587 33 584 q 48 616 33 606 q 102 631 64 626 q 137 633 128 633 q 176 625 163 633 q 192 599 189 617 l 251 253 l 349 481 q 372 511 357 501 q 414 520 387 520 q 458 512 444 520 q 480 486 473 504 l 577 253 l 641 599 q 656 625 644 617 q 694 633 669 633 q 728 631 703 633 z "},"ẃ":{"ha":833,"x_min":33,"x_max":797,"o":"m 540 972 q 562 979 551 979 q 632 928 593 979 q 659 865 659 892 q 643 836 659 844 l 367 696 q 351 692 360 692 q 305 727 327 692 q 290 770 290 751 q 304 799 290 789 l 540 972 m 728 631 q 781 616 766 626 q 797 588 797 606 q 795 576 797 584 l 688 29 q 666 -5 684 5 q 606 -15 648 -15 q 544 -4 566 -15 q 513 29 523 6 l 414 268 l 313 29 q 281 -4 302 6 q 218 -15 259 -15 q 160 -5 178 -15 q 138 29 142 5 l 34 576 q 33 587 33 584 q 48 616 33 606 q 102 631 64 626 q 137 633 128 633 q 176 625 163 633 q 192 599 189 617 l 251 253 l 349 481 q 372 511 357 501 q 414 520 387 520 q 458 512 444 520 q 480 486 473 504 l 577 253 l 641 599 q 656 625 644 617 q 694 633 669 633 q 728 631 703 633 z "},"ŵ":{"ha":833,"x_min":33,"x_max":797,"o":"m 416 956 q 445 952 434 956 q 465 941 455 949 l 644 788 q 659 760 659 775 q 642 719 659 743 q 602 690 622 690 q 579 697 591 690 l 416 791 l 254 697 q 231 690 242 690 q 191 719 211 690 q 174 760 174 743 q 189 788 174 775 l 368 941 q 388 952 378 949 q 416 956 399 956 m 728 631 q 781 616 766 626 q 797 588 797 606 q 795 576 797 584 l 688 29 q 666 -5 684 5 q 606 -15 648 -15 q 544 -4 566 -15 q 513 29 523 6 l 414 268 l 313 29 q 281 -4 302 6 q 218 -15 259 -15 q 160 -5 178 -15 q 138 29 142 5 l 34 576 q 33 587 33 584 q 48 616 33 606 q 102 631 64 626 q 137 633 128 633 q 176 625 163 633 q 192 599 189 617 l 251 253 l 349 481 q 372 511 357 501 q 414 520 387 520 q 458 512 444 520 q 480 486 473 504 l 577 253 l 641 599 q 656 625 644 617 q 694 633 669 633 q 728 631 703 633 z "},"ẅ":{"ha":833,"x_min":33,"x_max":797,"o":"m 265 924 q 333 915 313 924 q 352 882 352 905 l 352 770 q 334 738 352 747 q 269 728 316 728 q 202 738 221 728 q 182 770 182 747 l 182 882 q 200 915 182 905 q 265 924 218 924 m 564 924 q 631 915 612 924 q 650 882 650 905 l 650 770 q 632 738 650 747 q 567 728 614 728 q 500 738 519 728 q 481 770 481 747 l 481 882 q 498 915 481 905 q 564 924 516 924 m 728 631 q 781 616 766 626 q 797 588 797 606 q 795 576 797 584 l 688 29 q 666 -5 684 5 q 606 -15 648 -15 q 544 -4 566 -15 q 513 29 523 6 l 414 268 l 313 29 q 281 -4 302 6 q 218 -15 259 -15 q 160 -5 178 -15 q 138 29 142 5 l 34 576 q 33 587 33 584 q 48 616 33 606 q 102 631 64 626 q 137 633 128 633 q 176 625 163 633 q 192 599 189 617 l 251 253 l 349 481 q 372 511 357 501 q 414 520 387 520 q 458 512 444 520 q 480 486 473 504 l 577 253 l 641 599 q 656 625 644 617 q 694 633 669 633 q 728 631 703 633 z "},"ẁ":{"ha":833,"x_min":33,"x_max":797,"o":"m 528 799 q 543 770 543 789 q 528 727 543 751 q 481 692 506 692 q 466 696 473 692 l 190 836 q 174 865 174 844 q 201 928 174 892 q 271 979 239 979 q 293 972 282 979 l 528 799 m 728 631 q 781 616 766 626 q 797 588 797 606 q 795 576 797 584 l 688 29 q 666 -5 684 5 q 606 -15 648 -15 q 544 -4 566 -15 q 513 29 523 6 l 414 268 l 313 29 q 281 -4 302 6 q 218 -15 259 -15 q 160 -5 178 -15 q 138 29 142 5 l 34 576 q 33 587 33 584 q 48 616 33 606 q 102 631 64 626 q 137 633 128 633 q 176 625 163 633 q 192 599 189 617 l 251 253 l 349 481 q 372 511 357 501 q 414 520 387 520 q 458 512 444 520 q 480 486 473 504 l 577 253 l 641 599 q 656 625 644 617 q 694 633 669 633 q 728 631 703 633 z "},"x":{"ha":833,"x_min":96,"x_max":736,"o":"m 721 110 q 736 77 736 92 q 724 48 736 62 q 684 16 711 33 q 618 -9 643 -9 q 580 9 597 -9 l 416 201 l 253 9 q 215 -9 236 -9 q 149 16 190 -9 q 109 48 122 33 q 96 77 96 62 q 112 110 96 92 l 298 317 l 119 517 q 103 550 103 534 q 116 579 103 564 q 155 610 129 593 q 222 636 197 636 q 260 617 243 636 l 416 433 l 573 617 q 611 636 590 636 q 677 610 636 636 q 717 579 704 593 q 730 550 730 564 q 714 517 730 534 l 535 317 l 721 110 z "},"y":{"ha":833,"x_min":73,"x_max":760,"o":"m 690 628 q 760 580 760 612 q 755 561 760 573 l 391 -248 q 347 -275 379 -275 q 286 -263 326 -275 q 234 -240 250 -252 q 217 -212 217 -228 q 222 -193 217 -204 l 323 4 l 77 561 q 73 579 73 570 q 144 628 73 612 q 200 636 179 636 q 231 629 219 636 q 248 608 242 623 l 418 202 l 588 608 q 605 629 593 623 q 635 636 616 636 q 690 628 655 636 z "},"ý":{"ha":833,"x_min":73,"x_max":760,"o":"m 376 696 q 360 692 369 692 q 314 727 336 692 q 299 770 299 751 q 313 799 299 789 l 549 972 q 571 979 559 979 q 641 928 602 979 q 668 865 668 892 q 652 836 668 844 l 376 696 m 690 628 q 760 580 760 612 q 755 561 760 573 l 391 -248 q 347 -275 379 -275 q 286 -263 326 -275 q 234 -240 250 -252 q 217 -212 217 -228 q 222 -193 217 -204 l 323 4 l 77 561 q 73 579 73 570 q 144 628 73 612 q 200 636 179 636 q 231 629 219 636 q 248 608 242 623 l 418 202 l 588 608 q 605 629 593 623 q 635 636 616 636 q 690 628 655 636 z "},"ŷ":{"ha":833,"x_min":73,"x_max":760,"o":"m 258 697 q 235 690 246 690 q 195 719 215 690 q 178 760 178 743 q 193 788 178 775 l 372 941 q 392 952 382 949 q 420 956 403 956 q 449 952 438 956 q 469 941 459 949 l 648 788 q 663 760 663 775 q 646 719 663 743 q 606 690 626 690 q 583 697 595 690 l 420 791 l 258 697 m 690 628 q 760 580 760 612 q 755 561 760 573 l 391 -248 q 347 -275 379 -275 q 286 -263 326 -275 q 234 -240 250 -252 q 217 -212 217 -228 q 222 -193 217 -204 l 323 4 l 77 561 q 73 579 73 570 q 144 628 73 612 q 200 636 179 636 q 231 629 219 636 q 248 608 242 623 l 418 202 l 588 608 q 605 629 593 623 q 635 636 616 636 q 690 628 655 636 z "},"ÿ":{"ha":833,"x_min":73,"x_max":760,"o":"m 272 728 q 205 738 224 728 q 186 770 186 747 l 186 882 q 203 915 186 905 q 269 924 221 924 q 336 915 317 924 q 355 882 355 905 l 355 770 q 337 738 355 747 q 272 728 319 728 m 570 728 q 504 738 523 728 q 484 770 484 747 l 484 882 q 502 915 484 905 q 567 924 519 924 q 634 915 615 924 q 654 882 654 905 l 654 770 q 636 738 654 747 q 570 728 618 728 m 690 628 q 760 580 760 612 q 755 561 760 573 l 391 -248 q 347 -275 379 -275 q 286 -263 326 -275 q 234 -240 250 -252 q 217 -212 217 -228 q 222 -193 217 -204 l 323 4 l 77 561 q 73 579 73 570 q 144 628 73 612 q 200 636 179 636 q 231 629 219 636 q 248 608 242 623 l 418 202 l 588 608 q 605 629 593 623 q 635 636 616 636 q 690 628 655 636 z "},"ỳ":{"ha":833,"x_min":73,"x_max":760,"o":"m 197 836 q 180 865 180 844 q 208 928 180 892 q 277 979 246 979 q 300 972 289 979 l 535 799 q 549 770 549 789 q 534 727 549 751 q 488 692 513 692 q 473 696 479 692 l 197 836 m 690 628 q 760 580 760 612 q 755 561 760 573 l 391 -248 q 347 -275 379 -275 q 286 -263 326 -275 q 234 -240 250 -252 q 217 -212 217 -228 q 222 -193 217 -204 l 323 4 l 77 561 q 73 579 73 570 q 144 628 73 612 q 200 636 179 636 q 231 629 219 636 q 248 608 242 623 l 418 202 l 588 608 q 605 629 593 623 q 635 636 616 636 q 690 628 655 636 z "},"z":{"ha":833,"x_min":94,"x_max":739,"o":"m 696 153 q 730 137 720 153 q 739 77 739 121 q 730 16 739 32 q 696 0 720 0 l 136 0 q 111 5 120 0 q 98 26 102 11 q 94 69 94 41 q 98 100 94 87 q 115 125 103 112 l 456 474 l 143 474 q 110 490 119 474 q 100 550 100 505 q 110 611 100 595 q 143 627 119 627 l 690 627 q 715 621 706 627 q 728 601 724 616 q 732 557 732 586 q 728 527 732 539 q 711 502 723 515 l 370 153 l 696 153 z "},"ź":{"ha":833,"x_min":94,"x_max":739,"o":"m 345 696 q 330 692 338 692 q 283 727 305 692 q 269 770 269 751 q 283 799 269 789 l 518 972 q 541 979 529 979 q 610 928 572 979 q 637 865 637 892 q 621 836 637 844 l 345 696 m 696 153 q 730 137 720 153 q 739 77 739 121 q 730 16 739 32 q 696 0 720 0 l 136 0 q 111 5 120 0 q 98 26 102 11 q 94 69 94 41 q 98 100 94 87 q 115 125 103 112 l 456 474 l 143 474 q 110 490 119 474 q 100 550 100 505 q 110 611 100 595 q 143 627 119 627 l 690 627 q 715 621 706 627 q 728 601 724 616 q 732 557 732 586 q 728 527 732 539 q 711 502 723 515 l 370 153 l 696 153 z "},"ž":{"ha":833,"x_min":94,"x_max":739,"o":"m 195 865 q 180 893 180 878 q 197 934 180 910 q 238 963 218 963 q 260 956 249 963 l 423 862 l 586 956 q 608 963 597 963 q 649 934 629 963 q 666 893 666 910 q 651 865 666 878 l 471 712 q 451 700 462 704 q 423 696 441 696 q 395 700 406 696 q 375 712 385 704 l 195 865 m 696 153 q 730 137 720 153 q 739 77 739 121 q 730 16 739 32 q 696 0 720 0 l 136 0 q 111 5 120 0 q 98 26 102 11 q 94 69 94 41 q 98 100 94 87 q 115 125 103 112 l 456 474 l 143 474 q 110 490 119 474 q 100 550 100 505 q 110 611 100 595 q 143 627 119 627 l 690 627 q 715 621 706 627 q 728 601 724 616 q 732 557 732 586 q 728 527 732 539 q 711 502 723 515 l 370 153 l 696 153 z "},"ż":{"ha":833,"x_min":94,"x_max":739,"o":"m 425 728 q 358 738 377 728 q 338 770 338 747 l 338 882 q 356 915 338 905 q 421 924 374 924 q 489 915 469 924 q 508 882 508 905 l 508 770 q 490 738 508 747 q 425 728 472 728 m 696 153 q 730 137 720 153 q 739 77 739 121 q 730 16 739 32 q 696 0 720 0 l 136 0 q 111 5 120 0 q 98 26 102 11 q 94 69 94 41 q 98 100 94 87 q 115 125 103 112 l 456 474 l 143 474 q 110 490 119 474 q 100 550 100 505 q 110 611 100 595 q 143 627 119 627 l 690 627 q 715 621 706 627 q 728 601 724 616 q 732 557 732 586 q 728 527 732 539 q 711 502 723 515 l 370 153 l 696 153 z "},"ﬁ":{"ha":1666,"x_min":113,"x_max":1577,"o":"m 1260 728 q 1193 738 1213 728 q 1174 770 1174 747 l 1174 882 q 1192 915 1174 905 q 1257 924 1209 924 q 1324 915 1305 924 q 1343 882 1343 905 l 1343 770 q 1325 738 1343 747 q 1260 728 1308 728 m 728 854 q 753 837 745 848 q 762 806 762 825 q 755 762 762 787 q 733 717 746 731 q 705 703 721 703 q 688 706 696 703 q 537 732 602 732 q 472 707 494 732 q 450 627 450 682 l 450 586 l 661 586 q 694 570 684 586 q 703 509 703 554 q 694 449 703 465 q 661 433 684 433 l 450 433 l 450 43 q 440 10 450 20 q 407 0 430 0 l 323 0 q 290 10 300 0 q 280 43 280 20 l 280 433 l 156 433 q 123 449 132 433 q 113 509 113 465 q 123 570 113 554 q 156 586 132 586 l 280 586 l 280 635 q 342 827 280 762 q 522 893 404 893 q 728 854 625 893 m 1534 153 q 1567 137 1558 153 q 1577 76 1577 121 q 1567 16 1577 31 q 1534 0 1558 0 l 989 0 q 956 16 965 0 q 946 76 946 31 q 956 137 946 121 q 989 153 965 153 l 1174 153 l 1174 474 l 1029 474 q 996 490 1006 474 q 987 550 987 505 q 996 611 987 595 q 1029 627 1006 627 l 1301 627 q 1334 617 1324 627 q 1343 584 1343 607 l 1343 153 l 1534 153 z "},"ﬂ":{"ha":1666,"x_min":113,"x_max":1570,"o":"m 728 854 q 753 837 745 848 q 762 806 762 825 q 755 762 762 787 q 733 717 746 731 q 705 703 721 703 q 688 706 696 703 q 537 732 602 732 q 472 707 494 732 q 450 627 450 682 l 450 586 l 661 586 q 694 570 684 586 q 703 509 703 554 q 694 449 703 465 q 661 433 684 433 l 450 433 l 450 43 q 440 10 450 20 q 407 0 430 0 l 323 0 q 290 10 300 0 q 280 43 280 20 l 280 433 l 156 433 q 123 449 132 433 q 113 509 113 465 q 123 570 113 554 q 156 586 132 586 l 280 586 l 280 635 q 342 827 280 762 q 522 893 404 893 q 728 854 625 893 m 1527 153 q 1560 137 1551 153 q 1570 76 1570 121 q 1560 16 1570 31 q 1527 0 1551 0 l 982 0 q 949 16 958 0 q 939 76 939 31 q 949 137 939 121 q 982 153 958 153 l 1167 153 l 1167 737 l 1009 737 q 976 753 985 737 q 966 813 966 768 q 976 874 966 858 q 1009 890 985 890 l 1294 890 q 1327 880 1317 890 q 1337 847 1337 870 l 1337 153 l 1527 153 z "},"ª":{"ha":833,"x_min":168,"x_max":640,"o":"m 423 820 q 589 770 538 820 q 640 629 640 721 l 640 360 q 632 335 640 342 q 607 327 625 327 l 557 327 q 531 335 539 327 q 524 360 524 342 l 524 377 q 355 315 443 315 q 217 360 267 315 q 168 481 168 404 q 219 594 168 553 q 362 634 270 634 q 509 618 429 634 l 509 633 q 486 685 509 667 q 408 702 463 702 q 267 674 352 702 q 252 671 260 671 q 228 683 238 671 q 210 719 218 694 q 203 751 203 738 q 227 784 203 775 q 327 811 274 802 q 423 820 379 820 m 375 526 q 319 513 338 526 q 300 475 300 500 q 319 438 300 451 q 372 425 338 425 q 444 440 408 425 q 509 479 479 454 l 509 513 q 375 526 441 526 z "},"º":{"ha":833,"x_min":153,"x_max":680,"o":"m 416 820 q 555 787 496 820 q 647 697 615 755 q 680 568 680 640 q 647 438 680 495 q 555 348 615 380 q 416 315 496 315 q 278 348 338 315 q 186 438 218 380 q 153 568 153 495 q 186 697 153 640 q 278 787 218 755 q 416 820 338 820 m 416 696 q 325 662 359 696 q 290 568 290 628 q 325 473 290 507 q 416 439 359 439 q 508 473 474 439 q 543 568 543 507 q 508 662 543 628 q 416 696 474 696 z "},"Δ":{"ha":833,"x_min":98,"x_max":734,"o":"m 418 820 q 489 810 465 820 q 520 776 513 800 l 730 115 q 734 69 734 100 q 730 26 734 41 q 717 5 726 11 q 692 0 708 0 l 141 0 q 116 5 125 0 q 103 26 107 11 q 98 69 98 41 q 103 115 98 100 l 315 776 q 347 810 323 800 q 418 820 370 820 m 416 578 l 290 153 l 543 153 l 419 578 l 416 578 z "},"Ω":{"ha":833,"x_min":30,"x_max":803,"o":"m 416 820 q 612 773 528 820 q 744 641 697 727 q 790 437 790 554 q 755 282 790 352 q 656 159 721 212 l 760 159 q 785 153 777 159 q 799 129 794 146 q 803 79 803 111 q 799 30 803 47 q 785 6 794 13 q 760 0 777 0 l 509 0 q 484 8 493 0 q 471 39 475 17 q 467 104 467 62 q 470 155 467 139 q 486 179 474 172 q 579 285 550 222 q 608 437 608 348 q 559 607 608 548 q 416 666 511 666 q 273 607 322 666 q 224 437 224 548 q 254 285 224 348 q 347 179 283 222 q 362 155 359 172 q 366 104 366 139 q 362 39 366 62 q 349 8 357 17 q 323 0 340 0 l 73 0 q 47 6 56 0 q 34 30 39 13 q 30 79 30 47 q 34 129 30 111 q 47 153 39 146 q 73 159 56 159 l 176 159 q 77 282 112 212 q 43 437 43 352 q 89 641 43 554 q 220 773 136 727 q 416 820 305 820 z "},"μ":{"ha":833,"x_min":125,"x_max":716,"o":"m 673 627 q 706 617 696 627 q 716 584 716 607 l 716 43 q 706 10 716 20 q 673 0 696 0 l 610 0 q 577 10 587 0 q 567 43 567 20 l 567 114 q 466 19 524 54 q 343 -15 409 -15 q 294 -8 320 -15 l 294 -220 q 284 -253 294 -243 q 252 -263 275 -263 l 168 -263 q 135 -253 144 -263 q 125 -220 125 -243 l 125 584 q 135 617 125 607 q 168 627 144 627 l 252 627 q 284 617 275 627 q 294 584 294 607 l 294 253 q 387 146 294 146 q 463 173 426 146 q 523 246 500 200 q 547 343 547 292 l 547 584 q 556 617 547 607 q 589 627 566 627 l 673 627 z "},"π":{"ha":833,"x_min":47,"x_max":785,"o":"m 743 627 q 776 611 766 627 q 785 550 785 595 q 776 490 785 505 q 743 474 766 474 l 686 474 l 686 43 q 676 10 686 20 q 644 0 667 0 l 559 0 q 527 10 536 0 q 517 43 517 20 l 517 474 l 316 474 l 316 43 q 306 10 316 20 q 273 0 296 0 l 189 0 q 156 10 166 0 q 146 43 146 20 l 146 474 l 90 474 q 57 490 66 474 q 47 550 47 505 q 57 611 47 595 q 90 627 66 627 l 743 627 z "},"⁄":{"ha":833,"x_min":58,"x_max":774,"o":"m 707 576 q 720 580 715 580 q 758 549 739 580 q 774 510 774 525 q 761 489 774 497 l 125 136 q 112 132 117 132 q 74 163 94 132 q 58 202 58 187 q 71 223 58 215 l 707 576 z "},"½":{"ha":833,"x_min":-13,"x_max":840,"o":"m 370 512 q 363 475 370 487 q 341 464 357 464 l 22 464 q -1 475 5 464 q -7 512 -7 486 q -1 549 -7 537 q 22 560 6 560 l 128 560 l 128 809 l 50 768 q 32 764 41 764 q -4 797 12 764 q -13 829 -13 814 q 5 857 -13 848 l 180 941 q 201 945 189 945 q 227 936 216 945 q 238 911 238 927 l 238 560 l 341 560 q 363 549 356 560 q 370 512 370 537 m 758 576 q 774 537 774 552 q 761 516 774 524 l 125 163 q 112 159 117 159 q 74 190 94 159 q 58 229 58 214 q 71 250 58 242 l 707 604 q 720 607 715 607 q 758 576 739 607 m 812 -50 q 833 -60 827 -50 q 840 -98 840 -71 q 833 -137 840 -127 q 812 -146 827 -146 l 477 -146 q 447 -90 447 -146 q 463 -47 447 -59 l 648 96 q 695 139 680 120 q 709 178 709 157 q 692 221 709 205 q 643 237 674 237 q 516 203 591 237 q 503 200 511 200 q 469 237 481 200 q 463 264 463 251 q 484 298 463 286 q 565 325 522 315 q 652 335 608 335 q 779 294 734 335 q 823 184 823 252 q 797 104 823 140 q 718 31 770 68 l 606 -50 l 812 -50 z "},"¼":{"ha":833,"x_min":-13,"x_max":851,"o":"m 370 512 q 363 475 370 487 q 341 464 357 464 l 22 464 q -1 475 5 464 q -7 512 -7 486 q -1 549 -7 537 q 22 560 6 560 l 128 560 l 128 809 l 50 768 q 32 764 41 764 q -4 797 12 764 q -13 829 -13 814 q 5 857 -13 848 l 180 941 q 201 945 189 945 q 227 936 216 945 q 238 911 238 927 l 238 560 l 341 560 q 363 549 356 560 q 370 512 370 537 m 758 543 q 774 503 774 518 q 761 482 774 490 l 125 129 q 112 125 117 125 q 74 156 94 125 q 58 195 58 180 q 71 216 58 208 l 707 570 q 720 573 715 573 q 758 543 739 573 m 821 54 q 844 42 837 54 q 851 5 851 31 q 844 -32 851 -20 q 821 -43 837 -43 l 770 -43 l 770 -125 q 759 -145 770 -139 q 720 -152 749 -152 q 672 -145 687 -152 q 658 -125 658 -138 l 658 -43 l 458 -43 q 434 -21 446 -43 q 422 26 422 1 q 424 42 422 36 q 431 56 426 49 l 644 316 q 669 335 654 329 q 708 341 684 341 q 754 332 739 341 q 770 309 770 323 l 770 54 l 821 54 m 658 54 l 661 191 l 554 54 l 658 54 z "},"¾":{"ha":833,"x_min":-7,"x_max":851,"o":"m 375 597 q 323 490 375 526 q 176 454 271 454 q 89 462 134 454 q 12 484 44 471 q -7 515 -7 493 q -1 543 -7 527 q 14 572 5 562 q 33 582 23 582 q 39 581 35 582 q 106 559 71 568 q 171 551 141 551 q 255 600 255 551 q 239 639 255 626 q 194 652 224 652 l 125 652 q 104 664 111 652 q 97 701 97 675 q 104 738 97 727 q 125 749 111 749 l 183 749 q 254 798 254 749 q 234 834 254 821 q 178 847 215 847 q 47 817 120 847 q 35 814 39 814 q 1 853 13 814 q -3 878 -3 867 q 20 913 -3 903 q 186 945 97 945 q 321 908 274 945 q 368 804 368 870 q 299 703 368 736 q 355 663 335 690 q 375 597 375 635 m 758 549 q 774 510 774 525 q 761 489 774 497 l 125 136 q 112 132 117 132 q 74 163 94 132 q 58 202 58 187 q 71 223 58 215 l 707 576 q 720 580 715 580 q 758 549 739 580 m 821 54 q 844 42 837 54 q 851 5 851 31 q 844 -32 851 -20 q 821 -43 837 -43 l 770 -43 l 770 -125 q 759 -145 770 -139 q 720 -152 749 -152 q 672 -145 687 -152 q 658 -125 658 -138 l 658 -43 l 458 -43 q 434 -21 446 -43 q 422 26 422 1 q 424 42 422 36 q 431 56 426 49 l 644 316 q 669 335 654 329 q 708 341 684 341 q 754 332 739 341 q 770 309 770 323 l 770 54 l 821 54 m 658 54 l 661 191 l 554 54 l 658 54 z "},"¹":{"ha":833,"x_min":199,"x_max":658,"o":"m 623 443 q 650 429 642 443 q 658 385 658 416 q 650 341 658 355 q 623 328 642 328 l 240 328 q 213 341 221 328 q 205 385 205 354 q 214 429 205 416 q 240 443 222 443 l 368 443 l 368 742 l 273 693 q 252 687 262 687 q 210 727 228 687 q 199 766 199 751 q 221 799 199 788 l 430 899 q 455 905 442 905 q 487 894 473 905 q 500 865 500 884 l 500 443 l 623 443 z "},"²":{"ha":833,"x_min":189,"x_max":660,"o":"m 435 905 q 547 882 500 905 q 616 819 593 859 q 640 724 640 778 q 608 628 640 671 q 514 540 576 585 l 380 443 l 627 443 q 652 431 645 443 q 660 385 660 418 q 652 340 660 352 q 627 328 645 328 l 225 328 q 199 344 208 328 q 189 395 189 361 q 208 447 189 433 l 430 618 q 486 670 468 647 q 503 718 503 692 q 482 769 503 750 q 424 787 461 787 q 272 747 361 787 q 256 743 264 743 q 215 787 231 743 q 208 821 208 806 q 233 860 208 848 q 330 893 279 882 q 435 905 382 905 z "},"³":{"ha":833,"x_min":190,"x_max":647,"o":"m 422 905 q 583 860 526 905 q 639 735 639 815 q 556 615 639 655 q 623 566 600 599 q 647 487 647 534 q 585 359 647 402 q 409 315 523 315 q 305 326 359 315 q 213 352 252 336 q 190 389 190 361 q 197 422 190 404 q 216 457 205 446 q 237 469 227 469 q 245 468 243 469 q 325 443 283 452 q 403 433 366 433 q 503 491 503 433 q 485 537 503 522 q 431 553 466 553 l 347 553 q 323 567 331 553 q 315 612 315 581 q 323 656 315 643 q 347 670 331 670 l 418 670 q 502 728 502 670 q 479 772 502 756 q 412 787 456 787 q 337 778 377 787 q 255 751 296 769 q 241 748 247 748 q 200 795 214 748 q 195 825 195 812 q 222 867 195 856 q 422 905 314 905 z "},"⁴":{"ha":833,"x_min":156,"x_max":663,"o":"m 628 565 q 654 551 646 565 q 663 508 663 538 q 654 465 663 478 q 628 451 646 451 l 567 451 l 567 355 q 554 330 567 338 q 508 322 542 322 q 452 330 469 322 q 435 355 435 338 l 435 451 l 199 451 q 179 463 189 451 q 162 495 169 475 q 156 532 156 514 q 159 552 156 544 q 168 568 161 560 l 419 876 q 448 898 431 890 q 494 905 466 905 q 548 895 530 905 q 567 867 567 884 l 567 565 l 628 565 m 435 565 l 439 727 l 313 565 l 435 565 z "},"*":{"ha":833,"x_min":128,"x_max":705,"o":"m 699 614 q 705 582 705 599 q 685 533 705 552 q 633 511 665 513 l 492 498 l 600 405 q 622 377 614 392 q 629 346 629 361 q 592 281 629 309 q 540 262 566 262 q 500 276 518 262 q 473 312 482 289 l 416 443 l 360 312 q 333 276 351 289 q 293 262 315 262 q 241 281 267 262 q 203 346 203 309 q 211 377 203 361 q 233 405 219 392 l 340 498 l 199 511 q 148 533 168 513 q 128 582 128 552 q 134 614 128 599 q 162 659 143 644 q 203 673 180 673 q 248 660 227 673 l 370 587 l 338 725 q 335 747 335 735 q 356 799 335 779 q 416 820 378 820 q 476 799 455 820 q 498 747 498 779 q 495 725 498 735 l 463 587 l 585 660 q 629 673 606 673 q 671 659 652 673 q 699 614 690 644 z "},"\\":{"ha":833,"x_min":108,"x_max":725,"o":"m 215 949 q 271 920 258 949 l 722 -178 q 725 -191 725 -184 q 694 -229 725 -214 q 618 -244 663 -244 q 562 -215 574 -244 l 111 882 q 108 896 108 888 q 139 934 108 919 q 215 949 170 949 z "},"·":{"ha":833,"x_min":304,"x_max":528,"o":"m 416 522 q 502 512 475 522 q 528 479 528 503 l 528 307 q 502 274 528 284 q 416 264 475 264 q 331 274 357 264 q 304 307 304 284 l 304 479 q 331 512 304 503 q 416 522 357 522 z "},"•":{"ha":833,"x_min":243,"x_max":589,"o":"m 416 582 q 549 565 508 582 q 589 509 589 548 l 589 283 q 549 227 589 244 q 416 210 508 210 q 284 227 325 210 q 243 283 243 244 l 243 509 q 284 565 243 548 q 416 582 325 582 z "},":":{"ha":833,"x_min":304,"x_max":528,"o":"m 416 633 q 502 624 475 633 q 528 591 528 614 l 528 446 q 502 413 528 422 q 416 403 475 403 q 331 413 357 403 q 304 446 304 422 l 304 591 q 331 624 304 614 q 416 633 357 633 m 416 224 q 502 214 475 224 q 528 181 528 204 l 528 36 q 502 3 528 13 q 416 -7 475 -7 q 331 3 357 -7 q 304 36 304 13 l 304 181 q 331 214 304 204 q 416 224 357 224 z "},",":{"ha":833,"x_min":239,"x_max":532,"o":"m 508 240 q 526 234 519 240 q 532 218 532 228 q 527 197 532 208 l 366 -167 q 294 -199 353 -199 q 254 -190 269 -199 q 239 -163 239 -180 q 240 -155 239 -157 l 308 213 q 320 233 311 226 q 343 240 329 240 l 508 240 z "},"…":{"ha":833,"x_min":60,"x_max":772,"o":"m 145 197 q 210 187 190 197 q 230 154 230 177 l 230 36 q 210 3 230 13 q 145 -7 190 -7 q 80 3 100 -7 q 60 36 60 13 l 60 154 q 80 187 60 177 q 145 197 100 197 m 416 197 q 481 187 461 197 q 501 154 501 177 l 501 36 q 481 3 501 13 q 416 -7 461 -7 q 352 3 372 -7 q 332 36 332 13 l 332 154 q 352 187 332 177 q 416 197 372 197 m 688 197 q 752 187 732 197 q 772 154 772 177 l 772 36 q 752 3 772 13 q 688 -7 732 -7 q 623 3 643 -7 q 603 36 603 13 l 603 154 q 623 187 603 177 q 688 197 643 197 z "},"!":{"ha":833,"x_min":309,"x_max":524,"o":"m 494 861 q 517 852 510 861 q 522 827 524 844 l 484 381 q 416 342 480 342 q 349 381 353 342 l 311 827 q 316 852 309 844 q 338 861 323 861 l 494 861 m 416 224 q 497 214 472 224 q 522 181 522 204 l 522 36 q 497 3 522 13 q 416 -7 472 -7 q 336 3 361 -7 q 311 36 311 13 l 311 181 q 336 214 311 204 q 416 224 361 224 z "},"¡":{"ha":833,"x_min":309,"x_max":524,"o":"m 416 403 q 336 413 361 403 q 311 446 311 422 l 311 591 q 336 624 311 614 q 416 633 361 633 q 497 624 472 633 q 522 591 522 614 l 522 446 q 497 413 522 422 q 416 403 472 403 m 338 -234 q 316 -226 323 -234 q 311 -200 309 -218 l 349 245 q 416 285 353 285 q 484 245 480 285 l 522 -200 q 517 -226 524 -218 q 494 -234 510 -234 l 338 -234 z "},"#":{"ha":833,"x_min":34,"x_max":799,"o":"m 756 637 q 781 631 772 637 q 794 609 790 625 q 799 561 799 593 q 794 513 799 529 q 781 491 790 496 q 756 485 772 485 l 650 485 l 609 327 l 695 327 q 720 321 711 327 q 733 298 729 315 q 738 250 738 282 q 733 202 738 218 q 720 180 729 186 q 695 174 711 174 l 570 174 l 526 7 q 509 -9 524 -3 q 474 -15 494 -15 q 419 -4 444 -15 q 394 24 394 7 q 395 31 394 28 l 432 174 l 282 174 l 239 7 q 221 -9 236 -3 q 186 -15 207 -15 q 131 -4 156 -15 q 106 24 106 7 q 107 31 106 28 l 144 174 l 77 174 q 52 180 60 174 q 38 202 43 186 q 34 250 34 218 q 38 298 34 282 q 52 321 43 315 q 77 327 60 327 l 184 327 l 225 485 l 138 485 q 113 491 121 485 q 99 513 104 496 q 95 561 95 529 q 99 609 95 593 q 113 631 104 625 q 138 637 121 637 l 265 637 l 307 798 q 324 814 309 808 q 359 820 338 820 q 414 809 389 820 q 439 781 439 798 q 438 774 439 777 l 402 637 l 553 637 l 594 798 q 611 814 597 808 q 646 820 626 820 q 702 809 677 820 q 726 781 726 798 q 726 774 726 777 l 690 637 l 756 637 m 513 485 l 363 485 l 321 327 l 472 327 l 513 485 z "},".":{"ha":833,"x_min":304,"x_max":528,"o":"m 416 251 q 502 241 475 251 q 528 208 528 231 l 528 36 q 502 3 528 13 q 416 -7 475 -7 q 331 3 357 -7 q 304 36 304 13 l 304 208 q 331 241 304 231 q 416 251 357 251 z "},"?":{"ha":833,"x_min":180,"x_max":677,"o":"m 407 861 q 607 797 538 861 q 677 620 677 733 q 626 472 677 526 q 469 389 574 418 l 465 330 q 448 306 463 313 q 396 298 433 298 q 344 306 359 298 q 328 330 329 313 l 319 472 q 340 507 318 502 l 410 520 q 483 553 459 530 q 507 617 507 576 q 479 684 507 661 q 399 707 452 707 q 255 675 332 707 q 241 673 249 673 q 216 686 228 673 q 193 728 204 699 q 180 777 180 758 q 206 817 180 805 q 304 849 252 837 q 407 861 357 861 m 396 197 q 471 187 448 197 q 494 154 494 177 l 494 36 q 471 3 494 13 q 396 -7 448 -7 q 321 3 344 -7 q 298 36 298 13 l 298 154 q 321 187 298 177 q 396 197 344 197 z "},"¿":{"ha":833,"x_min":156,"x_max":652,"o":"m 437 430 q 361 440 385 430 q 338 473 338 450 l 338 591 q 361 624 338 614 q 437 633 385 633 q 512 624 489 633 q 535 591 535 614 l 535 473 q 512 440 535 450 q 437 430 489 430 m 426 -234 q 225 -170 295 -234 q 156 7 156 -106 q 207 155 156 101 q 364 238 258 209 l 368 296 q 385 321 370 313 q 437 329 399 329 q 489 321 474 329 q 505 296 504 313 l 513 155 q 492 120 515 125 l 422 106 q 350 74 374 97 q 326 9 326 50 q 354 -57 326 -35 q 434 -80 381 -80 q 578 -49 501 -80 q 591 -46 584 -46 q 617 -59 605 -46 q 640 -101 629 -72 q 652 -151 652 -132 q 627 -190 652 -178 q 529 -222 581 -210 q 426 -234 476 -234 z "},"\"":{"ha":833,"x_min":122,"x_max":707,"o":"m 313 861 q 341 834 341 861 l 340 827 l 303 501 q 284 467 300 479 q 233 455 268 455 q 182 467 199 455 q 163 501 166 479 l 126 827 q 154 861 122 861 l 313 861 m 679 861 q 707 834 707 861 l 707 827 l 669 501 q 650 467 667 479 q 600 455 634 455 q 549 467 565 455 q 530 501 532 479 l 492 827 q 520 861 488 861 l 679 861 z "},"'":{"ha":833,"x_min":305,"x_max":524,"o":"m 496 861 q 524 834 524 861 l 524 827 l 486 501 q 467 467 484 479 q 416 455 451 455 q 366 467 382 455 q 347 501 349 479 l 309 827 q 337 861 305 861 l 496 861 z "},";":{"ha":833,"x_min":253,"x_max":545,"o":"m 416 633 q 502 624 475 633 q 528 591 528 614 l 528 446 q 502 413 528 422 q 416 403 475 403 q 331 413 357 403 q 304 446 304 422 l 304 591 q 331 624 304 614 q 416 633 357 633 m 522 240 q 539 234 533 240 q 545 218 545 228 q 541 197 545 208 l 380 -167 q 308 -199 366 -199 q 268 -190 282 -199 q 253 -163 253 -180 q 254 -155 253 -157 l 321 213 q 333 233 324 226 q 357 240 342 240 l 522 240 z "},"/":{"ha":833,"x_min":108,"x_max":725,"o":"m 618 949 q 694 934 663 949 q 725 896 725 919 q 722 882 725 888 l 271 -215 q 215 -244 258 -244 q 139 -229 170 -244 q 108 -191 108 -214 q 111 -178 108 -184 l 562 920 q 618 949 574 949 z "},"_":{"ha":833,"x_min":-26,"x_max":859,"o":"m -3 -348 q -17 -342 -12 -348 q -24 -320 -22 -336 q -26 -272 -26 -304 q -24 -223 -26 -239 q -17 -201 -22 -207 q -3 -195 -12 -195 l 836 -195 q 850 -201 845 -195 q 857 -223 854 -207 q 859 -272 859 -239 q 857 -320 859 -304 q 850 -342 854 -336 q 836 -348 845 -348 l -3 -348 z "},"{":{"ha":833,"x_min":112,"x_max":677,"o":"m 634 930 q 667 916 658 930 q 677 859 677 901 q 673 812 677 828 q 660 791 669 797 q 634 786 650 786 q 536 773 572 786 q 486 733 501 760 q 471 661 471 707 q 471 642 471 649 l 475 576 l 475 559 q 439 441 475 488 q 319 371 402 395 l 319 364 q 440 294 402 341 q 477 178 477 248 q 477 158 477 165 l 471 69 q 470 45 470 61 q 486 -28 470 -1 q 537 -68 501 -55 q 634 -81 573 -81 q 660 -86 650 -81 q 673 -107 669 -92 q 677 -154 677 -123 q 667 -211 677 -196 q 634 -226 658 -226 q 382 -166 464 -226 q 300 20 300 -106 q 302 61 300 40 l 311 158 q 311 174 311 163 q 271 263 311 232 q 155 295 231 295 q 130 301 138 295 q 116 322 121 307 q 112 368 112 338 q 116 413 112 397 q 130 434 121 428 q 155 439 138 439 q 270 471 231 439 q 309 559 309 502 q 308 576 309 570 l 301 650 q 299 690 299 671 q 381 871 299 812 q 634 930 463 930 z "}}}
